<mxfile host="app.diagrams.net" modified="2020-10-11T06:57:45.067Z" agent="5.0 (Macintosh; Intel Mac OS X 10_15_5) AppleWebKit/537.36 (KHTML, like Gecko) Chrome/86.0.4240.75 Safari/537.36" etag="0zRAxFj-3iG49d-4Iaoq" version="13.7.9" type="github">
  <diagram id="C5RBs43oDa-KdzZeNtuy" name="Page-1">
    <mxGraphModel dx="1351" dy="793" grid="1" gridSize="10" guides="1" tooltips="1" connect="1" arrows="1" fold="1" page="1" pageScale="1" pageWidth="827" pageHeight="1169" math="0" shadow="0">
      <root>
        <mxCell id="WIyWlLk6GJQsqaUBKTNV-0" />
        <mxCell id="WIyWlLk6GJQsqaUBKTNV-1" parent="WIyWlLk6GJQsqaUBKTNV-0" />
        <mxCell id="ghsJjhkHBw-PjkQFY_jK-1" value="" style="rounded=0;whiteSpace=wrap;html=1;fillColor=#fff2cc;strokeColor=#d6b656;" vertex="1" parent="WIyWlLk6GJQsqaUBKTNV-1">
          <mxGeometry x="1007.5" y="90" width="502.5" height="453" as="geometry" />
        </mxCell>
        <mxCell id="ghsJjhkHBw-PjkQFY_jK-2" value="UserConfigAggr" style="swimlane;fontStyle=1;align=center;verticalAlign=top;childLayout=stackLayout;horizontal=1;startSize=26;horizontalStack=0;resizeParent=1;resizeParentMax=0;resizeLast=0;collapsible=1;marginBottom=0;fillColor=#fff2cc;strokeColor=#d6b656;" vertex="1" parent="WIyWlLk6GJQsqaUBKTNV-1">
          <mxGeometry x="1041" y="110.5" width="240" height="100" as="geometry" />
        </mxCell>
        <mxCell id="ghsJjhkHBw-PjkQFY_jK-3" value="+ sourceConfigs: List&lt;SourceConfig&gt;&#xa;+ targetConfigs: List&lt;TargetConfig&gt;&#xa;+ type: Enum[INCR TOTAL]" style="text;strokeColor=none;fillColor=none;align=left;verticalAlign=top;spacingLeft=4;spacingRight=4;overflow=hidden;rotatable=0;points=[[0,0.5],[1,0.5]];portConstraint=eastwest;" vertex="1" parent="ghsJjhkHBw-PjkQFY_jK-2">
          <mxGeometry y="26" width="240" height="74" as="geometry" />
        </mxCell>
        <mxCell id="ghsJjhkHBw-PjkQFY_jK-33" style="edgeStyle=orthogonalEdgeStyle;rounded=0;orthogonalLoop=1;jettySize=auto;html=1;exitX=0.5;exitY=0;exitDx=0;exitDy=0;entryX=0.467;entryY=1.007;entryDx=0;entryDy=0;entryPerimeter=0;" edge="1" parent="WIyWlLk6GJQsqaUBKTNV-1" source="ghsJjhkHBw-PjkQFY_jK-6" target="ghsJjhkHBw-PjkQFY_jK-3">
          <mxGeometry relative="1" as="geometry" />
        </mxCell>
        <mxCell id="ghsJjhkHBw-PjkQFY_jK-6" value="SourceConfig" style="swimlane;fontStyle=0;childLayout=stackLayout;horizontal=1;startSize=26;fillColor=none;horizontalStack=0;resizeParent=1;resizeParentMax=0;resizeLast=0;collapsible=1;marginBottom=0;" vertex="1" parent="WIyWlLk6GJQsqaUBKTNV-1">
          <mxGeometry x="1041" y="224" width="219" height="156" as="geometry" />
        </mxCell>
        <mxCell id="ghsJjhkHBw-PjkQFY_jK-7" value="+ logicDb: String" style="text;strokeColor=none;fillColor=none;align=left;verticalAlign=top;spacingLeft=4;spacingRight=4;overflow=hidden;rotatable=0;points=[[0,0.5],[1,0.5]];portConstraint=eastwest;" vertex="1" parent="ghsJjhkHBw-PjkQFY_jK-6">
          <mxGeometry y="26" width="219" height="26" as="geometry" />
        </mxCell>
        <mxCell id="ghsJjhkHBw-PjkQFY_jK-8" value="+ logicTable: String " style="text;strokeColor=none;fillColor=none;align=left;verticalAlign=top;spacingLeft=4;spacingRight=4;overflow=hidden;rotatable=0;points=[[0,0.5],[1,0.5]];portConstraint=eastwest;" vertex="1" parent="ghsJjhkHBw-PjkQFY_jK-6">
          <mxGeometry y="52" width="219" height="26" as="geometry" />
        </mxCell>
        <mxCell id="ghsJjhkHBw-PjkQFY_jK-9" value="+ expression: String" style="text;strokeColor=none;fillColor=none;align=left;verticalAlign=top;spacingLeft=4;spacingRight=4;overflow=hidden;rotatable=0;points=[[0,0.5],[1,0.5]];portConstraint=eastwest;" vertex="1" parent="ghsJjhkHBw-PjkQFY_jK-6">
          <mxGeometry y="78" width="219" height="26" as="geometry" />
        </mxCell>
        <mxCell id="ghsJjhkHBw-PjkQFY_jK-17" value="connectionInfos:List&lt;Object&gt;" style="text;strokeColor=none;fillColor=none;align=left;verticalAlign=top;spacingLeft=4;spacingRight=4;overflow=hidden;rotatable=0;points=[[0,0.5],[1,0.5]];portConstraint=eastwest;" vertex="1" parent="ghsJjhkHBw-PjkQFY_jK-6">
          <mxGeometry y="104" width="219" height="26" as="geometry" />
        </mxCell>
        <mxCell id="ghsJjhkHBw-PjkQFY_jK-18" value="mapping  List&lt;Mapping&gt;" style="text;strokeColor=none;fillColor=none;align=left;verticalAlign=top;spacingLeft=4;spacingRight=4;overflow=hidden;rotatable=0;points=[[0,0.5],[1,0.5]];portConstraint=eastwest;" vertex="1" parent="ghsJjhkHBw-PjkQFY_jK-6">
          <mxGeometry y="130" width="219" height="26" as="geometry" />
        </mxCell>
        <mxCell id="ghsJjhkHBw-PjkQFY_jK-10" value="TargetConfig" style="swimlane;fontStyle=0;childLayout=stackLayout;horizontal=1;startSize=26;fillColor=none;horizontalStack=0;resizeParent=1;resizeParentMax=0;resizeLast=0;collapsible=1;marginBottom=0;" vertex="1" parent="WIyWlLk6GJQsqaUBKTNV-1">
          <mxGeometry x="1331" y="116.5" width="168" height="104" as="geometry" />
        </mxCell>
        <mxCell id="ghsJjhkHBw-PjkQFY_jK-11" value="+ index: String " style="text;strokeColor=none;fillColor=none;align=left;verticalAlign=top;spacingLeft=4;spacingRight=4;overflow=hidden;rotatable=0;points=[[0,0.5],[1,0.5]];portConstraint=eastwest;" vertex="1" parent="ghsJjhkHBw-PjkQFY_jK-10">
          <mxGeometry y="26" width="168" height="26" as="geometry" />
        </mxCell>
        <mxCell id="ghsJjhkHBw-PjkQFY_jK-12" value="routeKey:String" style="text;strokeColor=none;fillColor=none;align=left;verticalAlign=top;spacingLeft=4;spacingRight=4;overflow=hidden;rotatable=0;points=[[0,0.5],[1,0.5]];portConstraint=eastwest;" vertex="1" parent="ghsJjhkHBw-PjkQFY_jK-10">
          <mxGeometry y="52" width="168" height="26" as="geometry" />
        </mxCell>
        <mxCell id="ghsJjhkHBw-PjkQFY_jK-13" value="connectionInfo:Object" style="text;strokeColor=none;fillColor=none;align=left;verticalAlign=top;spacingLeft=4;spacingRight=4;overflow=hidden;rotatable=0;points=[[0,0.5],[1,0.5]];portConstraint=eastwest;" vertex="1" parent="ghsJjhkHBw-PjkQFY_jK-10">
          <mxGeometry y="78" width="168" height="26" as="geometry" />
        </mxCell>
        <mxCell id="fyu8jIoE_ShgRjxgH5nv-0" value="" style="rounded=0;whiteSpace=wrap;html=1;fillColor=#CCFFFF;" parent="WIyWlLk6GJQsqaUBKTNV-1" vertex="1">
          <mxGeometry x="6.5" y="585" width="423.5" height="465" as="geometry" />
        </mxCell>
        <mxCell id="fyu8jIoE_ShgRjxgH5nv-28" value="" style="html=1;fillColor=#FFFFCC;" parent="WIyWlLk6GJQsqaUBKTNV-1" vertex="1">
          <mxGeometry x="250" y="650" width="170" height="360" as="geometry" />
        </mxCell>
        <mxCell id="hgR_kulgM14CzLZd5yYM-16" value="" style="shape=module;align=left;spacingLeft=20;align=center;verticalAlign=top;" parent="WIyWlLk6GJQsqaUBKTNV-1" vertex="1">
          <mxGeometry x="40" y="100" width="440" height="260" as="geometry" />
        </mxCell>
        <mxCell id="hgR_kulgM14CzLZd5yYM-111" value="" style="html=1;fillColor=#CCFFFF;fontSize=9;" parent="WIyWlLk6GJQsqaUBKTNV-1" vertex="1">
          <mxGeometry x="60" y="155" width="420" height="75" as="geometry" />
        </mxCell>
        <mxCell id="hgR_kulgM14CzLZd5yYM-80" style="edgeStyle=orthogonalEdgeStyle;rounded=0;orthogonalLoop=1;jettySize=auto;html=1;exitX=-0.006;exitY=0.049;exitDx=0;exitDy=0;exitPerimeter=0;" parent="WIyWlLk6GJQsqaUBKTNV-1" source="hgR_kulgM14CzLZd5yYM-78" target="hgR_kulgM14CzLZd5yYM-28" edge="1">
          <mxGeometry relative="1" as="geometry">
            <Array as="points">
              <mxPoint x="160" y="246" />
            </Array>
          </mxGeometry>
        </mxCell>
        <mxCell id="hgR_kulgM14CzLZd5yYM-78" value="" style="rounded=0;whiteSpace=wrap;html=1;fillColor=#FFFFCC;" parent="WIyWlLk6GJQsqaUBKTNV-1" vertex="1">
          <mxGeometry x="210" y="240" width="270" height="120" as="geometry" />
        </mxCell>
        <mxCell id="hgR_kulgM14CzLZd5yYM-17" value="Worker Module" style="shape=module;align=left;spacingLeft=20;align=center;verticalAlign=top;" parent="WIyWlLk6GJQsqaUBKTNV-1" vertex="1">
          <mxGeometry x="50" y="380" width="380" height="180" as="geometry" />
        </mxCell>
        <mxCell id="hgR_kulgM14CzLZd5yYM-55" value="" style="rounded=0;whiteSpace=wrap;html=1;fillColor=#CCFFFF;" parent="WIyWlLk6GJQsqaUBKTNV-1" vertex="1">
          <mxGeometry x="69.5" y="495" width="348" height="65" as="geometry" />
        </mxCell>
        <mxCell id="hgR_kulgM14CzLZd5yYM-53" value="" style="rounded=0;whiteSpace=wrap;html=1;fillColor=#CCFFFF;" parent="WIyWlLk6GJQsqaUBKTNV-1" vertex="1">
          <mxGeometry x="67" y="420" width="353" height="70" as="geometry" />
        </mxCell>
        <mxCell id="hgR_kulgM14CzLZd5yYM-114" style="edgeStyle=orthogonalEdgeStyle;rounded=0;orthogonalLoop=1;jettySize=auto;html=1;exitX=0.5;exitY=1;exitDx=0;exitDy=0;fontSize=9;" parent="WIyWlLk6GJQsqaUBKTNV-1" source="hgR_kulgM14CzLZd5yYM-19" target="hgR_kulgM14CzLZd5yYM-111" edge="1">
          <mxGeometry relative="1" as="geometry">
            <Array as="points">
              <mxPoint x="127" y="155" />
              <mxPoint x="127" y="155" />
            </Array>
          </mxGeometry>
        </mxCell>
        <mxCell id="hgR_kulgM14CzLZd5yYM-19" value="jobgroup" style="shape=module;align=left;spacingLeft=20;align=center;verticalAlign=top;" parent="WIyWlLk6GJQsqaUBKTNV-1" vertex="1">
          <mxGeometry x="89.5" y="110" width="74" height="30" as="geometry" />
        </mxCell>
        <mxCell id="hgR_kulgM14CzLZd5yYM-71" value="" style="edgeStyle=orthogonalEdgeStyle;rounded=0;orthogonalLoop=1;jettySize=auto;html=1;entryX=0.5;entryY=0;entryDx=0;entryDy=0;" parent="WIyWlLk6GJQsqaUBKTNV-1" source="hgR_kulgM14CzLZd5yYM-25" target="hgR_kulgM14CzLZd5yYM-19" edge="1">
          <mxGeometry relative="1" as="geometry">
            <Array as="points">
              <mxPoint x="315" y="80" />
              <mxPoint x="126" y="80" />
            </Array>
          </mxGeometry>
        </mxCell>
        <mxCell id="hgR_kulgM14CzLZd5yYM-99" style="edgeStyle=orthogonalEdgeStyle;rounded=0;orthogonalLoop=1;jettySize=auto;html=1;exitX=1;exitY=0.5;exitDx=0;exitDy=0;entryX=0;entryY=0.5;entryDx=0;entryDy=0;fontSize=9;" parent="WIyWlLk6GJQsqaUBKTNV-1" source="hgR_kulgM14CzLZd5yYM-25" target="hgR_kulgM14CzLZd5yYM-98" edge="1">
          <mxGeometry relative="1" as="geometry" />
        </mxCell>
        <mxCell id="hgR_kulgM14CzLZd5yYM-100" value="&lt;span style=&quot;font-size: 12px ; background-color: rgb(248 , 249 , 250)&quot;&gt;JobGroupMeta&lt;/span&gt;" style="edgeLabel;html=1;align=center;verticalAlign=middle;resizable=0;points=[];fontSize=9;" parent="hgR_kulgM14CzLZd5yYM-99" vertex="1" connectable="0">
          <mxGeometry x="-0.1095" y="-1" relative="1" as="geometry">
            <mxPoint as="offset" />
          </mxGeometry>
        </mxCell>
        <mxCell id="hgR_kulgM14CzLZd5yYM-25" value="&lt;p style=&quot;margin: 0px ; margin-top: 6px ; text-align: center&quot;&gt;ConfigParser&lt;/p&gt;&lt;hr&gt;&lt;p style=&quot;margin: 0px ; margin-left: 8px&quot;&gt;parse&lt;/p&gt;" style="align=left;overflow=fill;html=1;dropTarget=0;fillColor=#CCFFFF;" parent="WIyWlLk6GJQsqaUBKTNV-1" vertex="1">
          <mxGeometry x="260" y="10" width="110" height="60" as="geometry" />
        </mxCell>
        <mxCell id="hgR_kulgM14CzLZd5yYM-76" value="" style="edgeStyle=orthogonalEdgeStyle;rounded=0;orthogonalLoop=1;jettySize=auto;html=1;" parent="WIyWlLk6GJQsqaUBKTNV-1" source="hgR_kulgM14CzLZd5yYM-28" target="hgR_kulgM14CzLZd5yYM-69" edge="1">
          <mxGeometry relative="1" as="geometry" />
        </mxCell>
        <mxCell id="hgR_kulgM14CzLZd5yYM-101" value="buildTask" style="edgeLabel;html=1;align=center;verticalAlign=middle;resizable=0;points=[];fontSize=9;" parent="hgR_kulgM14CzLZd5yYM-76" vertex="1" connectable="0">
          <mxGeometry x="0.2308" y="-1" relative="1" as="geometry">
            <mxPoint x="-1" y="-2" as="offset" />
          </mxGeometry>
        </mxCell>
        <mxCell id="hgR_kulgM14CzLZd5yYM-28" value="&lt;p style=&quot;margin: 6px 0px 0px ; text-align: center ; font-size: 11px&quot;&gt;&lt;font style=&quot;font-size: 11px&quot;&gt;jobSchecuder&lt;br style=&quot;font-size: 11px&quot;&gt;&lt;/font&gt;&lt;/p&gt;&lt;hr style=&quot;font-size: 11px&quot;&gt;&lt;p style=&quot;margin: 0px 0px 0px 8px ; font-size: 11px&quot;&gt;&lt;font style=&quot;font-size: 11px&quot;&gt;compute(jobgroup)&lt;/font&gt;&lt;/p&gt;&lt;span style=&quot;text-align: center&quot;&gt;&lt;br&gt;&lt;/span&gt;" style="align=left;overflow=fill;html=1;dropTarget=0;fillColor=#CCFFFF;" parent="WIyWlLk6GJQsqaUBKTNV-1" vertex="1">
          <mxGeometry x="60" y="170" width="120" height="60" as="geometry" />
        </mxCell>
        <mxCell id="hgR_kulgM14CzLZd5yYM-36" value="&lt;p style=&quot;margin: 0px ; margin-top: 6px ; text-align: center&quot;&gt;&lt;b&gt;TaskMeta&lt;/b&gt;&lt;/p&gt;&lt;hr&gt;&lt;p style=&quot;margin: 0px ; margin-left: 8px&quot;&gt;&lt;br&gt;&lt;/p&gt;" style="align=left;overflow=fill;html=1;dropTarget=0;fillColor=#FFFFCC;" parent="WIyWlLk6GJQsqaUBKTNV-1" vertex="1">
          <mxGeometry x="370" y="240" width="110" height="40" as="geometry" />
        </mxCell>
        <mxCell id="hgR_kulgM14CzLZd5yYM-38" value="&lt;p style=&quot;margin: 0px ; margin-top: 6px ; text-align: center&quot;&gt;&lt;b&gt;WorkerRegister&lt;/b&gt;&lt;/p&gt;&lt;hr&gt;&lt;p style=&quot;margin: 0px ; margin-left: 8px&quot;&gt;&lt;br&gt;&lt;/p&gt;" style="align=left;overflow=fill;html=1;dropTarget=0;fillColor=#CCFFFF;" parent="WIyWlLk6GJQsqaUBKTNV-1" vertex="1">
          <mxGeometry x="80" y="511.25" width="110" height="48.75" as="geometry" />
        </mxCell>
        <mxCell id="hgR_kulgM14CzLZd5yYM-105" style="edgeStyle=orthogonalEdgeStyle;rounded=0;orthogonalLoop=1;jettySize=auto;html=1;exitX=0.5;exitY=0;exitDx=0;exitDy=0;entryX=0;entryY=0.5;entryDx=0;entryDy=0;fontSize=9;" parent="WIyWlLk6GJQsqaUBKTNV-1" source="hgR_kulgM14CzLZd5yYM-40" target="hgR_kulgM14CzLZd5yYM-77" edge="1">
          <mxGeometry relative="1" as="geometry" />
        </mxCell>
        <mxCell id="hgR_kulgM14CzLZd5yYM-40" value="&lt;p style=&quot;margin: 0px ; margin-top: 6px ; text-align: center&quot;&gt;&lt;b&gt;(zk)WorkerListener&lt;/b&gt;&lt;/p&gt;&lt;hr&gt;&lt;p style=&quot;margin: 0px ; margin-left: 8px&quot;&gt;+ Attribute2: Type&lt;/p&gt;" style="align=left;overflow=fill;html=1;dropTarget=0;fillColor=#CCFFFF;" parent="WIyWlLk6GJQsqaUBKTNV-1" vertex="1">
          <mxGeometry x="58" y="300" width="137" height="60" as="geometry" />
        </mxCell>
        <mxCell id="hgR_kulgM14CzLZd5yYM-44" value="&lt;p style=&quot;margin: 0px ; margin-top: 6px ; text-align: center&quot;&gt;TaskExecutor&lt;br&gt;&lt;/p&gt;&lt;hr&gt;&lt;p style=&quot;margin: 0px ; margin-left: 8px&quot;&gt;lifecycleManage()&lt;br&gt;&lt;/p&gt;" style="align=left;overflow=fill;html=1;dropTarget=0;fillColor=#CCFFFF;" parent="WIyWlLk6GJQsqaUBKTNV-1" vertex="1">
          <mxGeometry x="190" y="440" width="110" height="46.25" as="geometry" />
        </mxCell>
        <mxCell id="hgR_kulgM14CzLZd5yYM-47" value="&lt;span style=&quot;font-size: 9px&quot;&gt;1&lt;/span&gt;&lt;span style=&quot;text-align: center&quot;&gt;&amp;nbsp;WorkerReporter&lt;/span&gt;&lt;span style=&quot;font-size: 9px&quot;&gt;职责包括定时上报资源情况&lt;/span&gt;&lt;br style=&quot;font-size: 9px&quot;&gt;&lt;span style=&quot;font-size: 9px&quot;&gt;2&lt;/span&gt;&lt;span style=&quot;text-align: center&quot;&gt;TaskReporter&lt;/span&gt;&lt;span style=&quot;font-size: 9px&quot;&gt;定时上报task情况&lt;br&gt;3&amp;nbsp;&lt;/span&gt;&lt;span style=&quot;text-align: center&quot;&gt;TaskExecutor，&lt;/span&gt;&lt;span style=&quot;text-align: center&quot;&gt;TaskReporter&lt;/span&gt;&lt;span style=&quot;text-align: center&quot;&gt;实现上区分增量 全量&lt;br&gt;&lt;/span&gt;&lt;span style=&quot;font-size: 9px&quot;&gt;&lt;br&gt;&lt;/span&gt;" style="rounded=0;whiteSpace=wrap;html=1;align=left;" parent="WIyWlLk6GJQsqaUBKTNV-1" vertex="1">
          <mxGeometry x="440" y="457.5" width="318" height="102.5" as="geometry" />
        </mxCell>
        <mxCell id="hgR_kulgM14CzLZd5yYM-48" value="&lt;p style=&quot;margin: 0px ; margin-top: 6px ; text-align: center&quot;&gt;(zk)TaskListener&lt;br&gt;&lt;/p&gt;&lt;hr&gt;&lt;p style=&quot;margin: 0px ; margin-left: 8px&quot;&gt;listen(task)&lt;/p&gt;" style="align=left;overflow=fill;html=1;dropTarget=0;fillColor=#CCFFFF;" parent="WIyWlLk6GJQsqaUBKTNV-1" vertex="1">
          <mxGeometry x="76.5" y="440" width="110" height="46.25" as="geometry" />
        </mxCell>
        <mxCell id="hgR_kulgM14CzLZd5yYM-50" value="&lt;p style=&quot;margin: 0px ; margin-top: 6px ; text-align: center&quot;&gt;TaskReporter&lt;br&gt;&lt;/p&gt;&lt;hr&gt;&lt;p style=&quot;margin: 0px ; margin-left: 8px&quot;&gt;lifecycleReport()&lt;/p&gt;" style="align=left;overflow=fill;html=1;dropTarget=0;fillColor=#CCFFFF;" parent="WIyWlLk6GJQsqaUBKTNV-1" vertex="1">
          <mxGeometry x="304" y="440" width="110" height="46.25" as="geometry" />
        </mxCell>
        <mxCell id="hgR_kulgM14CzLZd5yYM-52" value="&lt;p style=&quot;margin: 0px ; margin-top: 6px ; text-align: center&quot;&gt;ResourceTimerReporter&lt;br&gt;&lt;/p&gt;&lt;hr&gt;&lt;p style=&quot;margin: 0px ; margin-left: 8px&quot;&gt;&lt;br&gt;&lt;/p&gt;" style="align=left;overflow=fill;html=1;dropTarget=0;fillColor=#CCFFFF;" parent="WIyWlLk6GJQsqaUBKTNV-1" vertex="1">
          <mxGeometry x="197.5" y="510" width="132.5" height="50" as="geometry" />
        </mxCell>
        <mxCell id="hgR_kulgM14CzLZd5yYM-54" value="TaskController" style="text;html=1;strokeColor=none;fillColor=none;align=center;verticalAlign=middle;whiteSpace=wrap;rounded=0;" parent="WIyWlLk6GJQsqaUBKTNV-1" vertex="1">
          <mxGeometry x="95" y="420" width="40" height="20" as="geometry" />
        </mxCell>
        <mxCell id="hgR_kulgM14CzLZd5yYM-57" value="Worker Controller" style="text;html=1;strokeColor=none;fillColor=none;align=center;verticalAlign=middle;whiteSpace=wrap;rounded=0;" parent="WIyWlLk6GJQsqaUBKTNV-1" vertex="1">
          <mxGeometry x="66.5" y="495" width="120" height="15" as="geometry" />
        </mxCell>
        <mxCell id="hgR_kulgM14CzLZd5yYM-59" value="UserConfigAggr" style="swimlane;fontStyle=0;childLayout=stackLayout;horizontal=1;startSize=26;fillColor=none;horizontalStack=0;resizeParent=1;resizeParentMax=0;resizeLast=0;collapsible=1;marginBottom=0;" parent="WIyWlLk6GJQsqaUBKTNV-1" vertex="1">
          <mxGeometry x="70" y="10" width="150" height="50" as="geometry" />
        </mxCell>
        <mxCell id="hgR_kulgM14CzLZd5yYM-61" value="+ field: 用户配置" style="text;strokeColor=none;fillColor=none;align=left;verticalAlign=top;spacingLeft=4;spacingRight=4;overflow=hidden;rotatable=0;points=[[0,0.5],[1,0.5]];portConstraint=eastwest;" parent="hgR_kulgM14CzLZd5yYM-59" vertex="1">
          <mxGeometry y="26" width="150" height="24" as="geometry" />
        </mxCell>
        <mxCell id="hgR_kulgM14CzLZd5yYM-65" style="edgeStyle=orthogonalEdgeStyle;rounded=0;orthogonalLoop=1;jettySize=auto;html=1;exitX=1;exitY=0.5;exitDx=0;exitDy=0;entryX=0;entryY=0.636;entryDx=0;entryDy=0;entryPerimeter=0;" parent="WIyWlLk6GJQsqaUBKTNV-1" source="hgR_kulgM14CzLZd5yYM-61" target="hgR_kulgM14CzLZd5yYM-25" edge="1">
          <mxGeometry relative="1" as="geometry" />
        </mxCell>
        <mxCell id="hgR_kulgM14CzLZd5yYM-115" style="edgeStyle=orthogonalEdgeStyle;rounded=0;orthogonalLoop=1;jettySize=auto;html=1;exitX=1;exitY=0.75;exitDx=0;exitDy=0;entryX=0.75;entryY=1;entryDx=0;entryDy=0;fontSize=9;" parent="WIyWlLk6GJQsqaUBKTNV-1" source="hgR_kulgM14CzLZd5yYM-69" target="hgR_kulgM14CzLZd5yYM-54" edge="1">
          <mxGeometry relative="1" as="geometry">
            <Array as="points">
              <mxPoint x="520" y="215" />
              <mxPoint x="520" y="370" />
              <mxPoint x="125" y="370" />
            </Array>
          </mxGeometry>
        </mxCell>
        <mxCell id="hgR_kulgM14CzLZd5yYM-116" value="job-task" style="edgeLabel;html=1;align=center;verticalAlign=middle;resizable=0;points=[];fontSize=9;" parent="hgR_kulgM14CzLZd5yYM-115" vertex="1" connectable="0">
          <mxGeometry x="0.072" y="-1" relative="1" as="geometry">
            <mxPoint as="offset" />
          </mxGeometry>
        </mxCell>
        <mxCell id="hgR_kulgM14CzLZd5yYM-69" value="&lt;p style=&quot;margin: 0px ; margin-top: 6px ; text-align: center&quot;&gt;&lt;b&gt;(zk)TaskRegister&lt;/b&gt;&lt;/p&gt;&lt;hr&gt;&lt;p style=&quot;margin: 0px ; margin-left: 8px&quot;&gt;register(tasks)&lt;/p&gt;" style="align=left;overflow=fill;html=1;dropTarget=0;fillColor=#CCFFFF;" parent="WIyWlLk6GJQsqaUBKTNV-1" vertex="1">
          <mxGeometry x="350" y="170" width="130" height="60" as="geometry" />
        </mxCell>
        <mxCell id="hgR_kulgM14CzLZd5yYM-109" style="edgeStyle=orthogonalEdgeStyle;rounded=0;orthogonalLoop=1;jettySize=auto;html=1;entryX=1;entryY=0.5;entryDx=0;entryDy=0;fontSize=9;" parent="WIyWlLk6GJQsqaUBKTNV-1" source="hgR_kulgM14CzLZd5yYM-70" target="hgR_kulgM14CzLZd5yYM-36" edge="1">
          <mxGeometry relative="1" as="geometry">
            <Array as="points">
              <mxPoint x="500" y="125" />
              <mxPoint x="500" y="260" />
            </Array>
          </mxGeometry>
        </mxCell>
        <mxCell id="hgR_kulgM14CzLZd5yYM-70" value="&lt;p style=&quot;margin: 0px ; margin-top: 6px ; text-align: center&quot;&gt;&lt;b&gt;TaskReporterWatcher&lt;/b&gt;&lt;/p&gt;&lt;hr&gt;&lt;p style=&quot;margin: 0px ; margin-left: 8px&quot;&gt;+ Attribute2: Type&lt;/p&gt;" style="align=left;overflow=fill;html=1;dropTarget=0;fillColor=#CCFFFF;" parent="WIyWlLk6GJQsqaUBKTNV-1" vertex="1">
          <mxGeometry x="350" y="95" width="130" height="60" as="geometry" />
        </mxCell>
        <mxCell id="hgR_kulgM14CzLZd5yYM-77" value="&lt;p style=&quot;margin: 0px ; margin-top: 6px ; text-align: center&quot;&gt;&lt;b&gt;RegisterWorkerMeta&lt;/b&gt;&lt;/p&gt;&lt;hr&gt;&lt;p style=&quot;margin: 0px ; margin-left: 8px&quot;&gt;&lt;br&gt;&lt;/p&gt;" style="align=left;overflow=fill;html=1;dropTarget=0;fillColor=#FFFFCC;" parent="WIyWlLk6GJQsqaUBKTNV-1" vertex="1">
          <mxGeometry x="210" y="241" width="120" height="39" as="geometry" />
        </mxCell>
        <mxCell id="hgR_kulgM14CzLZd5yYM-79" value="MetaManager" style="text;html=1;strokeColor=none;fillColor=none;align=center;verticalAlign=middle;whiteSpace=wrap;rounded=0;" parent="WIyWlLk6GJQsqaUBKTNV-1" vertex="1">
          <mxGeometry x="230.75" y="320" width="40" height="20" as="geometry" />
        </mxCell>
        <mxCell id="hgR_kulgM14CzLZd5yYM-90" value="JobGroupMeta" style="swimlane;fontStyle=0;childLayout=stackLayout;horizontal=1;startSize=26;fillColor=none;horizontalStack=0;resizeParent=1;resizeParentMax=0;resizeLast=0;collapsible=1;marginBottom=0;" parent="WIyWlLk6GJQsqaUBKTNV-1" vertex="1">
          <mxGeometry x="369" y="283" width="110" height="60" as="geometry" />
        </mxCell>
        <mxCell id="hgR_kulgM14CzLZd5yYM-92" value="+ unqueId:&#xa;+ jobs: List" style="text;strokeColor=none;fillColor=none;align=left;verticalAlign=top;spacingLeft=4;spacingRight=4;overflow=hidden;rotatable=0;points=[[0,0.5],[1,0.5]];portConstraint=eastwest;fontSize=9;" parent="hgR_kulgM14CzLZd5yYM-90" vertex="1">
          <mxGeometry y="26" width="110" height="34" as="geometry" />
        </mxCell>
        <mxCell id="hgR_kulgM14CzLZd5yYM-98" value="&lt;span style=&quot;font-size: 12px&quot;&gt;MetaManager&lt;/span&gt;" style="html=1;fillColor=#FFFFCC;fontSize=9;" parent="WIyWlLk6GJQsqaUBKTNV-1" vertex="1">
          <mxGeometry x="467" y="15" width="110" height="50" as="geometry" />
        </mxCell>
        <mxCell id="hgR_kulgM14CzLZd5yYM-107" value="&lt;div&gt;&lt;font size=&quot;1&quot;&gt;Data persistence layer&lt;/font&gt;&lt;/div&gt;&lt;div&gt;&lt;br&gt;&lt;/div&gt;" style="html=1;fillColor=#D4E1F5;fontSize=9;" parent="WIyWlLk6GJQsqaUBKTNV-1" vertex="1">
          <mxGeometry x="210" y="340" width="270" height="20" as="geometry" />
        </mxCell>
        <mxCell id="hgR_kulgM14CzLZd5yYM-112" value="Job controller" style="text;html=1;strokeColor=none;fillColor=none;align=center;verticalAlign=middle;whiteSpace=wrap;rounded=0;fontSize=9;" parent="WIyWlLk6GJQsqaUBKTNV-1" vertex="1">
          <mxGeometry x="58" y="150" width="90" height="25" as="geometry" />
        </mxCell>
        <mxCell id="fyu8jIoE_ShgRjxgH5nv-202" value="" style="edgeStyle=orthogonalEdgeStyle;rounded=0;orthogonalLoop=1;jettySize=auto;html=1;" parent="WIyWlLk6GJQsqaUBKTNV-1" source="hgR_kulgM14CzLZd5yYM-140" target="hgR_kulgM14CzLZd5yYM-77" edge="1">
          <mxGeometry relative="1" as="geometry" />
        </mxCell>
        <mxCell id="hgR_kulgM14CzLZd5yYM-140" value="" style="verticalLabelPosition=bottom;shadow=0;dashed=0;align=center;html=1;verticalAlign=top;shape=mxgraph.electrical.transmission.cable_group;pointerEvents=1;fillColor=#9AC7BF;fontSize=9;direction=south;" parent="WIyWlLk6GJQsqaUBKTNV-1" vertex="1">
          <mxGeometry x="235" y="104" width="85" height="35" as="geometry" />
        </mxCell>
        <mxCell id="hgR_kulgM14CzLZd5yYM-141" value="eventbus" style="text;html=1;strokeColor=none;fillColor=none;align=center;verticalAlign=middle;whiteSpace=wrap;rounded=0;fontSize=9;" parent="WIyWlLk6GJQsqaUBKTNV-1" vertex="1">
          <mxGeometry x="257.5" y="110.5" width="40" height="20" as="geometry" />
        </mxCell>
        <mxCell id="hgR_kulgM14CzLZd5yYM-142" value="&lt;span style=&quot;font-size: 12px&quot;&gt;Admin Module&lt;/span&gt;" style="text;html=1;strokeColor=none;fillColor=none;align=center;verticalAlign=middle;whiteSpace=wrap;rounded=0;fontSize=9;" parent="WIyWlLk6GJQsqaUBKTNV-1" vertex="1">
          <mxGeometry x="163.5" y="95" width="80" height="25" as="geometry" />
        </mxCell>
        <mxCell id="hgR_kulgM14CzLZd5yYM-144" value="Context" style="ellipse;whiteSpace=wrap;html=1;fillColor=#9AC7BF;fontSize=9;" parent="WIyWlLk6GJQsqaUBKTNV-1" vertex="1">
          <mxGeometry x="232" y="134" width="92" height="21" as="geometry" />
        </mxCell>
        <mxCell id="hgR_kulgM14CzLZd5yYM-145" value="组件交互:&lt;br&gt;1 context包含所有的组件&lt;br&gt;2 所有的组件包含context&lt;br&gt;a 写请求通过context的eventbus&lt;br&gt;b 读请求通过context调用其他组件&lt;br&gt;c 组件与组件之间不进行直接调用" style="rounded=0;whiteSpace=wrap;html=1;fillColor=#FFFFFF;fontSize=9;align=left;" parent="WIyWlLk6GJQsqaUBKTNV-1" vertex="1">
          <mxGeometry x="531" y="190" width="239" height="80" as="geometry" />
        </mxCell>
        <mxCell id="hgR_kulgM14CzLZd5yYM-149" value="Context" style="ellipse;whiteSpace=wrap;html=1;fillColor=#9AC7BF;fontSize=9;" parent="WIyWlLk6GJQsqaUBKTNV-1" vertex="1">
          <mxGeometry x="338" y="400.5" width="92" height="21" as="geometry" />
        </mxCell>
        <mxCell id="hgR_kulgM14CzLZd5yYM-150" value="" style="verticalLabelPosition=bottom;shadow=0;dashed=0;align=center;html=1;verticalAlign=top;shape=mxgraph.electrical.transmission.cable_group;pointerEvents=1;fillColor=#9AC7BF;fontSize=9;direction=south;" parent="WIyWlLk6GJQsqaUBKTNV-1" vertex="1">
          <mxGeometry x="341.5" y="377" width="85" height="35" as="geometry" />
        </mxCell>
        <mxCell id="hgR_kulgM14CzLZd5yYM-151" value="eventbus" style="text;html=1;strokeColor=none;fillColor=none;align=center;verticalAlign=middle;whiteSpace=wrap;rounded=0;fontSize=9;" parent="WIyWlLk6GJQsqaUBKTNV-1" vertex="1">
          <mxGeometry x="368" y="380.5" width="40" height="20" as="geometry" />
        </mxCell>
        <mxCell id="fyu8jIoE_ShgRjxgH5nv-1" value="configParser责任链" style="text;html=1;strokeColor=none;fillColor=none;align=center;verticalAlign=middle;whiteSpace=wrap;rounded=0;" parent="WIyWlLk6GJQsqaUBKTNV-1" vertex="1">
          <mxGeometry x="140.75" y="610" width="130" height="10" as="geometry" />
        </mxCell>
        <mxCell id="fyu8jIoE_ShgRjxgH5nv-198" value="" style="edgeStyle=orthogonalEdgeStyle;rounded=0;orthogonalLoop=1;jettySize=auto;html=1;" parent="WIyWlLk6GJQsqaUBKTNV-1" source="fyu8jIoE_ShgRjxgH5nv-10" target="fyu8jIoE_ShgRjxgH5nv-23" edge="1">
          <mxGeometry relative="1" as="geometry" />
        </mxCell>
        <mxCell id="fyu8jIoE_ShgRjxgH5nv-10" value="" style="shape=line;html=1;strokeWidth=6;strokeColor=#ff0000;" parent="WIyWlLk6GJQsqaUBKTNV-1" vertex="1">
          <mxGeometry x="104" y="630" width="200" height="10" as="geometry" />
        </mxCell>
        <mxCell id="fyu8jIoE_ShgRjxgH5nv-11" value="" style="edgeStyle=orthogonalEdgeStyle;html=1;verticalAlign=bottom;endArrow=open;endSize=8;strokeColor=#ff0000;entryX=0.5;entryY=0;entryDx=0;entryDy=0;" parent="WIyWlLk6GJQsqaUBKTNV-1" source="fyu8jIoE_ShgRjxgH5nv-10" target="fyu8jIoE_ShgRjxgH5nv-22" edge="1">
          <mxGeometry relative="1" as="geometry">
            <mxPoint x="410" y="720" as="targetPoint" />
          </mxGeometry>
        </mxCell>
        <mxCell id="fyu8jIoE_ShgRjxgH5nv-30" style="edgeStyle=orthogonalEdgeStyle;rounded=0;orthogonalLoop=1;jettySize=auto;html=1;exitX=0.5;exitY=0;exitDx=0;exitDy=0;entryX=0;entryY=0.5;entryDx=0;entryDy=0;entryPerimeter=0;" parent="WIyWlLk6GJQsqaUBKTNV-1" source="fyu8jIoE_ShgRjxgH5nv-2" target="fyu8jIoE_ShgRjxgH5nv-10" edge="1">
          <mxGeometry relative="1" as="geometry" />
        </mxCell>
        <mxCell id="fyu8jIoE_ShgRjxgH5nv-2" value="UserConfigAggr" style="swimlane;fontStyle=1;align=center;verticalAlign=top;childLayout=stackLayout;horizontal=1;startSize=26;horizontalStack=0;resizeParent=1;resizeParentMax=0;resizeLast=0;collapsible=1;marginBottom=0;" parent="WIyWlLk6GJQsqaUBKTNV-1" vertex="1">
          <mxGeometry x="14.5" y="710" width="110" height="50" as="geometry" />
        </mxCell>
        <mxCell id="fyu8jIoE_ShgRjxgH5nv-3" value="+ field: type" style="text;strokeColor=none;fillColor=#FFFFFF;align=left;verticalAlign=top;spacingLeft=4;spacingRight=4;overflow=hidden;rotatable=0;points=[[0,0.5],[1,0.5]];portConstraint=eastwest;" parent="fyu8jIoE_ShgRjxgH5nv-2" vertex="1">
          <mxGeometry y="26" width="110" height="24" as="geometry" />
        </mxCell>
        <mxCell id="fyu8jIoE_ShgRjxgH5nv-14" value="DtsDTO" style="html=1;fillColor=#FFFFCC;" parent="WIyWlLk6GJQsqaUBKTNV-1" vertex="1">
          <mxGeometry x="257" y="711" width="153" height="50" as="geometry" />
        </mxCell>
        <mxCell id="fyu8jIoE_ShgRjxgH5nv-15" value="Meta" style="text;html=1;strokeColor=none;fillColor=none;align=center;verticalAlign=middle;whiteSpace=wrap;rounded=0;" parent="WIyWlLk6GJQsqaUBKTNV-1" vertex="1">
          <mxGeometry x="320" y="625" width="40" height="20" as="geometry" />
        </mxCell>
        <mxCell id="fyu8jIoE_ShgRjxgH5nv-16" value="List&amp;lt;JobDTO&amp;gt;" style="html=1;fillColor=#FFFFCC;" parent="WIyWlLk6GJQsqaUBKTNV-1" vertex="1">
          <mxGeometry x="256" y="770" width="153" height="50" as="geometry" />
        </mxCell>
        <mxCell id="fyu8jIoE_ShgRjxgH5nv-17" value="List&amp;lt;dataSourceDTO&amp;gt;" style="html=1;fillColor=#FFFFCC;" parent="WIyWlLk6GJQsqaUBKTNV-1" vertex="1">
          <mxGeometry x="256" y="827" width="153" height="50" as="geometry" />
        </mxCell>
        <mxCell id="fyu8jIoE_ShgRjxgH5nv-18" value="List&amp;lt;MappingDTO&amp;gt;" style="html=1;fillColor=#FFFFCC;" parent="WIyWlLk6GJQsqaUBKTNV-1" vertex="1">
          <mxGeometry x="256" y="880" width="153" height="55" as="geometry" />
        </mxCell>
        <mxCell id="ghsJjhkHBw-PjkQFY_jK-34" style="edgeStyle=orthogonalEdgeStyle;rounded=0;orthogonalLoop=1;jettySize=auto;html=1;exitX=0.5;exitY=0;exitDx=0;exitDy=0;entryX=0.447;entryY=1;entryDx=0;entryDy=0;entryPerimeter=0;" edge="1" parent="WIyWlLk6GJQsqaUBKTNV-1" source="ghsJjhkHBw-PjkQFY_jK-19" target="ghsJjhkHBw-PjkQFY_jK-18">
          <mxGeometry relative="1" as="geometry" />
        </mxCell>
        <mxCell id="ghsJjhkHBw-PjkQFY_jK-19" value="Mapping" style="swimlane;fontStyle=0;childLayout=stackLayout;horizontal=1;startSize=26;fillColor=none;horizontalStack=0;resizeParent=1;resizeParentMax=0;resizeLast=0;collapsible=1;marginBottom=0;" vertex="1" parent="WIyWlLk6GJQsqaUBKTNV-1">
          <mxGeometry x="1045.5" y="397" width="190" height="78" as="geometry" />
        </mxCell>
        <mxCell id="ghsJjhkHBw-PjkQFY_jK-20" value="+foreignKey: String" style="text;strokeColor=none;fillColor=none;align=left;verticalAlign=top;spacingLeft=4;spacingRight=4;overflow=hidden;rotatable=0;points=[[0,0.5],[1,0.5]];portConstraint=eastwest;" vertex="1" parent="ghsJjhkHBw-PjkQFY_jK-19">
          <mxGeometry y="26" width="190" height="26" as="geometry" />
        </mxCell>
        <mxCell id="ghsJjhkHBw-PjkQFY_jK-21" value="cloumnAndField: Map" style="text;strokeColor=none;fillColor=none;align=left;verticalAlign=top;spacingLeft=4;spacingRight=4;overflow=hidden;rotatable=0;points=[[0,0.5],[1,0.5]];portConstraint=eastwest;" vertex="1" parent="ghsJjhkHBw-PjkQFY_jK-19">
          <mxGeometry y="52" width="190" height="26" as="geometry" />
        </mxCell>
        <mxCell id="fyu8jIoE_ShgRjxgH5nv-19" value="List&amp;lt;dataSourceConnectionDTO&lt;br&gt;&amp;gt;" style="html=1;fillColor=#FFFFCC;" parent="WIyWlLk6GJQsqaUBKTNV-1" vertex="1">
          <mxGeometry x="256" y="950" width="153" height="50" as="geometry" />
        </mxCell>
        <mxCell id="fyu8jIoE_ShgRjxgH5nv-20" value="Head" style="html=1;fillColor=#CCFFE6;" parent="WIyWlLk6GJQsqaUBKTNV-1" vertex="1">
          <mxGeometry x="135" y="650" width="110" height="50" as="geometry" />
        </mxCell>
        <mxCell id="fyu8jIoE_ShgRjxgH5nv-22" value="Tail" style="html=1;fillColor=#CCFFE6;" parent="WIyWlLk6GJQsqaUBKTNV-1" vertex="1">
          <mxGeometry x="133.5" y="1000" width="110" height="50" as="geometry" />
        </mxCell>
        <mxCell id="fyu8jIoE_ShgRjxgH5nv-23" value="DtsParseNode" style="html=1;fillColor=#CCFFE6;" parent="WIyWlLk6GJQsqaUBKTNV-1" vertex="1">
          <mxGeometry x="135" y="710" width="110" height="50" as="geometry" />
        </mxCell>
        <mxCell id="fyu8jIoE_ShgRjxgH5nv-24" value="JobsParseNode" style="html=1;fillColor=#CCFFE6;" parent="WIyWlLk6GJQsqaUBKTNV-1" vertex="1">
          <mxGeometry x="133.5" y="770" width="110" height="50" as="geometry" />
        </mxCell>
        <mxCell id="fyu8jIoE_ShgRjxgH5nv-25" value="DataSourceParseNode" style="html=1;fillColor=#CCFFE6;" parent="WIyWlLk6GJQsqaUBKTNV-1" vertex="1">
          <mxGeometry x="133.5" y="830" width="110" height="50" as="geometry" />
        </mxCell>
        <mxCell id="fyu8jIoE_ShgRjxgH5nv-26" value="MappingParseNode" style="html=1;fillColor=#CCFFE6;" parent="WIyWlLk6GJQsqaUBKTNV-1" vertex="1">
          <mxGeometry x="135" y="885" width="110" height="50" as="geometry" />
        </mxCell>
        <mxCell id="fyu8jIoE_ShgRjxgH5nv-27" value="dataSource&lt;br&gt;ConnectionParseNode" style="html=1;fillColor=#CCFFE6;" parent="WIyWlLk6GJQsqaUBKTNV-1" vertex="1">
          <mxGeometry x="133.5" y="948" width="110" height="50" as="geometry" />
        </mxCell>
        <mxCell id="fyu8jIoE_ShgRjxgH5nv-29" value="&lt;meta charset=&quot;utf-8&quot;&gt;&lt;span style=&quot;color: rgb(0, 0, 0); font-family: helvetica; font-size: 12px; font-style: normal; font-weight: 400; letter-spacing: normal; text-align: center; text-indent: 0px; text-transform: none; word-spacing: 0px; background-color: rgb(248, 249, 250); display: inline; float: none;&quot;&gt;JobGroupMeta&lt;/span&gt;" style="text;html=1;strokeColor=none;fillColor=none;align=center;verticalAlign=middle;whiteSpace=wrap;rounded=0;" parent="WIyWlLk6GJQsqaUBKTNV-1" vertex="1">
          <mxGeometry x="264" y="660" width="116" height="5" as="geometry" />
        </mxCell>
        <mxCell id="fyu8jIoE_ShgRjxgH5nv-31" value="" style="rounded=0;whiteSpace=wrap;html=1;fillColor=#CCFFFF;" parent="WIyWlLk6GJQsqaUBKTNV-1" vertex="1">
          <mxGeometry x="440" y="584" width="400" height="516" as="geometry" />
        </mxCell>
        <mxCell id="fyu8jIoE_ShgRjxgH5nv-33" value="&lt;span&gt;InputBatchTaskExecutor&lt;/span&gt;" style="text;html=1;strokeColor=none;fillColor=none;align=center;verticalAlign=middle;whiteSpace=wrap;rounded=0;" parent="WIyWlLk6GJQsqaUBKTNV-1" vertex="1">
          <mxGeometry x="614.5" y="590" width="40" height="20" as="geometry" />
        </mxCell>
        <mxCell id="fyu8jIoE_ShgRjxgH5nv-38" value="" style="line;strokeWidth=1;fillColor=none;align=left;verticalAlign=middle;spacingTop=-1;spacingLeft=3;spacingRight=3;rotatable=0;labelPosition=right;points=[];portConstraint=eastwest;" parent="WIyWlLk6GJQsqaUBKTNV-1" vertex="1">
          <mxGeometry x="15" y="570" width="1685" height="8" as="geometry" />
        </mxCell>
        <mxCell id="fyu8jIoE_ShgRjxgH5nv-77" style="edgeStyle=orthogonalEdgeStyle;rounded=0;orthogonalLoop=1;jettySize=auto;html=1;exitX=1;exitY=0.5;exitDx=0;exitDy=0;entryX=-0.014;entryY=-0.077;entryDx=0;entryDy=0;entryPerimeter=0;" parent="WIyWlLk6GJQsqaUBKTNV-1" edge="1">
          <mxGeometry relative="1" as="geometry">
            <mxPoint x="577" y="656" as="sourcePoint" />
            <mxPoint x="628.04" y="655.998" as="targetPoint" />
          </mxGeometry>
        </mxCell>
        <mxCell id="fyu8jIoE_ShgRjxgH5nv-42" value="task区分全量和增量&lt;br&gt;&lt;br&gt;增量的task为流式处理&lt;br&gt;全量的task为批处理" style="rounded=1;whiteSpace=wrap;html=1;arcSize=40;fontColor=#000000;fillColor=#ffffc0;strokeColor=#ff0000;" parent="WIyWlLk6GJQsqaUBKTNV-1" vertex="1">
          <mxGeometry x="827" y="406.25" width="130" height="80" as="geometry" />
        </mxCell>
        <mxCell id="fyu8jIoE_ShgRjxgH5nv-45" value="" style="rounded=0;whiteSpace=wrap;html=1;fillColor=#CCFFFF;" parent="WIyWlLk6GJQsqaUBKTNV-1" vertex="1">
          <mxGeometry x="1290" y="584" width="390" height="515" as="geometry" />
        </mxCell>
        <mxCell id="fyu8jIoE_ShgRjxgH5nv-46" value="&lt;span style=&quot;font-family: &amp;#34;helvetica&amp;#34;&quot;&gt;InputTupleTaskExecutor&lt;/span&gt;" style="text;html=1;strokeColor=none;fillColor=none;align=center;verticalAlign=middle;whiteSpace=wrap;rounded=0;" parent="WIyWlLk6GJQsqaUBKTNV-1" vertex="1">
          <mxGeometry x="1407" y="612" width="40" height="20" as="geometry" />
        </mxCell>
        <mxCell id="fyu8jIoE_ShgRjxgH5nv-79" style="edgeStyle=orthogonalEdgeStyle;rounded=0;orthogonalLoop=1;jettySize=auto;html=1;exitX=0.5;exitY=1;exitDx=0;exitDy=0;entryX=0.5;entryY=0;entryDx=0;entryDy=0;" parent="WIyWlLk6GJQsqaUBKTNV-1" source="fyu8jIoE_ShgRjxgH5nv-49" edge="1">
          <mxGeometry relative="1" as="geometry">
            <mxPoint x="523.5" y="770" as="targetPoint" />
          </mxGeometry>
        </mxCell>
        <mxCell id="fyu8jIoE_ShgRjxgH5nv-49" value="Step" style="html=1;" parent="WIyWlLk6GJQsqaUBKTNV-1" vertex="1">
          <mxGeometry x="467" y="696" width="110" height="50" as="geometry" />
        </mxCell>
        <mxCell id="fyu8jIoE_ShgRjxgH5nv-160" style="edgeStyle=orthogonalEdgeStyle;rounded=0;orthogonalLoop=1;jettySize=auto;html=1;" parent="WIyWlLk6GJQsqaUBKTNV-1" edge="1">
          <mxGeometry relative="1" as="geometry">
            <mxPoint x="739" y="851" as="sourcePoint" />
            <mxPoint x="735" y="908" as="targetPoint" />
            <Array as="points">
              <mxPoint x="735" y="851" />
            </Array>
          </mxGeometry>
        </mxCell>
        <mxCell id="fyu8jIoE_ShgRjxgH5nv-55" value="buffer&lt;br&gt;无界阻塞" style="ellipse;whiteSpace=wrap;html=1;aspect=fixed;fillColor=#FFFFFF;" parent="WIyWlLk6GJQsqaUBKTNV-1" vertex="1">
          <mxGeometry x="699" y="771" width="80" height="80" as="geometry" />
        </mxCell>
        <mxCell id="fyu8jIoE_ShgRjxgH5nv-73" value="TaskManager" style="swimlane;fontStyle=0;childLayout=stackLayout;horizontal=1;startSize=26;fillColor=none;horizontalStack=0;resizeParent=1;resizeParentMax=0;resizeLast=0;collapsible=1;marginBottom=0;" parent="WIyWlLk6GJQsqaUBKTNV-1" vertex="1">
          <mxGeometry x="630" y="632" width="140" height="90" as="geometry" />
        </mxCell>
        <mxCell id="fyu8jIoE_ShgRjxgH5nv-76" value="build()&#xa;start()&#xa;end()&#xa;report()" style="text;strokeColor=none;fillColor=none;align=left;verticalAlign=top;spacingLeft=4;spacingRight=4;overflow=hidden;rotatable=0;points=[[0,0.5],[1,0.5]];portConstraint=eastwest;" parent="fyu8jIoE_ShgRjxgH5nv-73" vertex="1">
          <mxGeometry y="26" width="140" height="64" as="geometry" />
        </mxCell>
        <mxCell id="fyu8jIoE_ShgRjxgH5nv-78" value="AbstartTaskExecutor" style="html=1;fillColor=#FFFFFF;" parent="WIyWlLk6GJQsqaUBKTNV-1" vertex="1">
          <mxGeometry x="820" y="511" width="150" height="49" as="geometry" />
        </mxCell>
        <mxCell id="fyu8jIoE_ShgRjxgH5nv-84" style="edgeStyle=orthogonalEdgeStyle;rounded=0;orthogonalLoop=1;jettySize=auto;html=1;entryX=0;entryY=0.5;entryDx=0;entryDy=0;exitX=1;exitY=0.5;exitDx=0;exitDy=0;" parent="WIyWlLk6GJQsqaUBKTNV-1" source="fyu8jIoE_ShgRjxgH5nv-100" edge="1">
          <mxGeometry relative="1" as="geometry">
            <mxPoint x="620" y="811" as="sourcePoint" />
            <mxPoint x="697" y="811" as="targetPoint" />
          </mxGeometry>
        </mxCell>
        <mxCell id="fyu8jIoE_ShgRjxgH5nv-90" value="TaskMeta" style="swimlane;fontStyle=1;align=center;verticalAlign=top;childLayout=stackLayout;horizontal=1;startSize=26;horizontalStack=0;resizeParent=1;resizeParentMax=0;resizeLast=0;collapsible=1;marginBottom=0;fillColor=#FFFFFF;" parent="WIyWlLk6GJQsqaUBKTNV-1" vertex="1">
          <mxGeometry x="460" y="630" width="126.5" height="52" as="geometry" />
        </mxCell>
        <mxCell id="fyu8jIoE_ShgRjxgH5nv-91" value="+ field: todo" style="text;strokeColor=none;fillColor=#FFFFFF;align=left;verticalAlign=top;spacingLeft=4;spacingRight=4;overflow=hidden;rotatable=0;points=[[0,0.5],[1,0.5]];portConstraint=eastwest;" parent="fyu8jIoE_ShgRjxgH5nv-90" vertex="1">
          <mxGeometry y="26" width="126.5" height="26" as="geometry" />
        </mxCell>
        <mxCell id="fyu8jIoE_ShgRjxgH5nv-99" value="JdbcSource" style="swimlane;fontStyle=1;align=center;verticalAlign=top;childLayout=stackLayout;horizontal=1;startSize=26;horizontalStack=0;resizeParent=1;resizeParentMax=0;resizeLast=0;collapsible=1;marginBottom=0;fillColor=#CCFFFF;" parent="WIyWlLk6GJQsqaUBKTNV-1" vertex="1">
          <mxGeometry x="454.5" y="772" width="170" height="160" as="geometry" />
        </mxCell>
        <mxCell id="fyu8jIoE_ShgRjxgH5nv-100" value="connection" style="text;strokeColor=none;fillColor=none;align=left;verticalAlign=top;spacingLeft=4;spacingRight=4;overflow=hidden;rotatable=0;points=[[0,0.5],[1,0.5]];portConstraint=eastwest;" parent="fyu8jIoE_ShgRjxgH5nv-99" vertex="1">
          <mxGeometry y="26" width="170" height="26" as="geometry" />
        </mxCell>
        <mxCell id="fyu8jIoE_ShgRjxgH5nv-101" value="" style="line;strokeWidth=1;fillColor=none;align=left;verticalAlign=middle;spacingTop=-1;spacingLeft=3;spacingRight=3;rotatable=0;labelPosition=right;points=[];portConstraint=eastwest;" parent="fyu8jIoE_ShgRjxgH5nv-99" vertex="1">
          <mxGeometry y="52" width="170" height="8" as="geometry" />
        </mxCell>
        <mxCell id="fyu8jIoE_ShgRjxgH5nv-102" value="get()&#xa;push()&#xa;start()&#xa;end()&#xa;report()" style="text;strokeColor=none;fillColor=none;align=left;verticalAlign=top;spacingLeft=4;spacingRight=4;overflow=hidden;rotatable=0;points=[[0,0.5],[1,0.5]];portConstraint=eastwest;" parent="fyu8jIoE_ShgRjxgH5nv-99" vertex="1">
          <mxGeometry y="60" width="170" height="100" as="geometry" />
        </mxCell>
        <mxCell id="fyu8jIoE_ShgRjxgH5nv-132" value="" style="rounded=0;whiteSpace=wrap;html=1;fillColor=#CCFFFF;" parent="WIyWlLk6GJQsqaUBKTNV-1" vertex="1">
          <mxGeometry x="861" y="585" width="400" height="516" as="geometry" />
        </mxCell>
        <mxCell id="fyu8jIoE_ShgRjxgH5nv-133" value="&lt;span&gt;OutputTaskExecutor&lt;/span&gt;" style="text;html=1;strokeColor=none;fillColor=none;align=center;verticalAlign=middle;whiteSpace=wrap;rounded=0;" parent="WIyWlLk6GJQsqaUBKTNV-1" vertex="1">
          <mxGeometry x="1035.5" y="600" width="40" height="20" as="geometry" />
        </mxCell>
        <mxCell id="fyu8jIoE_ShgRjxgH5nv-134" style="edgeStyle=orthogonalEdgeStyle;rounded=0;orthogonalLoop=1;jettySize=auto;html=1;exitX=1;exitY=0.5;exitDx=0;exitDy=0;entryX=-0.014;entryY=-0.077;entryDx=0;entryDy=0;entryPerimeter=0;" parent="WIyWlLk6GJQsqaUBKTNV-1" edge="1">
          <mxGeometry relative="1" as="geometry">
            <mxPoint x="998" y="666" as="sourcePoint" />
            <mxPoint x="1049.0400000000002" y="665.998" as="targetPoint" />
          </mxGeometry>
        </mxCell>
        <mxCell id="fyu8jIoE_ShgRjxgH5nv-183" style="edgeStyle=orthogonalEdgeStyle;rounded=0;orthogonalLoop=1;jettySize=auto;html=1;exitX=0.5;exitY=1;exitDx=0;exitDy=0;entryX=0.5;entryY=0;entryDx=0;entryDy=0;" parent="WIyWlLk6GJQsqaUBKTNV-1" source="fyu8jIoE_ShgRjxgH5nv-138" target="fyu8jIoE_ShgRjxgH5nv-148" edge="1">
          <mxGeometry relative="1" as="geometry" />
        </mxCell>
        <mxCell id="fyu8jIoE_ShgRjxgH5nv-138" value="buffer" style="ellipse;whiteSpace=wrap;html=1;aspect=fixed;fillColor=#FFFFFF;" parent="WIyWlLk6GJQsqaUBKTNV-1" vertex="1">
          <mxGeometry x="1120" y="772" width="80" height="80" as="geometry" />
        </mxCell>
        <mxCell id="fyu8jIoE_ShgRjxgH5nv-141" style="edgeStyle=orthogonalEdgeStyle;rounded=0;orthogonalLoop=1;jettySize=auto;html=1;entryX=0;entryY=0.5;entryDx=0;entryDy=0;exitX=1;exitY=0.5;exitDx=0;exitDy=0;" parent="WIyWlLk6GJQsqaUBKTNV-1" source="fyu8jIoE_ShgRjxgH5nv-145" edge="1">
          <mxGeometry relative="1" as="geometry">
            <mxPoint x="1041" y="812" as="sourcePoint" />
            <mxPoint x="1118" y="812" as="targetPoint" />
          </mxGeometry>
        </mxCell>
        <mxCell id="fyu8jIoE_ShgRjxgH5nv-139" value="TaskManager" style="swimlane;fontStyle=0;childLayout=stackLayout;horizontal=1;startSize=26;fillColor=none;horizontalStack=0;resizeParent=1;resizeParentMax=0;resizeLast=0;collapsible=1;marginBottom=0;" parent="WIyWlLk6GJQsqaUBKTNV-1" vertex="1">
          <mxGeometry x="1051" y="633" width="140" height="90" as="geometry" />
        </mxCell>
        <mxCell id="fyu8jIoE_ShgRjxgH5nv-140" value="build()&#xa;start()&#xa;end()&#xa;report()" style="text;strokeColor=none;fillColor=none;align=left;verticalAlign=top;spacingLeft=4;spacingRight=4;overflow=hidden;rotatable=0;points=[[0,0.5],[1,0.5]];portConstraint=eastwest;" parent="fyu8jIoE_ShgRjxgH5nv-139" vertex="1">
          <mxGeometry y="26" width="140" height="64" as="geometry" />
        </mxCell>
        <mxCell id="fyu8jIoE_ShgRjxgH5nv-142" value="TaskMeta" style="swimlane;fontStyle=1;align=center;verticalAlign=top;childLayout=stackLayout;horizontal=1;startSize=26;horizontalStack=0;resizeParent=1;resizeParentMax=0;resizeLast=0;collapsible=1;marginBottom=0;fillColor=#FFFFFF;" parent="WIyWlLk6GJQsqaUBKTNV-1" vertex="1">
          <mxGeometry x="881" y="631" width="126.5" height="52" as="geometry" />
        </mxCell>
        <mxCell id="fyu8jIoE_ShgRjxgH5nv-143" value="+ field: todo" style="text;strokeColor=none;fillColor=#FFFFFF;align=left;verticalAlign=top;spacingLeft=4;spacingRight=4;overflow=hidden;rotatable=0;points=[[0,0.5],[1,0.5]];portConstraint=eastwest;" parent="fyu8jIoE_ShgRjxgH5nv-142" vertex="1">
          <mxGeometry y="26" width="126.5" height="26" as="geometry" />
        </mxCell>
        <mxCell id="fyu8jIoE_ShgRjxgH5nv-144" value="RedisAndHbaseSource" style="swimlane;fontStyle=1;align=center;verticalAlign=top;childLayout=stackLayout;horizontal=1;startSize=26;horizontalStack=0;resizeParent=1;resizeParentMax=0;resizeLast=0;collapsible=1;marginBottom=0;fillColor=#CCFFFF;" parent="WIyWlLk6GJQsqaUBKTNV-1" vertex="1">
          <mxGeometry x="875.5" y="773" width="170" height="170" as="geometry" />
        </mxCell>
        <mxCell id="fyu8jIoE_ShgRjxgH5nv-145" value="connectionRedis&#xa;connectionHbase" style="text;strokeColor=none;fillColor=none;align=left;verticalAlign=top;spacingLeft=4;spacingRight=4;overflow=hidden;rotatable=0;points=[[0,0.5],[1,0.5]];portConstraint=eastwest;" parent="fyu8jIoE_ShgRjxgH5nv-144" vertex="1">
          <mxGeometry y="26" width="170" height="26" as="geometry" />
        </mxCell>
        <mxCell id="fyu8jIoE_ShgRjxgH5nv-146" value="" style="line;strokeWidth=1;fillColor=none;align=left;verticalAlign=middle;spacingTop=-1;spacingLeft=3;spacingRight=3;rotatable=0;labelPosition=right;points=[];portConstraint=eastwest;" parent="fyu8jIoE_ShgRjxgH5nv-144" vertex="1">
          <mxGeometry y="52" width="170" height="8" as="geometry" />
        </mxCell>
        <mxCell id="fyu8jIoE_ShgRjxgH5nv-147" value="pollWaitingBuffer()&#xa;getByRowKey()&#xa;push()&#xa;start()&#xa;end()&#xa;report()" style="text;strokeColor=none;fillColor=none;align=left;verticalAlign=top;spacingLeft=4;spacingRight=4;overflow=hidden;rotatable=0;points=[[0,0.5],[1,0.5]];portConstraint=eastwest;" parent="fyu8jIoE_ShgRjxgH5nv-144" vertex="1">
          <mxGeometry y="60" width="170" height="110" as="geometry" />
        </mxCell>
        <mxCell id="fyu8jIoE_ShgRjxgH5nv-159" style="edgeStyle=orthogonalEdgeStyle;rounded=0;orthogonalLoop=1;jettySize=auto;html=1;" parent="WIyWlLk6GJQsqaUBKTNV-1" edge="1">
          <mxGeometry relative="1" as="geometry">
            <mxPoint x="1052" y="754" as="sourcePoint" />
            <mxPoint x="960.0285714285715" y="772" as="targetPoint" />
            <Array as="points">
              <mxPoint x="1032" y="754" />
              <mxPoint x="1032" y="752" />
              <mxPoint x="960" y="752" />
            </Array>
          </mxGeometry>
        </mxCell>
        <mxCell id="fyu8jIoE_ShgRjxgH5nv-152" value="waitingBuffer" style="rounded=0;whiteSpace=wrap;html=1;fillColor=#CCE5FF;" parent="WIyWlLk6GJQsqaUBKTNV-1" vertex="1">
          <mxGeometry x="1052" y="738" width="74" height="30" as="geometry" />
        </mxCell>
        <mxCell id="fyu8jIoE_ShgRjxgH5nv-153" value="workingBuffer" style="rounded=0;whiteSpace=wrap;html=1;fillColor=#CCE5FF;" parent="WIyWlLk6GJQsqaUBKTNV-1" vertex="1">
          <mxGeometry x="1126" y="738" width="74" height="30" as="geometry" />
        </mxCell>
        <mxCell id="fyu8jIoE_ShgRjxgH5nv-154" value="hbase" style="rounded=0;whiteSpace=wrap;html=1;fillColor=#CCE5FF;" parent="WIyWlLk6GJQsqaUBKTNV-1" vertex="1">
          <mxGeometry x="467" y="970" width="120" height="60" as="geometry" />
        </mxCell>
        <mxCell id="fyu8jIoE_ShgRjxgH5nv-155" value="redis waitingBuffer" style="rounded=0;whiteSpace=wrap;html=1;fillColor=#CCE5FF;" parent="WIyWlLk6GJQsqaUBKTNV-1" vertex="1">
          <mxGeometry x="467.5" y="1038" width="120" height="60" as="geometry" />
        </mxCell>
        <mxCell id="fyu8jIoE_ShgRjxgH5nv-157" style="edgeStyle=orthogonalEdgeStyle;rounded=0;orthogonalLoop=1;jettySize=auto;html=1;exitX=-0.011;exitY=0.141;exitDx=0;exitDy=0;entryX=1;entryY=0.5;entryDx=0;entryDy=0;exitPerimeter=0;" parent="WIyWlLk6GJQsqaUBKTNV-1" source="fyu8jIoE_ShgRjxgH5nv-110" target="fyu8jIoE_ShgRjxgH5nv-155" edge="1">
          <mxGeometry relative="1" as="geometry" />
        </mxCell>
        <mxCell id="fyu8jIoE_ShgRjxgH5nv-158" style="edgeStyle=orthogonalEdgeStyle;rounded=0;orthogonalLoop=1;jettySize=auto;html=1;exitX=-0.011;exitY=0.147;exitDx=0;exitDy=0;entryX=0.995;entryY=0.369;entryDx=0;entryDy=0;entryPerimeter=0;exitPerimeter=0;" parent="WIyWlLk6GJQsqaUBKTNV-1" source="fyu8jIoE_ShgRjxgH5nv-110" target="fyu8jIoE_ShgRjxgH5nv-154" edge="1">
          <mxGeometry relative="1" as="geometry" />
        </mxCell>
        <mxCell id="fyu8jIoE_ShgRjxgH5nv-107" value="RedisAndHbaseTarget" style="swimlane;fontStyle=1;align=center;verticalAlign=top;childLayout=stackLayout;horizontal=1;startSize=26;horizontalStack=0;resizeParent=1;resizeParentMax=0;resizeLast=0;collapsible=1;marginBottom=0;fillColor=#CCE5FF;" parent="WIyWlLk6GJQsqaUBKTNV-1" vertex="1">
          <mxGeometry x="650" y="908" width="170" height="190" as="geometry" />
        </mxCell>
        <mxCell id="fyu8jIoE_ShgRjxgH5nv-108" value="connectionRedis[or Adapter]&#xa;connectionHbase[or Adapter]&#xa;mapping&#xa;foreignKey" style="text;strokeColor=none;fillColor=none;align=left;verticalAlign=top;spacingLeft=4;spacingRight=4;overflow=hidden;rotatable=0;points=[[0,0.5],[1,0.5]];portConstraint=eastwest;" parent="fyu8jIoE_ShgRjxgH5nv-107" vertex="1">
          <mxGeometry y="26" width="170" height="64" as="geometry" />
        </mxCell>
        <mxCell id="fyu8jIoE_ShgRjxgH5nv-109" value="" style="line;strokeWidth=1;fillColor=none;align=left;verticalAlign=middle;spacingTop=-1;spacingLeft=3;spacingRight=3;rotatable=0;labelPosition=right;points=[];portConstraint=eastwest;" parent="fyu8jIoE_ShgRjxgH5nv-107" vertex="1">
          <mxGeometry y="90" width="170" height="8" as="geometry" />
        </mxCell>
        <mxCell id="fyu8jIoE_ShgRjxgH5nv-110" value="poll()&#xa;mapping()&#xa;push()&#xa;report()&#xa;start()&#xa;end()" style="text;strokeColor=none;fillColor=none;align=left;verticalAlign=top;spacingLeft=4;spacingRight=4;overflow=hidden;rotatable=0;points=[[0,0.5],[1,0.5]];portConstraint=eastwest;" parent="fyu8jIoE_ShgRjxgH5nv-107" vertex="1">
          <mxGeometry y="98" width="170" height="92" as="geometry" />
        </mxCell>
        <mxCell id="fyu8jIoE_ShgRjxgH5nv-148" value="EsTarget" style="swimlane;fontStyle=1;align=center;verticalAlign=top;childLayout=stackLayout;horizontal=1;startSize=26;horizontalStack=0;resizeParent=1;resizeParentMax=0;resizeLast=0;collapsible=1;marginBottom=0;fillColor=#CCE5FF;" parent="WIyWlLk6GJQsqaUBKTNV-1" vertex="1">
          <mxGeometry x="1071" y="886" width="170" height="210" as="geometry" />
        </mxCell>
        <mxCell id="fyu8jIoE_ShgRjxgH5nv-149" value="connection[or Adapter]&#xa;mapping&#xa;foreignKey&#xa;routingKey&#xa;" style="text;strokeColor=none;fillColor=none;align=left;verticalAlign=top;spacingLeft=4;spacingRight=4;overflow=hidden;rotatable=0;points=[[0,0.5],[1,0.5]];portConstraint=eastwest;" parent="fyu8jIoE_ShgRjxgH5nv-148" vertex="1">
          <mxGeometry y="26" width="170" height="64" as="geometry" />
        </mxCell>
        <mxCell id="fyu8jIoE_ShgRjxgH5nv-150" value="" style="line;strokeWidth=1;fillColor=none;align=left;verticalAlign=middle;spacingTop=-1;spacingLeft=3;spacingRight=3;rotatable=0;labelPosition=right;points=[];portConstraint=eastwest;" parent="fyu8jIoE_ShgRjxgH5nv-148" vertex="1">
          <mxGeometry y="90" width="170" height="8" as="geometry" />
        </mxCell>
        <mxCell id="fyu8jIoE_ShgRjxgH5nv-151" value="poll()&#xa;mapping()&#xa;push()&#xa;clearWorkingBuffer()&#xa;report()&#xa;start()&#xa;end()" style="text;strokeColor=none;fillColor=none;align=left;verticalAlign=top;spacingLeft=4;spacingRight=4;overflow=hidden;rotatable=0;points=[[0,0.5],[1,0.5]];portConstraint=eastwest;" parent="fyu8jIoE_ShgRjxgH5nv-148" vertex="1">
          <mxGeometry y="98" width="170" height="112" as="geometry" />
        </mxCell>
        <mxCell id="fyu8jIoE_ShgRjxgH5nv-167" style="edgeStyle=orthogonalEdgeStyle;rounded=0;orthogonalLoop=1;jettySize=auto;html=1;exitX=1;exitY=0.5;exitDx=0;exitDy=0;entryX=-0.014;entryY=-0.077;entryDx=0;entryDy=0;entryPerimeter=0;" parent="WIyWlLk6GJQsqaUBKTNV-1" edge="1">
          <mxGeometry relative="1" as="geometry">
            <mxPoint x="1446.5" y="725.4099999999997" as="sourcePoint" />
            <mxPoint x="1497.54" y="725.408" as="targetPoint" />
          </mxGeometry>
        </mxCell>
        <mxCell id="fyu8jIoE_ShgRjxgH5nv-192" style="edgeStyle=orthogonalEdgeStyle;rounded=0;orthogonalLoop=1;jettySize=auto;html=1;exitX=0.5;exitY=1;exitDx=0;exitDy=0;entryX=0.58;entryY=0.002;entryDx=0;entryDy=0;entryPerimeter=0;" parent="WIyWlLk6GJQsqaUBKTNV-1" source="fyu8jIoE_ShgRjxgH5nv-168" target="fyu8jIoE_ShgRjxgH5nv-188" edge="1">
          <mxGeometry relative="1" as="geometry" />
        </mxCell>
        <mxCell id="fyu8jIoE_ShgRjxgH5nv-168" value="buffer" style="ellipse;whiteSpace=wrap;html=1;aspect=fixed;fillColor=#FFFFFF;" parent="WIyWlLk6GJQsqaUBKTNV-1" vertex="1">
          <mxGeometry x="1555" y="790" width="80" height="80" as="geometry" />
        </mxCell>
        <mxCell id="fyu8jIoE_ShgRjxgH5nv-169" style="edgeStyle=orthogonalEdgeStyle;rounded=0;orthogonalLoop=1;jettySize=auto;html=1;entryX=0;entryY=0.5;entryDx=0;entryDy=0;exitX=0.941;exitY=-0.03;exitDx=0;exitDy=0;exitPerimeter=0;" parent="WIyWlLk6GJQsqaUBKTNV-1" source="fyu8jIoE_ShgRjxgH5nv-187" target="fyu8jIoE_ShgRjxgH5nv-168" edge="1">
          <mxGeometry relative="1" as="geometry">
            <mxPoint x="1486.5" y="880" as="sourcePoint" />
            <mxPoint x="1559" y="880" as="targetPoint" />
          </mxGeometry>
        </mxCell>
        <mxCell id="fyu8jIoE_ShgRjxgH5nv-170" value="TaskManager" style="swimlane;fontStyle=0;childLayout=stackLayout;horizontal=1;startSize=26;fillColor=none;horizontalStack=0;resizeParent=1;resizeParentMax=0;resizeLast=0;collapsible=1;marginBottom=0;" parent="WIyWlLk6GJQsqaUBKTNV-1" vertex="1">
          <mxGeometry x="1499" y="671" width="140" height="90" as="geometry" />
        </mxCell>
        <mxCell id="fyu8jIoE_ShgRjxgH5nv-171" value="build()&#xa;start()&#xa;end()&#xa;report()" style="text;strokeColor=none;fillColor=none;align=left;verticalAlign=top;spacingLeft=4;spacingRight=4;overflow=hidden;rotatable=0;points=[[0,0.5],[1,0.5]];portConstraint=eastwest;" parent="fyu8jIoE_ShgRjxgH5nv-170" vertex="1">
          <mxGeometry y="26" width="140" height="64" as="geometry" />
        </mxCell>
        <mxCell id="fyu8jIoE_ShgRjxgH5nv-172" value="TaskMeta" style="swimlane;fontStyle=1;align=center;verticalAlign=top;childLayout=stackLayout;horizontal=1;startSize=26;horizontalStack=0;resizeParent=1;resizeParentMax=0;resizeLast=0;collapsible=1;marginBottom=0;fillColor=#FFFFFF;" parent="WIyWlLk6GJQsqaUBKTNV-1" vertex="1">
          <mxGeometry x="1320" y="700" width="126.5" height="52" as="geometry" />
        </mxCell>
        <mxCell id="fyu8jIoE_ShgRjxgH5nv-173" value="+ field: todo" style="text;strokeColor=none;fillColor=#FFFFFF;align=left;verticalAlign=top;spacingLeft=4;spacingRight=4;overflow=hidden;rotatable=0;points=[[0,0.5],[1,0.5]];portConstraint=eastwest;" parent="fyu8jIoE_ShgRjxgH5nv-172" vertex="1">
          <mxGeometry y="26" width="126.5" height="26" as="geometry" />
        </mxCell>
        <mxCell id="fyu8jIoE_ShgRjxgH5nv-184" value="MqListenerSource" style="swimlane;fontStyle=1;align=center;verticalAlign=top;childLayout=stackLayout;horizontal=1;startSize=26;horizontalStack=0;resizeParent=1;resizeParentMax=0;resizeLast=0;collapsible=1;marginBottom=0;fillColor=#CCFFFF;" parent="WIyWlLk6GJQsqaUBKTNV-1" vertex="1">
          <mxGeometry x="1310" y="773" width="170" height="160" as="geometry" />
        </mxCell>
        <mxCell id="fyu8jIoE_ShgRjxgH5nv-185" value="connection" style="text;strokeColor=none;fillColor=none;align=left;verticalAlign=top;spacingLeft=4;spacingRight=4;overflow=hidden;rotatable=0;points=[[0,0.5],[1,0.5]];portConstraint=eastwest;" parent="fyu8jIoE_ShgRjxgH5nv-184" vertex="1">
          <mxGeometry y="26" width="170" height="26" as="geometry" />
        </mxCell>
        <mxCell id="fyu8jIoE_ShgRjxgH5nv-186" value="" style="line;strokeWidth=1;fillColor=none;align=left;verticalAlign=middle;spacingTop=-1;spacingLeft=3;spacingRight=3;rotatable=0;labelPosition=right;points=[];portConstraint=eastwest;" parent="fyu8jIoE_ShgRjxgH5nv-184" vertex="1">
          <mxGeometry y="52" width="170" height="8" as="geometry" />
        </mxCell>
        <mxCell id="fyu8jIoE_ShgRjxgH5nv-187" value="get()&#xa;push()&#xa;start()&#xa;end()&#xa;report()" style="text;strokeColor=none;fillColor=none;align=left;verticalAlign=top;spacingLeft=4;spacingRight=4;overflow=hidden;rotatable=0;points=[[0,0.5],[1,0.5]];portConstraint=eastwest;" parent="fyu8jIoE_ShgRjxgH5nv-184" vertex="1">
          <mxGeometry y="60" width="170" height="100" as="geometry" />
        </mxCell>
        <mxCell id="fyu8jIoE_ShgRjxgH5nv-188" value="RedisAndHbaseTarget" style="swimlane;fontStyle=1;align=center;verticalAlign=top;childLayout=stackLayout;horizontal=1;startSize=26;horizontalStack=0;resizeParent=1;resizeParentMax=0;resizeLast=0;collapsible=1;marginBottom=0;fillColor=#CCE5FF;" parent="WIyWlLk6GJQsqaUBKTNV-1" vertex="1">
          <mxGeometry x="1499" y="896" width="170" height="190" as="geometry" />
        </mxCell>
        <mxCell id="fyu8jIoE_ShgRjxgH5nv-189" value="connectionRedis[or Adapter]&#xa;connectionHbase[or Adapter]&#xa;mapping&#xa;foreignKey" style="text;strokeColor=none;fillColor=none;align=left;verticalAlign=top;spacingLeft=4;spacingRight=4;overflow=hidden;rotatable=0;points=[[0,0.5],[1,0.5]];portConstraint=eastwest;" parent="fyu8jIoE_ShgRjxgH5nv-188" vertex="1">
          <mxGeometry y="26" width="170" height="64" as="geometry" />
        </mxCell>
        <mxCell id="fyu8jIoE_ShgRjxgH5nv-190" value="" style="line;strokeWidth=1;fillColor=none;align=left;verticalAlign=middle;spacingTop=-1;spacingLeft=3;spacingRight=3;rotatable=0;labelPosition=right;points=[];portConstraint=eastwest;" parent="fyu8jIoE_ShgRjxgH5nv-188" vertex="1">
          <mxGeometry y="90" width="170" height="8" as="geometry" />
        </mxCell>
        <mxCell id="fyu8jIoE_ShgRjxgH5nv-191" value="poll()&#xa;mapping()&#xa;push()&#xa;report()&#xa;start()&#xa;end()" style="text;strokeColor=none;fillColor=none;align=left;verticalAlign=top;spacingLeft=4;spacingRight=4;overflow=hidden;rotatable=0;points=[[0,0.5],[1,0.5]];portConstraint=eastwest;" parent="fyu8jIoE_ShgRjxgH5nv-188" vertex="1">
          <mxGeometry y="98" width="170" height="92" as="geometry" />
        </mxCell>
        <mxCell id="fyu8jIoE_ShgRjxgH5nv-194" value="hbase" style="rounded=0;whiteSpace=wrap;html=1;fillColor=#CCE5FF;" parent="WIyWlLk6GJQsqaUBKTNV-1" vertex="1">
          <mxGeometry x="1317.87" y="980" width="112.13" height="50" as="geometry" />
        </mxCell>
        <mxCell id="fyu8jIoE_ShgRjxgH5nv-195" value="redis waitingBuffer" style="rounded=0;whiteSpace=wrap;html=1;fillColor=#CCE5FF;" parent="WIyWlLk6GJQsqaUBKTNV-1" vertex="1">
          <mxGeometry x="1318.37" y="1045" width="111.63" height="52" as="geometry" />
        </mxCell>
        <mxCell id="fyu8jIoE_ShgRjxgH5nv-196" style="edgeStyle=orthogonalEdgeStyle;rounded=0;orthogonalLoop=1;jettySize=auto;html=1;exitX=-0.011;exitY=0.141;exitDx=0;exitDy=0;entryX=1;entryY=0.5;entryDx=0;entryDy=0;exitPerimeter=0;" parent="WIyWlLk6GJQsqaUBKTNV-1" target="fyu8jIoE_ShgRjxgH5nv-195" edge="1">
          <mxGeometry relative="1" as="geometry">
            <mxPoint x="1499" y="1028.972" as="sourcePoint" />
          </mxGeometry>
        </mxCell>
        <mxCell id="fyu8jIoE_ShgRjxgH5nv-197" style="edgeStyle=orthogonalEdgeStyle;rounded=0;orthogonalLoop=1;jettySize=auto;html=1;exitX=-0.011;exitY=0.147;exitDx=0;exitDy=0;entryX=0.995;entryY=0.369;entryDx=0;entryDy=0;entryPerimeter=0;exitPerimeter=0;" parent="WIyWlLk6GJQsqaUBKTNV-1" target="fyu8jIoE_ShgRjxgH5nv-194" edge="1">
          <mxGeometry relative="1" as="geometry">
            <mxPoint x="1499" y="1029.524" as="sourcePoint" />
          </mxGeometry>
        </mxCell>
        <mxCell id="ghsJjhkHBw-PjkQFY_jK-14" value="" style="shape=image;verticalLabelPosition=bottom;labelBackgroundColor=#ffffff;verticalAlign=top;aspect=fixed;imageAspect=0;image=data:image/png,iVBORw0KGgoAAAANSUhEUgAAAggAAAGBCAYAAAADq0nuAAAgAElEQVR4XuydB5hkRdX+z+ScZ3MiLSBpWXLOLFmCJOVDUFBE/OAvKCKCyqcC5kASBEUlSM6wpGXJKCwgSNgFgV02Tc459P/5ndkaent7ptPt6XTq2X1mpvveulVv1a33rVOn6mT5RpIMDw9LVlaWZGdni3/ic/7n5OTo9/5paGhIuDc3N3e9z/ljYGBAPw+8h+8aGhqktrZ2g+/Ii/vy8/M3yG+sZ7mycwNlDLfsvb29Wq+ioqINykEZwCEwP/Lu6+vT8gWrV39/v+Tl5QWtF+UPhhPl4LuSkpL1yk69+JxyRNomwbDgs7HKx3dNTU1SXV29QdnBiHJQL//kcA/W/tGWvaenR/tTcXFx0P5EewRiMV69yGtwcDBoP3T1CtZHu7u7FQf6RmCdyS9YOcZ7F7iH/IL1p/H6TEtLi1RVVUXcJsHaP9o2AQtSsDah7ODnZZtQzmA4dXV16bMKCgqCtkmwdnRjV7D3Lpo2Ib/29napqKgIeywcD3f3XbCxdbyyd3d1iWRlRfSehHoXQo3xwcoIFrwjgWPDeO9WKM4Ya9wdi09oR/poWVnZem0yHi9E2ybjlZ3+SdkDxwzHhcHGjPHaxD0rGO7UORgv8KzW1lbFIvAdioZbyS9rYGDAxy9OIAQSnwOaAgV+xz2kYAMEFQz2ojsyqqmp2YAE+MAN6IFf8qyxBo/xys49lDuw7BA93zHgBBM+weobSviMVXaH4ViCA6yCDcBOIIzVJsHyG69NHLkFEzeOjII1ylhtOd6zQrVJsD6DWCIVFhZuUIyxsAjVJkMQehABS5vw36tyjNfGodokGIG5l72ysnIDLKJ91nj9yTc8LNkBApsHj9cm4/Wnsb6LtuyQADgFTh7GG5+ifdZYZacdOzs7pby8PGibjIUhuAebfJFJNO84QpoUjIzGe0+8bhOw4F0N7L+hcB9rHI8GJ+pEHy0tLd2gTULxU7AxPtqyR9Mmobg1Ur4DAEQbk81gAmGsSep43JrV3d0dlkCIlIzGEwionGAD33gCYbwBPRoyYvbjBEJgz4rmJRuv7E6AjTXT4nnBXvZo6hXqpRhLtLW1tenMKBKB4HWbINpIgbPE8QbSULiP1Q/HK/t45QglpCN9T8YSle5lH4uM3IwvmJAOJohDkdFYYinaNhnv/Y+mTSABsA2crbp6BcM91GDPvZFMbsiPmWIwMormXQhV9vHahO+CCenxRFs0uI83nnR3d+m7mpOzoQV5vGeN1XfHG3fHyo/P6RuBFlg35o7VxmO9x+ON1eP1J8rAexfp2BVtm4z1jiPamGxG2q/H6mtZy5Yt89HRuIAUbLYa7HM+G+ueUN+NZ1Ydq6DRPGu8e8ZTTaHuG6txyDNYwzg8gs3coylHNFi4jj9W2THhBRt8o31WNP2Jl4U0FslGg/tYbTLegD5eOaKpV7T9KRPbZKyxZrzZJfgGe7ei7bvj9ZmxZmHRPiuasnv9nkRb9vFM3eNhOFYbR0vaqdwm0bT/eO01nkCMpk2yXn/9dd+WW24ZdOZoHxoChoAhYAgYAoZAZiKQ9cYbb/i23377zKy91doQMAQMAUPAEDAEgiJgAsE6hiFgCBgChoAhYAhsgIAuMcyfP9+gMQQMAUPAEDAEDAFDYBQBEwjWGQwBQ8AQMAQMAUPALAjWBwwBQ8AQMAQMAUMgNALmgxAaI7vCEDAEDAFDwBDIOARMIGRck1uFDQFDwBAwBAyB0AiYQAiNkV1hCBgChoAhYAhkHAImEDKuya3ChoAhYAgYAoZAaARsF0NojOwKQ8AQMAQMAUMg4xAwgZBxTW4VNgQMAUPAEDAEQiNgSwyhMbIrDAFDwBAwBAyBjEMgIoFQV1cnK1etyjiQrMKGQCYiQITEzefODRreGDxsPMjEXmF1TmUEiNi73bbbhl2FiATCihUrpLOvR4pKSsJ+gF1oCBgCqYlAa1OzbDpnIykvLw9agU8//VTau7ukuKw0NStopTYEMgyBuk9XyW677hp2rSMWCF39fVJiA0LYANuFhkCqItDc0CibzJ4zrkDo6O2R0vKyVK2ildsQyCgEVn+ywgRCRrW4VdYQiBMCJhDiBKxlawgkCIGIBcKSJUt8O+ywQ1jFZYnBLAhhQWUXGQIpj4AJhJRvQquAIbAeAhELhEjCPZtAsN5mCGQOAiYQMqetraaZgUDEAuGNN97wbb/99mGhYwIhLJjsIkMgLRAwgZAWzWiVMARGETCBYJ3BEDAEPEHABIInMFomhkDSIGACIWmawgpiCKQ2AiYQUrv9rPSGQCACJhCsTxgChoAnCJhA8ARGy8QQSBoETCAkTVNYQQyB1EbABEJqt5+V3hCI2YJguxisExkChkAwBEwgWL8wBNILAbMgpFd7Wm0MgYQhYAIhYdDbgw2BuCCQNAJhcGAgLhW0TA0BQ8B7BHw+kezsLMnJzR3NPFKBMDQ0JL7hYe8LZzkaAoZARAjwPufl521wT9IIhPpVq6WirFyICGfJEDAEkhuBvr4+Gc7OkorqqqgFQltTi+RmZQkR4ywZAoZA4hBoam6WaXNmJa9AaFxTJ/PnzTOBkLg+Yk82BMJGoLm5WdbU10tZVUVMAmH2jBlSUfFZHmEXwC40BAwBzxD417/+JVNNIHiGp2VkCGQ0AiYQMrr5rfJphoAJhDRrUKuOIZBIBEwgJBJ9e7Yh4C0CngmEeG1ztCUGbxvccjME4omACYR4omt5GwITi4BnAiFewZpMIExsh7CnGQKxIGACIRb07F5DILkQMIGQXO1hpTEEUhoBEwgp3XxWeENgPQRMIFiHMAQMAc8QmCiBwHbKDz74QKZOnSq1tbVa/qeeekr6+/tlwYIFkrvuHIbe3l7JycmR7OxsvZ6fm2++uXR0dEhZWZkMDAzIqlWrpLS0VDh/YdmyZfqZf9p6661l8uTJtpPKs15iGaUKAiYQUqWlrJyGQAogMFECYfHixfLII4/IdtttJ/vtt5+899578tZbb0lVVZUKhiOPPFKFwcMPPyyzZ8+WLbbYQhYuXKif8d1vfvMbOffccxXR1157Td555x0VDwiKjTfeWD788EP9fdttt9VnIETsLJYU6IBWRE8RSDuBwCyB/dMoftLatWulrq5OttxySykoKBgFb3h4WAeVTTfdVAoLCzcAtaurSz9n0GBWwvX+ic/98/O0VSwzQyBFEZgogfDoo4/KvffeK4cffrh89NFHKg622WYbfV//+9//yv777y/HHHOM3HTTTfK5z31Odt999/UEwhlnnCF//OMf9TCm7u5uzeOFF15QMfHQQw+NWhEQCCeccIJMnz49RVvEim0IRI+AZwIhGXYx+Hw++elPfyqnnnqqzJkzR1paWuTvf/+7vPLKK/LVr35VDj744FGkuPaWW26RNWvWyIUXXrgBgs8995z89a9/lfPOO09++9vf6oCBaKivr1cT5VZbbSXf/e53o0fe7jQE0hCBiRIIb775pvzlL3+RPfbYQ+bOnatWg56eHrUQDA4OKrKbbbaZ/OlPf9KlhO23316ef/55FRBYHC699FK59dZbpb29Xe68807Zaaed5OOPP5bKykoVDldccYV+98Ybb8iBBx6oEwlLhkCmIZBWAuGee+6R3/3ud2oinDlzploRWFvca6+95Nprr1WBcMQRR+ggQUIkfPvb39YZwp577rle2yMGMDOyromlAAsEpkjuQRzMnz9fZxuWDAFD4DMEJkogXH311Trrx9cA8n777bfl3XfflR/+8If6OVbE4447TkXBSy+9pKKB99n5IPA3735JSYlev2TJEvn0009lxx13VPFw/PHHq2WBZQYmHCYQrJdnIgKeCYRk2ObIAPD444+rs9Ehhxwit912mw4ILBVA6i+++KL8+Mc/Xm9J4fLLL9eZw1VXXbXe55gbGURYe3zsscekra1NB6MpU6bo0sShhx6qzlCWDAFDYOIFAs6ETz75pJI71kLeTd5ZiJ33eaONNpKjjjpK7rvvPjnppJMEp0Z/HwTEwL///W/1R8A6uGLFCrUocP+NN96o4p+lSayFhx12mI4DlgyBTEMgrQTC3XffLe+//746L11wwQW6xNDZ2akWBf7jsPSDH/xgtI0bGhrkV7/6lZI+JsgDDjhg9DuWHh588EHBg/mf//ynDiLMSliLxOyIadMEQqa9LlbfUAhMlAVh0aJFah1obGyUTTbZRH2NeC+/8Y1vjAoEiJ1x4LrrrttAILz++usqHn7yk5+ozwJ5MYHAAoHVkAkFk42DDjpIf2fpwZIhkGkIpJVAWL58uar+iy66SC655BLBkYkBhFkAnsjMIDBNusRMgaUIHJGwIFx88cVSXl4++v0nn3yiywrkO2PGDOFvLAnV1dU6cLDMYMkQMAQm3oIAwfMfQeJ2GCAazjnnHLUq4IuAQPj6178u3/zmN1XgI/SxKCLucWbG4ohFEUHA37zbiAHGDHwSnnnmGR0PdtllFx0/LBkCmYZAWgkExAEWBGYNOBbhg8CAwA4Et83JCQQGi6effloHELZG4b+A38Hpp58+up3pmmuu0TVKBo4ddthBf7KeiVc0vgwIBUuGgCEw8QKBd/rVV19VksfPqLW1VZcU//CHP+jOBXYx7LvvvvLlL39ZlxHwHWKZga2K+BSxpIBoYKzAssh306ZNk/z8fP158803y6677qrvOk6Os2bNsm2O1tEzDoG0EggsCaxevVruuOMO+fOf/yy///3vdZcCDojz5s2Tu+66Sy0IzBYYAI499lidKZAQF1gU2A7F4IJzEuuR559/vjowsUSB4MAUycDBc0477bSM6zBWYUNgPAQmaomBMrD9GH8jSJ//bFkkQfyIAEQBQgJrQmDic77nO366RD58h4MiwsOSIZDJCHgmEJJhm6NrSGYNv/jFL+SBBx7QgQM/AiwJzmKAEIDk2e7kP3hgfUBE4P2MiGCbE4NNTU2NziJwWsQ5ij3UbJE888wzR3dEZHInsrobAg6BiRQIhrohYAjEFwHPBEIy7GJwULGmyDoj254QAMz8OUgFXwN+55hVSD9YwrGRXQ94OWNq5G/Mi4gFwGKpwrY3xrdTWu6pi4AJhNRtOyu5IRCIQFoKBGtmQ8AQSAwCJhASg7s91RCIBwIpJRBYF2RrYqonlj3YPYHTI5aJVE9FRUXqsMkSDL4cqZ5YjqI+OKhaigyBiRAI6TIOcHYD/Yz3xyV8nxjjAo92j6wV7GqHgBubXPAuQyYyBFJKIECm/B9reSCyqifu6pUrV+rJbESRw7chlWM64KPBWRP+AiHVz61HuCESXDyPxPWU1HvyRAiEpqYmHQdS/fAi+hnLmf5nLFAvdmRMmjQp9Ro/yUrMzhR2pnEMdyqPsYmENaUEAi8U562n+sDA1ix2RSAQ6LzFxcWJ7AMxPRtPckiBQQ4LAnvIOcUulRMERF04QMtSZAhMhECgjzEO4BuUqomdE9SDmS3brF1CIOAjxbkrlmJDgD6CDxmTl2AB+WLLPTPu9kwgTMQuBhMIydcpTSAkX5skskQmEMJD3wRCeDjFcpUJhFjQG7nXBELsGEacg1kQIoZsQm8wC0L0cJtACA87Ewjh4RTLVSYQYkEvzQQCJmHWjd3JiYHQuMNUuA4nJ45Q5SXloBWXuCbwUBVmyKxjEYfBRYGMFfZwBII7ACZUfTBHckAMJjQcm/ydmxwe/uXlpQEDfB+8SOFaEMCa51JWfvc/nIZy+LcPPg0sWbiDbty1rn0CP/evB9dQb36CIW2NsyG48Jl/CnaADt+bQIi+Z6SKQKAvYs4P9zRUrseCGej/5Pqi/xjixglCw+NLENjvuNYEQvR9LNw7TSCEi9TY13lmQZiIcxDGW2LA8Y/viQ3/yiuvKElA7BASLzeHJbGux+DPKYiciYDHPQci4QMA0UGyBG1i4OAaSMV5FTMwOF8BnNfwHYg2hRIIEJs7CpZ1cM5woBzUBadAykF8CQYfjowm7j3lI18GJeoBMeIsyJkNBLJhLY6EAxR5OT8OiJjrxiLLUHUMVyBA+pxLQTsQHMeRMPmzDkt5ONaWstIunHxJWZcuXaplY5AlD47P5ScRNamjf7nBDa9ldzwuGNIHEIMOT36n/vzfZ599goo+EwihWn3s7xMtEOiP9A12Avj3Dd5l3hHebxLC2gVdI9YK44dLvNv0U94Z4q/Qr3B4o28SOZKEsMAHgs+JCkniGbyj22yzjZ7C+MQTT+iR78HerUQJBN4Z2og6RrIuz5jIuMO76oQ3jn8cTZ2syQRC7C2TNgIB4oSAIE3iJTD48zeDAsKBbYV0ZgKw8HLygnMtLwskDJEgJCAgiBaBAHEyAPBy8EK5mQB5+jsWRdoMoQQC+VEewtYy4ECUDD6UmfIyI+b5DFicR8+BTpTJWQ8gfRygqB9CiPvJj0S9IFgEBomXnryitY6EKxAYVBiEKQfPd+fn0xZYZ/ieOhBRj3rwGfXgJecn5UPMnXjiiTpwIzKot78lhEGf+rFDBKwI1rXbbrspWfA51zJA0t4IhoMPPjho05lAiLRHf3Z9ogUCwu8///mP9n3/2T7vMP2H95t+QkAnxgeOYUecMn64BKFDnrz7XEsf5X6EwN57762X8b3bBsszSfRV8kWw807de++98vnPf15JNTBNtEAg3gQxKXj3GBuY5ETiHE1obeLR8F5RRw6S492KRGRE36uiu9MEQnS4+d+VNgLBmdd5uXkZeGl5GVC5EP9ee+2l3vXEjGdWzQsMKfnvOeaFRxTwAtC5ICXEBS8UpOOSO7o5WvjDEQhu6YMBavHixUryCBw+ZxZMDAnqwPHRRKBjZkM5uc6Z5HmZGQiIR4EVAnKGIF3oarDhyOlYtlSFKxBc+4Dpyy+/rARNG9Fe1At8qROnYCJeqBuCDGuCG7y5jrajXbES8dMNvm7ZgsEe6wN/09YM1uBCOzPj4+9bb71VY25wXbBkAiHani0qYNfU10tZVcVoJs0NjbLJ7DnrRUr1fwJk09HbI6XlI8tebU0tMnvGDBWJwdJ4uxjoU0R5pO/430+/h+QJ6c47jYjAOkD/d8tZ9Bm31AXxvf3220qEiHT6Gv3PbZejTyIW6G/0WbeERv8m+mM8BALvNu8b5SfENWXg/eAd4B2mfC7yLJ/RFnzGfXfffbfGnkE0kQcCnXv5m91UjCluWy84MWbwHfVBWGMNoV7UkwkYOIIvIopruQ7BTt58xne821g0GVcTcaaICYTo32N3Z1oIBDolpMusEssBLzemaTouSw6QqjMNPvLII2pNwBTNi8AgwYySgYXruJ+ZOS8f1zDLgJTo7LxU/Iw1slsogcALxiAHqWIu52XnpeSl4yVmkKLMxIXgJWAQ4+Vl0ONvXmjqTjkZAMmPupEfxIzowLJAcgNpvC0IlBULAss8CDVmcwgxysGg45ZsCK9NOakfP7mP+tAetNfhhx+u1zMQMqhxDRYFftIPaGfai/YHZwZ2BBSDJTjSzsyc+MkA7wL8+L9KJhCiH1iSQSCwdAAx+p8vQD+gXSE2R3L0QcK2O8sW37ulREQqxMq7xk9IlL7KZAPy553jXWSsIcw0cV1I9DE+433y2oKAtZB+T/+mLMzqmQTQl3kXWD4hoiVB5hirWH7ke95xAtkRgZbPqS/1e+yxx3QspI4IaJZGGN8gBbZhQ+6MG4hpxh/eWwLX8Q4iSBBdWPx4NrhQDreEyDvH50TJJey2Vz5PkfRMEwiRoBX8Ws8EQqK3OdKRmZlCqLwAkIZTrfyOBYEXhQpDkHRYyAoS4YWjs0MwxHBgtg2JMMhAWLws5IF1gU4f60FAoQQCTcVsHwLl5XWHpzBbYfZAPXbccUcdtHixIcOdd95ZyRAiZWDkGfPnz9cBAhFEHogDRIY7ZAZSZTDDdBjtWmK4FgTaB+FF21AmfjJYIcL4ncGN3yk3Sytcw+DFLIe2QuTQRkTaZOBiycD5JXAP7c6gRZtzLwM0ROGWk6izi+yHKCAvMAzmQGYCIfqBJRkEwptvvqn92n8ZkHeDfkP/oYzvvPOO9i0EJe8zZIJlgneH+5xApc8ivOkn9E+39EVf492kHxLkjTHCJfLj+V4LBMYuygCR8y7ja3HooYeOWtSwwN1///0bCAQmSYTBPvfcc7WOTKScQIDseb+YCPGu0PcRAtSH3xEE5ItAYGzhHeK94RrGJ949d+4JgouxhPeXdxexxDuIMElEMoEQO+ppIxCAAoFAx4cMIB86PZ0UAYAYoHMzODAr5XcIl5fbWRAgDgQCypvZN/dCwJAJAgETGgLBWSOihT8cgYAa50WmTAxGvKzMWhggeHkpMy8AAx8zGMQAdUNYUHeuxXrAYEUdyIsBACHB4MJnXEc9Y/GnCFcggBWDLWKF5QTKwsDLQAqhM4jxGfVhpuSOSOUexAvPYZBmgGdQdh7iiD2sLdQTrPhPH2BGg+mXmYxrR+dExrX0AQZXW2KIthcHvy8ZBAL9gTb3X2LgvUBc0394//ie8cEJbd5ryJN3nFk6lkTeQX5HSPCuucBv9D1M/IwDjA3ueHEIFMvddtttpxYxrwUCkxXe2S233FLfZ8qGRYSyMZOnLg899JAcc8wxeh3LcIwdvFu///3v5bzzzttAIJxwwglaL8QG5af9eD+pG7+DJaSPQECEI4qYQDGOYFlBJCAGyANRzrvFO8t7zBhDWRN1oJUJhNjfbc8EQqJ3MUAIrNVDDhAJHZefdHbIlAHBqWd3XLNzuKGD89I7SwOqmU5NRycxCNDhIVIICLHBWna0KRyBQBl5EXkWHR1SxKpBNElnNsRyQNkQOZg4uQaSZRbN4Mdgx0DGi0rdeXm5382gyA9TZbTWA+ofrkBwywU8G8GGUGDQhsARauBKObGK8B34M8i69VEGIwZfnMy4j7oiIsCGwdI5hlEm8mMggxDAh8RgihUDPBhoGfQYOE0gRNuLk1cg0Pd5b/yPyubdRpBC/PQZyB8ChVSZ+UJ+iEbeh4ULF+p6PX2WfoaFi3eHiQP9FSKFQAOde8mXZzOjZqkingKBd4AlAsQIIpl+zkwfJ2ysIC6CLd/zblx11VVy9NFHj/opOAtCoEBAVOF7wT2Mf+TLpAmBwISDeiEmEEXkAaa8RwgE3lXKAG7PPfecvn9f+MIXot4hFWvPNIEQK4IeHpSUSIEAKdJpIVU6JWKBFwSihPwcabpZNwSE2mVWzovGi841/I7jGnlh8nbbk7iOF4KZO6TkZqrRwh9KIFB+TKCQIoMRJMyAB+nxbIjO3wsZByIUPV7WlJmX3Hnzu90KiA3n8AdJQtJcT34MktGKhHAFAuQPMVM2xAptwSzHOX2Bq3OK4jrqR/25z80EERcM8Ig/xAOzIzcY0YbcT70RfAxsYIhYoG7giEh0Ozq4Hh+EYPW2JYZoe3ZyOClCZvR1//P3eacgzgULFmjlGCeYdUN6ECzvFH2H98gtGWCFg/QQ1fQTZlPsfEGYu7HCnadCn+aZjEGQMn3ba4FAeaiTEz48D2sg/ZqxifeEfs97zXVY53jPeFcQ0YgkrmOyQx6Mc4x3jIXkBQZMKnjn+M/9iHKWNPjJmEG9nGXFOSIynoIvkzF37gOTNbBBiCcqmUCIHfm0sCA4RzU6NLNiOjMvKp3WefRDHswC3M4FXiB/0zovPC8JM1deIP+DkRhAyM95CscKezgCgQGHF5vyUi7KRD1dfSinc8KCCJkB+Tsasg7o1lMpLwMdCQzcurvzC2CwCOasF049wxUIDE48l0EDAobsIW1XH/CmbAx2gWWnHNSfdkXcOB8SJ+D4G0ydEHROpU4Y8Dzy5/kMfAgIfyezwHqaQAin5ZPTgkCfYuZL3/d3jIMsXP+h5PwNsfHe8O5DtIwHvAvucDKuYZyAEPFroO85/yO3q8HtLEJUMN5AwPRxEvcgFoI5AE/0NsdwWxRMEOCIAt4Rxj38t8IdHxijwJ/lXpbwErF7wdXVBEK4rT72dWkhEGKHYWJzCCUQJrY0sT0tXIEQ21Mm9m4TCNHjnWgfhOhLPrF3JqtAgOCxNiCmENUsNURC8ogk5yuF9SKYE/BEIW0CIXakTSDEjmHEOZhAiBiyCb3BBEL0cJtACA+7ZBUI4ZU+Na4ygRB7O3kmECZqmyPmQH/no9ghmPgcMKFjrsTsn+qhSDHpsq6PeZbZA86emPhTOUFyDOAW7jnyVpwogYCJn6WiVE30L5bdMN0HhnvGPwJfAEuxIYBAcA7pyXziY2y1jO/dKSUQGBRYjw93PSy+0EWfO3v6cehhPdyd2Bh9bom9k4HObcVEIODx7e8cltjSRfd0zKysYfsftBNdTpl310QIBAb9QCfEVEWaCQKOfy45X6hgxzOnah0TVW7eY3xE8B1Ldc5IFIaeCYSJ2MUAGflHX0wUaF48lwHAHT/sRX6JzMM/ymI6tI9/RMhE4pqKz54IgZAu40CwfpYudUuWvhssQm+ylC0VypFSAgHywSnOkiEQbwSYcdgsLnKUJ0IgRF4qu8MQMASiQSClBII7TTASr9poQLF7MhsB/CrYFms+CJH3AxMIkWNmdxgCyYpASgkEnHpYo0tl56Rk7QhWrhEEnHe5CxhluESGgAmEyPCyqw2BZEbABEIyt46VbcIRMIEQG+QmEGLDz+42BJIJAc8EwkRsczQLQjJ1nfQsiwmE2NrVBEJs+NndhkAyIWACIZlaw8qScARMIMTWBCYQYsPP7jYEkgkBzwTCRGxzjNWC4E4wZB81+2PHcnZ0x4wS1yGeCWc4258bT4RFt5LS3pyH787IH++JJhBiaw8TCLHhZ3cbAsmEQEYJBGKTE7L1jjvu0IOKDjzwwKBtcf3112vYV8KcxjNRDsKh2na6+KHMQVR33323isHjjjsu5INMIISEaNwLTCDEhp/dbQgkEwJpLRA4sZDQrBxtTNARyBiB8I9//ENJmVDARHwjWpl/xDVinLPFjeM5+Z2ZPqc4zp8/X+9xAQyT1J8AACAASURBVEiIuMjRwvzneNStt95an8NZDYRSJTIaJ6XtvvvuGoaVcmAF4TOuP//88+VnP/uZhpx1IY25BpLiKGZOi+M+dm0Qsx4LCOUlFDXHsxK/nihyLqwqdeKZnNBImSkv9ScP/kbw8ByCqbzxxhtqvSAcK0dXP/XUU1pnotohnhjoqRd5EN+e8hInnp9EwKN8LoENz+WnCzNNNDieSUQ7jpQmMuVuu+2mdSP6JCcuspWQMrkQteAJfhzVDH677LKLRpbDCkCUPOqPVYf6EtIWywDhrPnPFliwQBBstdVWeqAWdaRdqRPtZgIh/kOPCYT4Y2xPMAQmCoG0FQgQ0euvvy6PPvqoEhwhgX/zm9/IkiVL5Nprr1UC3GmnnZRo9txzTzniiCNGMf/1r3+tn0Hk3/ve9+SYY45R8oN8zj777NGliVdeeUXuvPNOFQaICcDkesjyhRde0NDRREbDckHc9RtuuEHmzJmjgoT8EAiXX365EqEzf996661KiKeeeqo8++yzSqR77723/PSnP5XDDjtMiRBCnDFjhgodyBpihewPOOAAueqqq/QZPJNZ80033SQLFizQeiIGIMnbb79dQ9giVhAHJ5xwghx55JHyla98RcXF8uXLVRhAwO+++6789re/lSeeeEI/53rqeemll44eRUx9r7zySr0HAQOpu1Cvzz33nIoZRAH15ntEGmFzET1f/OIXVUA8//zzKkz4/fTTT1dsrrnmGvnrX/+qogTcwerYY4/VaxBSYEAbX3DBBYr51Vdfre1IiF1wBCfE3EsvvSSHHHKICYQJGFVMIEwAyPYIQ2CCEEhbgcAs/t5771Uihmwh2oMOOkhntDfeeKPOKCFGZsVXXHGFmqFd+r//+z/Zf//9ddZ7ySWXyF/+8hed+Z533nlKUi4mPKTGzBtCg6wgSUiJGTHnqzsyO+ecc+RXv/qVLm2cdNJJssUWW+jMFtK6//77paioaPTZlA2B8PWvf12efPJJJWXIlrwgQpY+KPsjjzyipMsyCYSJ8DnttNP0GWeeeaY+g/I9+OCDKi4QLJD1ZZddpjNx/Czeeustzf/73/++ioj77rtPyfiuu+6SE088UYUGQumxxx6TP/7xjyoOIHFExze/+U0VJCREEJaQH/7wh4rDQw89pPmeccYZ+izy5NmIGKwllIm2ACuC0kDg4H/KKacotnPnzlWsTz75ZG0f8vjWt76l+dEW/D/66KPVUoDow5rBc8mD9gEL8PnRj36kwvBPf/qTCiazIMR/VDGBEH+M7QmGwEQh4JlASLZtjsz2md1jkkYIsNwAoTDjvOWWW5RUmJEzY4Y4INNAgUCQj1/+8pdKiCQIipkzFgkS95Dfl770JQ0IArnzXBwguQYBgKkbCwDfYc2A9NxBT2MJBO4566yz5PHHH1eiRVQw8EJ6L7/8sgoGrAZYE6gT4oWlA0zzkPzXvvY1JdoXX3xRnnnmGRU5r776qn6HQEBIYPVAmCAuLr74Ys0TEufvhx9+WI466igVAyxnIGKwTFBuliEQXxA91gsnEPievLGEkA/WD0j56aeflp133lnLi9WCZyFMEFbgwX0IAsrH34gBrAaIDJZQWFpgqQMxgWDifu7BooCF5uabb1ZLB8/AyoEoIB+WKBBUCMTbbrtNxZ4JhPgPKyYQ4o+xPcEQmCgEPBMIybaLgVk4hAoZMcOnohAG69K/+93vdEkAooQMMVczAw4UCKyRQ9TXXXedhjJmFs11fO4EArNZZvsIDvL/3//9XzWxQ4j4PEDoECb5UB5/gQAJuxlwTk6O5gnJLVy4UJcqmMlzciTX4QvBrBvSxzQPqTJT5nksFbD+jtUAMhxPIFx00UVq1v/zn/+sVgVEDqJnPIGwaNEiNdlDyIgdyof1wIWkxYJw7rnnqiUCHBBmCAlwpUz77ruviizEE5YQ6sTnLLmQB0sCiA5nOcASw7Xf+c531KoA3lxLe2HRQGwhXvDtQPyALe2DoEIgIDIQK7/4xS80FDVLJNTPBEL8hxUTCPHH2J5gCEwUAmkrEAAQksbkDnky02YdHv8CZq+Y5xnMMPVDMv5b4LAw4DOASRySYm0dooFgIEi36wByRWAw42emCmF9+ctf1udCkhA51gRIme9Ze3dLF5QPomPG7gidzyBGTPUsUzDr3XHHHXXtnvV1vsOvAMGAEyAzbepBHT7/+c8r6UKShx9+uJIq37GkAsnirIggwM+AtX1m51gZsDz8z//8j5I7RIpFhXLiUMj3kC/CCAwRLGDG0gNLAM6xE4Hwhz/8QUUXVgJEAtYWPkdYYOHA+RCLBXUBG2b9iCJ8DXBsxJ8CkQDxf/WrX9XvWRqgXlhnWPb5yU9+ou1EXRBCtAn4gDnle+2113Q5ifTAAw+oJQE/EiwrLM3w7FDJdjGEQmj8700gxIaf3W0IJBMCaS0QAJoBn9klpO52H7gG4HNIKvBz9z1EhPUAUUFys3z3PYSLEx/CAaINPNPAPXe8BsfSwfP9y+DKHJgfBEo9/HdcsFOAcvl/FqqDuZCy49U9WB6UlXsDccBigiXlu9/9rooERJFLiCfu8d/KGax+wa4LhRvfj1dv8I803KsJhFC9xwRCbAjZ3YZA6iCQ9gIhlqbAuY6ZKevtwRLbEJnF4m9QUFAQy6NS+l4cAbGWMEtP9YOfTCDE1hXNghAbfna3IZBMCJhASKbWsLIkHAETCLE1gQmE2PCzuw2BZELAM4GQbLsYkglkK0vqIGACIba2MoEQG352tyGQTAh4JhCWLFni4yCecBIn23X190lJWWnIyxvX1Mn8efN0LZltfax3Z7I5PyRgdkHMCCASOGuCnRiBCT8M5y/Bd/hAROrLEXMBkzgDEwhJ3DhWNEMgQgQ8EwgTsc2RwYdjgnGEs2QIxAsBnBvZOcHBUC4hGjhLg90V7EjhGj7D54LTIdldgXPmWA6v8SprsuVrAiHZWsTKYwhEj0BKCYRYozlGD5PdmSkIjLXEwLZTtoAiAjg62olUPsdRld0kiIp4RwBN9nYwgZDsLWTlMwTCR8AEQvhY2ZUZgEAwgYC1gBMtEQaVlZUbbK1k2QFiZDcHZy4EbgPNANhGq2gCIZNa2+qa7giYQEj3Frb6RYRAMIFAHA+WDjg4aqwlBEQC1+EfE8x3IaJCpPDFJhBSuPGs6IZAAAImEKxLGAJ+CAQKBBwSOYGTmBShDqPC0kBwKU7ezNRkAiFTW97qnY4IeCYQUmGbI/EMCDDEIMZMz/94Zf/GZZcF5mScz+KZcHqzHRnxRFg0Mia+K5A7bRoqBQoEAkVxfDRLB+Ek4kBwRDZLEZmYTCBkYqtbndMVgYwSCEQXJM4A8Rk4859QycESgYyIdjjWCYpedQZiPhCpMdVPH/QKj3jkQ/wKwkATwyKaYE2cpIk4CNf5EDHCf+JRZGIygZCJrW51TlcEPBMIE7HNMdJdDMzQsRowq0McQMYIBAIDsZbMTI8YCvvtt996jmUEOGK9GU91oj/ioY4DGiGFZ8yYMboOzexy7dq1+p+yEeCJ57jnEqyIoElEMySCIeXgLAeey/VEbPzxj3+sQYTcjJNrmMUS2XDNmjV6H8GRCF9MbAisHjvttJPmy2fUjzrssssuKjR4JkdAU2bKS6wIty1vn3320Vn0J598ouGVuR4RxJ5/Ik1SZyIwElqZcvJ88kVM4akPFpSbI5Upn0tgw3PZAkjwKb7DzE4ZeA4WGbYMEuiKumGyx+mPz8CG8hE2GzwJOEWIZ0z1RG4kqBRWAPKErEtLS7W+BGbiKGyCcGEVIkAW9yAIiA7J0gBtTQwI6kHUyGgEAmUlv0DfA46WxvoTaFmgzpQTjDIxmUDIxFa3OqcrAmkrECAiSOSxxx5T0oFAiFZIiGSiGUJ4RF/kGoj0mGOOGW3jX/3qV0raRAIkANGJJ56oRM3g961vfUtJikQoZ6wRrE8zQ128eLFcfPHFepgT30GskAWzSaIOXn/99RrVEKJkexyhmglJzAFTbjkDqwKESIRC8sPxjbIQyZDw0ZAoBAqZI3S4F4HCPQsWLNBQ1pApFhDIkYiRRH+E3IkAecIJJ2iERRKYIEwQTkcccYSceeaZWkdIGeEAcYPPVVddpSGeibrIcykXwsaZ7BEchMFGTIAZooSygNNLL72kTnsIAPJ05E78CqJNgi2igusgeoQGESf/3//7f3LttdfKzTffrG0F7mBA+REX3AM5E/6aiJuIEMpJOGlEA8GjnC/AM888I4cddlhUAgGxSPsGJvJnW+ORRx653lf0O+7JVD8EEwjpShVWr0xEIG0FApEP77nnHiViyBZCIdQyg/dNN92kM8rjjz9eSeqyyy6T++67b7T9CS3swjITehkyYOCH0C+//HIlSRLhnhctWiSnn366fgbZQ97MYiFCRAfkTTjn3/zmNxouGTJmhs6M9JBDDpH7779fwyC7BKFD9l//+tflySefVDKE3I4++mglTQQBz+I+xAczcIgbAXDaaadpKGWeh0hw4aghVogUoqRuEDqEyuyYn4gaCJ0QyZAxuIENJI6IImwyIZ+Z8VM/SPsb3/iGHHTQQVpsSB1cEA1YI7iez6gDFhGECJEvsViQH1izvMMsG/FA2RA7hJ3mmTzj29/+tpYBscFsHYFAGGhCXLMEhDUAaw2CaObMmSoW7r33XhUqWC0QNLQdIoew0WAejQUhUCBQL8QOdcSag9hDGPlbEmgLEwgVo326uaFRNpk9Z0yfHw4/6+jtkdLyEZ+ftqYWmT1jhr5DlgwBQyBxCKStQICkIUvWjpl1YvZnZsngziydWT3Ey+E3EAdk6pITCMwQsSZA2qQzzjhDLr30UiUxJxDI70tf+pLOJrkOQYLpmWsQAJi6sQAgSiCVk08+WQmNNJZA4J6zzjpLHn/8cRUI3IMFAwJ89tlntdwQOcsA1Anxwsyd5Q/IF4GAiHCi4JJLLlHS5DvE0Be/+EU1m2O1wEKBQDj00EPlueeeUyH18MMPq9UBCwizZ8TIH/7wB5k1a5YSOgIGqwuWGScQrr76ahUIkCZYYmVApDz11FMqChAJOPuBH8siYEF5sKpgOcCy40TPbbfdpt8jDigDbYTlBTF20UUXqaXg7LPP1vIgVlhqwDoBXj/60Y90uQTxdMEFFyhu5MeSjBcCAesQAoBnUFeWbcCCspDYyUC5wTcTk1kQMrHVrc7pioBnAiHZdjFAYiwvMAOEYBnUWfOH0H//+9/rbBZi5xpm+ZBboECAVCBqrmdtmdnrT3/6UyVjJxCwLmBBYNb7gx/8QM4991xdYiDPz3/+87oOjpme2S+k4i8QsAow82Z26xwVn376aXnooYd0Bg1hQqrkQ/mxarzyyisqGiBn8kYMIBbwHeAzyHA8gfD9739fBQLLLOTFUgikPZ5AgJhvv/12FQeQPWXE4oC1wAkErBvnn3++CiOIHxEEDvzNLPvvf/+71oUlAAgdwgc7Zt4sh0DkiAHa6Morr1QrDEsHWBVoh+uuu04x5PlYECBkZu60B2IBAegEArN8RB5til8ESxWIsWgEAn4e1MHfykOdsUogCv2XpvjcCTfqkonJBEImtrrVOV0RSFuBQIMxw2bWzZo65mic2DBBMwtnlue2v1144YXrbWnEr4D1ek7E4zuICFJjVo3jnDspj5kyM12WC7AccB3ky3MhSYiKo3khewiQWTwzTgiP9Le//U2XB1gaYMmDBDFSRvLDmZEZPKR4ww036HdYRLAgYDlADEBgbOE7/PDDdcbuyBsRw3fUmXV+zPQIglNOOUXJjb+xMmBFQLRApldccYWWnXIyK6ZM5513nprxwRDBAgFA6pCyOxeAemJhYEYNUSOWWNZBtIAlFg4sNpDsbrvtptjg2AiOLB3gRMiyBstCXHfqqacqsSPIqCs4/PznPxcsIZSXsmMdok0w5YM55UNEURcSYuyJJ55QPwnEBHiBY6gUuM0Rh0/K5SwE7n6WZ2gLf2dNJ5bAPpwtlaHKkorfm0BIxVazMhsCwRFIa4FAlRnwMdkHi7iHOXi8SHyQDjNXlhlIgUfoYsJHaDAzhRwDtyuSP46C4yUsHQgMfy95ysy9gflhxSA//2v5jHKFOsTHvwzjYRKqrNwbiAOWAqwBOHSy8wNR5JKLfOiPQ7D6BbsuVFn4frx6gyFYRXL0caBAAF+EFgIjVFsiJOgzXBtJe6TT4GQCIZ1a0+qS6Qh4JhCScZtjrI3LLBcnu7EczlhXZxbL7NKfFGN9bqrdjyMg1gKsNKl+pkOwo5bxy+Bz5zsSrH34HodPrCT+USBTrS1jLa8JhFgRtPsNgeRBwARC8rSFlSQJEAgmELAiuNM1nf9JYFFxpEQoIRZDWRqSoJpxK4IJhLhBaxkbAhOOgAmECYfcHpjMCIwV7hn/D7bjcW4EPhFuCYElIvwU8JngQCsXBjqZ6xjPsplAiCe6lrchMLEIpJxAwKHNHVQ0sVDZ0zIFARwtEQLsUvBPfI5TKbsxcFBETOBMyiFZOHRm8jKTw8kEQqa8JVbPTEDAM4EwEdscMfWyG8CSIRBPBHBsxJdgLMLHGRGRQOK6VPe78BJLEwheoml5GQKJRSClBEJiobKnGwKGQCgETCCEQsi+NwRSBwHPBMJE7GJIHVitpIZAZiJgAiEz291qnZ4ImEBIz3a1WhkCCUHABEJCYLeHGgJxQSBlBUJdW6sMDA3GBZR0zrRvcFAKQhzelM71T1TdygqLpKK4JFGPn7DnmkCYMKjtQYZA3BFIWYHw7Gv/kn+2NcYdoHR6QI0vW6qyc+VDX386VSvp61Lty5bd524pW88ZCfKVzskEQjq3rtUt0xBIWYHwzGv/kls66sSXaS0WQ303Gc6Rz2Xly2NZPTIcQz52a2QIbDycI8dutpVsYwIhKHAW7jmy/mRXGwIThYBnAmEitjn6g2ICIfIuYgIhcsy8uMMEQqNsMnuOxisJlkwgeNHLLA9DwHsETCB4j2nS5mgCITFNYwLBBEJiep491RCIDQHPBMJEb3NMewuCzyeSlUU4ypGfHqSUEwge1t0D+D7LIsJymUAwgeBp/7PMDIEJQiA9BYJPZPKKNVI/Z5rCmNs/IFM/WiVtk6qko6ZiFNqcgUEZzs3Rv2s/rZOWqbUylJsj2UNDMkRYZfFJRUOrtNVUSEl7lxR1dK/XLIN5udJZVSYDhZ+FN+aCrOFhyRkaWeXnGlJhV48UdvZI65Tq0Ty4rritS3IHBqW9tkJ82dn6XV5vn1Q0tknjzMn6zPyePmmfVCm+dYKBclc0tUl3eYn0FheGLSBCCYS83n4pae0YKSNhkgcGZfoHK6V1cqV01FaOljuvb0AGCvKEnyUtHdIFBnm5kjs4KIP5eYo39aV8pS0dUtDdtz5u+bnSXlMhQ+uwCdbXc/sHpWpNgzRPn7TBdTn9A1LU2aNl7aitkJyBIf0brDuqy7U9cgaHJMvnUx8V2pT61KxqUJwHCj5rr6yhYZm0sl5aplbLYF6e+LJHxFjV2ibpLS2SntJizYd6iPhkKCdHKFtHTfloe4V6V00gmEAI1Ufse0MgGRFIO4GQPTgkVXXNShjtNeVKGgzuEEdlQ4v+7C4vVSKo/bReWqbVKIE4gQBpl7Z2SNukShnOzpHi9i4p6O5Vwu8vzFdirFndIC1TajTv/qJ8/a60uV2vXT13lpQ3tSl55fUOyKotZklZU7sSVn5vv/SUFauo4N7alfWS39cvw1lZMpyTo+RFWSBeyoxAKGtqk+L2ThnKy5OB/Fwp7O6V3uIiKW3rFMitfqNp0ltSGFbfGk8gZA0NSc3qJi1PZ2WpkmhlXbO0Tq2R0pZ2JcruihIZzs6WmUuXy8ot5oyUs7VD6wMR16xqlLqNp0nWsE/rnz08LCVtndIypVrrX9raKV0VJdJfUDBC4kNDUtrUJnl9/dI4a6pU1reosFAhJD7JHhrWdvJlZato6ysplOapNVLe2Kr5tddUqiCZ+vFq6agu0/L0FRVIT3mJCkK+K+jpk6ZpNYp9aXOH9JQXa1nbJlcp0dNXyFuQg1lZ0jSjVgUBwrC3pEi6Kkv13ikfrVZMsnzD2q60O9f3FxVoHxopc/BkAsEEQlgvqF1kCCQZAmknECD4ySvqlMyxAuQMDEj2sE8G83PVXJ/bP6REx+wQUdA2uVpJuWZlvbROrZasIZ9aC5g1Q0wFXT1KDJA+hAdpYVngu8G8HGmdXK3EBqFBqB/Pm6uECuEw+2+eXivTP/xUZ8wjM2mfWjL6igt1RgsBQroQHrNcyCl7cFCYzTN7hmgRFSPk5FOS6y/O158Ik7baivWsIuP1r3EFwrBPqtc0KtENYh3o7dffmeWDKcKrq7JMSRqBsHqzWSMWhLZOFRQjs+5mFQhcm9c/oPjXrqqXzopSFQdDeTkqHnpKi6SzulyqVzcChxT09MqaTWcoKWN1yAULzPgkfmSJiqjizm4VG+WNbWp16StGaBRIzcoGWbvxNC0L7UPek1aslbWbzFAR1l9YoCKE8kL4FfXNsnrubLWQ0K5qYVArT6/Wj7bA2gP5N06vldpVDSo4O6rKVExwHW1Cu/WWFkpP2fjnG5hAMIGQZOO+FccQCAuBtBMIEMuMZSukq6pcCXUwN0fJBNMwZOfLEp1ZIiBqVjcqOUCEZc3tOrt16/2QONxU0diq1+b39EvewIAM5WRLf1GhmtEhI2aPzER5zkb/+a8KBPJiJpzf3SdrN52hM9ym6bUqGCiTEm1RgQoECBORwOfdZcVKPOTNEkPztFopaeuQkrYuJdmcwUHJHRhS4kKE+GRkxgtJhpPGFQg+n0xevlb6C/LUmuH8HygXBAtJD+Tn6cx/yserVWBBpFhXEDsQOMSO1QM8SlvbdQZe0dAiPaUlKgKwQrBcggDpqCqX/N4+FRGTV6yVNZtM1/tY8oHoAT93gKWKXukrLFDrCsKMMnwmEAq1PfP6BrXtmOkjArBo1K6sU0tRcVundFeWKr65fQPSXlupwrBu4+kqEGhfnf1nieT2DWp7Yt2h3LrEUFKkZaha26jCA/FT3N6tQgOBAB7Uf7xkAsEEQjjvp11jCCQbAp4JhCVLlvh22GGHsOq3YsUK6ervk5KykZnneKlxTZ3MnzdPiLDnn8Z0UvT5ZNKn9UoIwzms6ePoN6xWBIi4vyBfSRixwCyZryEjZv9q4s/LVeKDHHRmPzCoxFXU2a1CA/KGQLiGn00zJ2uxIPqN3v5wVCAwYy3o6lXfAcoDgfE8HseMG4sCSxxYNnw5PGdIhQhWCoSCvw8CQgLfieHsLCVBUlF7l5ITwmPQb019PCxDCQRm9CP1ypH8vgElR8gaAkQk9BcXyGBuruT39qqIAJfiji7pLivRelAHrAPUBzImYZXoLS1WQUP9sCxgJWB5gPYgDycQnA/GCJ7DuswCXl3lJaN+CHyOpQHBhpmfstF2tCllR0Dgl4CIaautVBz5LK+/X8tHu7rlGxUbTW0j1qUskYKuPl2qoK/QfqM+CMPDumQxrNaUEaExUJinwgLLzsjS0IivSbBkAsEEQqhxzr43BJIRAc8EQjKdg8Asj1m3zvIxjw/7Rszkw8NKepBJ3sCgftZVXqrk4HwQIAssC/gvMPjrOntzm5JBX0mRWhwgJBzzEBvOQdFfIPgvMeDLwMy/uKNblxjIt6+oUMVLZX2zOrrld/fqjL1pxqRRvwhHYixx1K5skLbJlVLS2qk+EJi0cQ7UpZKSolFHy1AdLJSTIgSrvgNDw7p2D/kWt3aohYLnIBBy+/oVx47qivV8ECBbTP0dteUqJph142yJab55arXkIbI6ulUkQLxYcUj+AgEyBydNvhGSxvIDMZP6CvOleVqNLq8gQmhL2qWisWVkKQSnxKxsJWwIfe3GI0sMCDK+YymI/NonVejzXX3JgyUQyo0FYQQDlqJK1epR2NmtdSXhowE+WIC4D5EDNq4+JhCaZU19vZRVfeYM3NxgAiHUu2nfGwLJiIBnAiFZtjlCYFM/WaukjIc/BIxQ0F0JWSI9xawZF+tAD6mPrJ/jsFg3Yl7Oz9MZPz4ICISi9k4pa+lUQoAYEQU4I6rI6BtQ73f1HfC3IDSNLDFAsqytQ3Y1axrVVI7VAXExMkv2qQm8pL1TPegxfw/ljpTXWRC4bsona6R+9lQpa2qVchztSgvXiYV8Naf778yI1oKApWTqR6vVSoIFg5+Y+ykLxOkEQl5PnxIklhEIvLSlc2QnR0GeTFq+Vp3/EAE4VyIKnE8D7cF6AMTL92DAd2NZEHhGWXObiikEhUssUbBkA3b4NOCT0FVRKrOWLld8segg4hAIOCuyS6R+9pQR4YEPR1un1M2aKsN5I34HiEkEH3VFwKmTJWKirnnUgoBTJOXRNu3uU4sD+LC7BUtKb1mx1mmsZBYEEwjJOPhbmQyBUAiknUBgcBeIt7NbvfyxHrCGgGkeMVDU0aOEVsDsVme0I+vrEDWzRQZ8iKlh9hQ1TWN2Z3bKjB+yhIyrVzfpjJ48lTgLRxwIp3/wqazafLaa5SEyfAXIg5mr29ZX1tiq4oLvML8jSCBB3T1QVab5sBTBkkbT9EnafpM/WaPCgtlqYXefOssx+8WiwedqIg8jjWtBwDlyaHhkKyfP6exREq9cQ12rRnZglBZpvXDiBCt2Ibh6MjMvb2pVIYMoK2ll58awkizWjpapNVLW0qGijWUGllx0Fj8wKNVrm9R3wX8ngD6ntVNJ3n+XBoTOsgD4qUMjWx47utXvA5GCfwfPZFmG78kTSxHEztZEfqdNm6dNUsFX1jLiK+F2uzTOmrzON6FNlzbIK7+nV0pau9TfYZilhHX+GDyTZyCo3HZZsyCYBSGMV9EuMQRSAoG0EwgOddb/2ZKWhZd8d686xkFimL4x+0PIOBE6x0X/1mKmqLP5nGwlI90LPzys13IP4gMHQj7DeuC84F0e+jmyJDtbKuqaSgvD9AAAIABJREFUlcjdLJhZN+SLGNCdCyJS3jSyPg9pVtS3Ss7wkK7rIyRImLwhsRFiLlJCZD2d9XnEAeIjnBRqiQFxAlY4P4IPpwiAH/WGiCFfxAvXBJ79wPMRNaz7cw+kSv1VPK1b00dkILDAB0LFxyNo8vmkqq6JjY5K6v7nJWgZu3pUyCEScCbEh4TrwHPEulOilhisRiPLTZ2Knysz4oN+4ASZa1OInjzLGtvUIZItsYgYHBmxTiBUsAphBcGvgnrQFliauM8sCCIWrCmcN9GuMQRSA4G0FQij2+RGWdub0whH8/XodMPAbgKZql9lHPIPJRBGVM3I9sJ1vpvrdjOsK2UsELpti+HWK9zr122D9PJ1050l1DVIWdVCBUzh1kNEbInBlhi87J+WlyEwUQikr0CYKART6DlhCYQUqk+qFNUEQuQCoaaqSkqKRyxolgwBQyAxCCxdulSmzpm1wcNXf7JCdtt117ALlZVMuxjCLnWGXWgCITENbgIhMoHQ290t/b3rH8+dmJazpxoChkB5dVXsAmGidzE8//prsrSt2VovAgRKfdlSlJ0tDb7BCO6yS2NFANznbTZXPjd7TqxZJf39XvggJH0lrYCGQIYjELEFYaIFQt/ggAy7deoMb6xIqj9EIKmxnAMjyciujQiB3OwcyeOEyjRPJhDSvIGteoaAiCS9QLBWMgQMgeRDwARC8rWJlcgQ8BqBpBcIw77hDTYqeA1COubn8/k2OLY6HeuZbHXiqPDsCHY+JFv5wy2PCYRwkbLrDIHURSDpBcJbHyyVVV0dqYtwAkpe5MuS3Kws6ZCRcxosTQwChb4s2WTGTJkzecrEPDCBTzGBkEDw7dGGwAQhELFASMQuhrs66jXioqXwENhoOEc2y8qTRVm9JhHCg8yTq2YPZ8tRm20l28zZyJP8kjkTEwjJ3DpWNkPAGwRSQiDc0lFnAiGC9rZtjhGA5eGlts0xsm2OHkJvWRkChkAcEIhYIEz0LoYxwz3HAYx0ydIEQmJa0gSCCYTE9Dx7qiEQHwRMIMQH14TmagIhMfCbQDCBkJieZ081BOKDQMoLhNKWdumsKld0CK7jgi71FReOIkb0QgIGEZiHyIFE5hvOztKIigQa4idBfYhASKAhAi35JyI8kl9gsCa9huiInNPAv+wsPbufyIWEiCawD/e6RPAgIgsSUprnkggnzPOI9Mi1hB9unVI9eg9lIzAR9xCUiGeESqEEAsGOCLJEsCMSwYgqGlo1QBQBp1xS3HKyNTiSfzTH7OEhDaIE3rl9AzJQWCAFPb1abwI4uUQQLPLzxyBY2Xk+ga0ItEVAJP9EvAQCSOX39mnePWUEserRSzQ6Y36utp/GttDAWSNtoPf09El3BWG+1yWfT4o6CQCVrXi6GAwEZqIM5Ef6rJ0KNZw1Ia/DSSYQTCCE00/sGkMgVRBIWYEAeRH9sLyxTVqnVkt/Qb7+TURAIu+1TqmS/qIRkQDpEl0QYqj9tE5aptZqaGiuI3IhpFLa3KHkTfREIgRCVJUNLdJWW6HRISF7rquob5HCnn4VE+215RrSuLSpXcNNIyKIBEi0Q0iGSIAaXbAgTyMjVq1p0vLlDA5K3cbTlcggJ8pBaGf+3uidj/SZA/n5KhyITFja2il9xSMCoXXyhsdhBna28QSCEwMaybKmUvqL8lUcUL+83j7pqizXZ5EmrajTcNiIndLWDo2KOJyVpVEPiXKJQCht6VDxVdzRJV0VpUriRRppsVjJu7+4UOtFG7hQ0gg6xERVXfNImOZ1oa+Hc7NlMC9vlOgbZ0ySkrYuFQdgq2Jg2KdtjsDrriASZomKO6I9EsqZaJoIOQQH/wnXPVBQoPdSBvCmH/Bc6sDviMzsIZ+011ZoKGza2EWyJNQz0R65nny7K0s1tHewZALBBEKqDPxWTkMgHARSWCAMSe2qBvFlMbsvkILOHskdGJC+4iIl4Nz+IRUJEEbtp/XSMq1GB3gnECBKSI+Q0DobHhxS0ipr6dAIf/l9IzNQZse9xQU6q69a26SYdlaXa6hg7usrKdDQ0IiA4s4eDR2NaMjS2XeOkgkCBhEAQVGe0uZ2aZlaIxVNbUpI2YOD+rfOfAcGNayzC2lMmYo7ujWccu7AkKzZdEbIGXkogVCzulEtH5B3cVuXhsuGgHP6B7U8beBWUiQzly6XlVvMWU8gME+vWdUodRtPUywoJ9jVrG5QIiWkNZ9B1p2VpdJVVTaCmw/cykYsFSVFKpRK2zqleWq1fjea1hlIJn+yVtZuOkNn8NmDw9JXUqhiifDetC9CAcyxEGBhITQ0oo52ow5kWtDdpxYHPqdsk5ev1T4wImi6R6wR2m8GFY/62VO1D9CvnMWmuL1TxY7rZ4Sbpl1NIDTLmvp6Kav6LAR5c4MJhHAGXbvGEEgVBCIWCInY5jjWLoapH62SrspSJQQIzUUEVr7BhA8JFubL5BV10llZNmrC15nisE8FACKCvYCQQtP0WmHGmDcwoPeRJ7N4ZtAQeElbp3SXFosvJ1uK2zqVmCDA/J7+EYHQ3iWD+XkqErBGQCSY4BEnWBWwUjALhzAhekzczKqdBaF6TaPOwJlFD+Zjwh/W66vXNGn5sZAwow8Wnti/w40rEHw+qVrTqETJMgfCwCduuWUk+LMvO0frM2PpcmmcNUXN9ZSR2Triqay5QwVCfnevWjcQWeDXU1qsBMvMnlk9s3PKDS4sXwzn5qhIgqAhZxVh3X1K1qoLhodVXK3daJrk9Q8KZIxAwNoBJr2lhSowGmZNUdz4HeLnOZRlEIHQ06d1QxTwXMqS2z+o1oFJn9ZpGUesBh3a3lyLUMSCwPOKWzvVekBZ6QPVa5uktbZS/0bUqCVpjIOQzIJgAiFVBn4rpyEQDgIpKxAwS89YtmJEGPiZqTHDDxTmrSOhYiUKZuwQD+SHDwIzQp3dF+QpwUNYzExZR2e2iiUCcobsma1ybdOMSaN4QpiV9S3r8smWiroWNZMzw2WmOZyTpTNciAhyapo5Sc3ukA2+BhDXqs1nKzFBnMxiWWKAJcvrW1VcsISBNQPTOASKJQLTPCQWKo1vQfDJ1I9Xy0B+ri5ZFPT2af2ZRXeXFetn/cUFSo6Y7cGDpQRM88yqwYIyYeUgURcEC0SOgEBEcR3CiiUWrnN+E5A312Gmh6j9E6QMaSNYEEUulTe2alvwuYqwtq5RPwOEGm3JUkL16kb9HhIfzsqWwYJc/ZwygGdbbaVMWrFWT5dUS03fgC7XUDbqTnuNLDEMqfCgv4ARYoilE9qU/tBdXhrcF0VETCBEJhA47dOOSQ31Ntv3hsDEIJAVJHZPxAIhabY5+kTXvSEByFlTlqgPAYSAGRvyUAc234h/AMktMUByWAu6y0dIUUmwq09FAqTBEkF+X7/OXCEefBhIzJAr65v1c5zXmN3mYUEoHPGBUMLpH9J1cxUv2VnSvM76MLJkka/i4tMtNxIsBhBxztCwCgRM86x/U34cKSFZCFnN4aVFmh91CpVCOSkWdXRJcXu3+hMwiwcDsEBM8QwEAkswDN4QrL8PAkKlrKldLQAQJgKIJYbKhmYVMFgauBcS7ikvXmd1AJNBKW9sUX8AlhrAsbCbUL8jbTdC/NlaT9pRfy8pUv8AdfgszNfZu/oWrFtOoF1Z+kFc4HRJ3ggWtSj09Eleb78+aygvT8UPvhP4XCAGilu7dOmH68gHnBEIlAvhhoUCawkOkSwL8Ttl6qwoXc+R078tTCBEJhB6u3vUapQdhuNtqD5v3xsChkD0CPT29Ut51YbO2CkrECAldiw4pzNH3m5XghMIkDyEgKkb4vEXCJM+rZdWdWLLV9JhdouzI7NQyI+/WcKAQHBmhMBZHuhXwVCp5M/SQVF7t84q+R5zOwSDib2rvERN3JQJsoKMIHtIdMVWG+vMtbCze1QgcB2ESD4QMWv0zMbVRI+zY+HIWnosSwzMxpmVsz6PSAIfnoWJXv0t1gmEvHU7LtprKzcQCJOWr5W2yTiBFkhJS4fmQXuAUe7goOT1DozuFMBpE8HDMgl1wTqgePT1S2F376j/AWIPksZyQtLlj6KCESvG0LAKBIQcYgbnUSwbzOwRIeDJkg9LDLQDIgM/C3VaLCnSe1hSwvKDr0JJe/eozwHlRXTwPAQCYoP/tIH6f7R3qUji+W43i/8OCBMI0fsgtDW1SE1lpRQXhxa90Q99dqchYAiEQmDpsmUybc6sDS5LXYHADL+7V0nGLTHwUz3ly4vV4Y7ZNuQFGUJUJAino7pCiQRTcuOMWiWWivpmJSJmm7l9/WodYL0c0oPY+Qmxcs/IjDJL80cs4GkPgUDgzJ4pA+TFjLWjskxnnCMz4X6dUZc3tEr9RtNUYEBGbokBYYIVgtn9YF6O/kSgQFbMgBEtPCNUCuWkqLPw7t6RJYaeXn0GyyRYSRBTWBAQCFyDJQMhQxkhXkgXXBpnTpahvJx1yzeDSuaIJcz2xe09uhPE+VBUrW1WMYcPAUswOC86oeDqAq7Un+9c4n4EGW0F5ggIrB44RLIEwC6E7rIStSSVNbVKT1mptkdxZ7f0FxSolaN6dYO0T6rW8mD5IKnFpKVDLTv4FvjvYkAUsAyFYKTu7LRomj5Jr6EdaVeEVbBkFoTILAgIhNkzZkhFxWciI1Tftu8NAUPAewT+9a9/ydR0EggOIta8WQ5ghojpHGsASwIM8jj0FXX16Ayfz5h5Q4BuTZw17/o5U5T02OkAaeGsxvo14qOisU1WbzZTCZp1erbhuf32bparSxgqLHJ0JotYaGbHRF6uzlhxkGyYOVln0SRM+YiC1XNn6ewb4sRDH7JyFgRmxzwv2zespnmup+w8v2larQqF8VKoJQY1sbd1imRnrZs9Z6mgYhmGpRHM9ogI9SdYdzaAnhmxzjmvrLlN6uZMU8sKM2wVSzgoDg5pnSFoSBX/DdqDRQTOinCbFfAdoH4kcMFSQ3u1Tq5Wi4t/QkxByOxWoDwIvNbaKhnKz1WxhrhB/NEGvpyckd0ludkjWxOzs9WSg+hCeLizG7BmYA1A5LDrAotP07QaFQQ8A4FHXwBn/FxWbj5H/VLIB2uLnq0QxFHRBIIJBO+HbsvREIg/Ap4JhGTaxaCwDeOD/9n+BbfEoATOIK7+CVn6b4PEd26g9/+dO9gqt27dOezmUQb0y1P/DPjbPzPKroc1Ub7QByCFW45QAoF81MdAK+j3fMTOerhxSZByjfp8OHw/u07zXecIGG55VXSRVdBnrcuFYuh1fm3pX47xHjZOG4zgMLKkESwheoIekBXkYhMIJhDC7fN2nSGQTAikr0BIJpSTpCzhCIQkKWpaFcMEggmEtOrQVpmMQcAzgZA0uxgypukir6gJhMgx8+IOEwgmELzoR5aHITDRCKSsQFj82r9kUXuDhXuOoMdM9eXItKxceVP6DLcIcIv10im+bNl/s8/J1nM2ijWrpL+/uTn2kxTNSTHpm9kKmCEIpKxA+HD1Kmnt682QZvKmmvjY+4aHZWiMdXVvnmK5BCIA7lMrq2VqVeh4GamOngmEVG9BK78h8BkCKSsQhn3Ddtia9eSUQSCbnTIeOpwma8VNICRry1i5DIHIEUhZgRB5Ve0OQ8AQiDcC8RIIQ0ND8uyzz0pTU5McfvjhUlRUJG+++abcdNNNcsQRR8jBBx8seZxuOjAgjY2NUlVVJS0tLfLb3/5WfvGLX0hvb680NDTIzJkz5ZNPPpElS5bIoYceKk888YT85z//UfHW398vBQUFms+5556rz7BkCGQyAp4JhIne5pjJjWZ1NwSSFYF4CQRI/aqrrpKSkhKZPXu2bLnllvLkk0/K3LlzZenSpbLnnnvKAQccIO3t7XLXXXfJYYcdpmTvBAL333bbbXLRRRcpdFzT2toqnZ2dsskmm0hPT4+88cYbsscee6iI2HHHHSXbluKStZtZuSYIAc8EwpIlS3w77LBDWMVesWKFdPX3SUnZZ6fjjXVj45o6mT9vXkaYZ8MCzy4yBJIYgXgJBKwC119/vZI2M/+FCxdKTU2NWgqwDnz88cfyzW9+U5G5/fbbZd9995X8/Hy57rrr5LLLLhPGnAcffFAuvvhiWblypVoXOKnxgQcekMLCQhUZCAOEQm1trZx11llJjLIVzRCYGAQ8EwgTvc1xYuCxpxgChkAkCMRLIEDgiIIXXnhBLrnkEnn11Velra1NJk+eLNttt50sXrxYzj77bCV4LAWIBpYlnnnmGTn66KOlq6tLcnNz5ZxzzpFVq1bJo48+Kttvv728/PLLKiTq6upkp512UvHAtd/5znciqbZdawikJQImENKyWa1ShkBiEIiXQGCJAHFw6623ygknnKD+BN3d3eovsM0228jjjz8u1157rXR0dMi7774rkyZNkvr6ern55pvlwgsvVLGAaMBKUF1dLWvXrlV/hb/+9a8yffp0WbRokS414OOw8cYbm0BITPexpyYZAiYQkqxBrDiGQCojEC+BMDw8LIODg0r2CAQsBvgbsDyw1VZbKcH/8Y9/lGXLlql14Nvf/rasWbNm1AcBMYGIYFlin3320SWJG2+8Ufr6+uR73/ueOjbecccd6gCJUGCZwZIhkOkImEDI9B5g9TcEPEQgXgKBXQd/+9vfVBiccsopaj2A5KdNmya77rqrkj/+Bu+//77cd999cv7556tAuPrqq+VnP/uZXs81U6dOlf32209+/OMfqxjAgnD88ccL5f7www9lxowZKhrOPPNMD1GxrAyB1ETABEJqtpuV2hBISgTiJRDYgshWRGb7P//5z+Waa67RpQKWDvBBYOnh17/+tW5ZZFsjWx/ZocAAx+4GSB9BgfMiOx/Y3cA1b7/9tu6KYEkCf4Wvfe1rcuWVV8ovf/lLXb6wZAhkMgKeCQTb5pjJ3cjqbgiMIBAvgeDwvfPOO+ULX/iCPPXUUyoOSktLxefz6RLBcccdp1YDzjZgG6R/4lp2LmyxxRZ6PcsTiA4sBgiP5cuXq//BIYccog6L+CXgvGjJEMhkBEwgZHLrW90NAY8RiLdAgNQhbvwR2PLIf8ifnxA95E8Kdmql/3f87n+Nf34eQ2LZGQIpi4BnAsG2OaZsH7CCGwKeIRBvgeBZQS0jQ8AQCImACYSQENkFhoAhEC4CJhDCRcquMwSSHwETCMnfRlZCQyBlEDCBkDJNZQU1BEIiYAIhJER2gSFgCISLQDwEAv4CHHLEwUapnnJycjSehH/i9Md0qFuytA1nY5iDqTetYQLBGxwtF0PAEIjTLgbI0518mOpbD9k9sfXWW6/XVz744AMNLJUJ4cDj/ZKwnRUBxvkYlmJHwDOBYNscY28My8EQSHUE4mFBQCCwBZGBv6ysLGUhwhLCOQ3bbrvtenV47733ZPPNNxesC5ZiQ4CtrMTS4EhtS7EjYAIhdgwtB0PAEFiHgAmEsbuCCYT4vyYuhLcJBG+w9kwg2DZHbxrEcjEEUhkBEwgmEBLZf00geIu+CQRv8bTcDIGMRiARAoGZOcsQ7iAk/wbAZ4FDlEgchsQ1hH3mcCX/6zHvcx2fuc+5nsT1JHwE+M/n7js+516e45//WAc1JWKJYbzDo9Kts5pA8LZFTSB4i6flZghkNAKJEAhtbW0apCnQgZG1aOI0VFRUKOlznDJBmzbbbDP93e0cQBhMmTJFqqqqRsNIc/2qVatUSMyZM0fbtLKyUsrLyzWM9KeffqqfEWWS+3faaSdZsWKFxn8g1kMwZ8qJXGKg3JSNcnAMNc8m3kS4ietpS+JdIHbAGCHE0dbJnEwgeNs6JhC8xdNyMwQyGoFECAR2OCAQAncH/Pvf/5Z58+YpMUKSzN45qhky5yckSoLgIX62x3ENJANB4vAGybrQz4gIYjzgKY/QILH98rXXXpOjjjpKBUJHR4c6HCZaIBBPAoFE6GrEEPXYeOONw+6bWEOIaXHwwQer6HnnnXf0fmJXJHMygeBt65hA8BZPy80QyGgEEiUQGMggcP8EMRK9kc/ZBfH666/rLHjWrFlKnv5LDFgZ+E90R7bIQfxYEBAHfE4iHDQRIAkIRWRI9tojMiDTPffcMy4CgTJj2WB7JJYPng35I2i22morFSrM7qkjooSw2IiYZ599VsUK5XLLHVgDPvroI60L9yBkqB91Xbp0qXAeA9cUFxdrWOx7771XDjzwQP0O64nbaYH1ZPXq1YoLooEysbuEvMiX57ryTPTLYALBW8Q9Ewi2zdHbhrHcDIFURCBRAgESC9w++MYbb+gSAxYEiJRwzpAlVgWsBnyG5WH+/PlqPcDXACsARIdQIKIjCQEAOb/55puyxx57qFDg3o022ki/h5gh1XhYEP7yl79ovSBiLCUQMM/973//q2XGWx/C3mabbbQMN910k5xyyinC1kksILvvvrssW7ZMhQz3gQH1RyCR34IFC+Stt95SKwFhr/kdQbLLLrvI7bffrmKK7aXcgyBCaL366quK6yeffKJYgSllIKw2eGJhoTyJ2LZpAsHbUcMzgWC7GLxtGMvNEEhFBBIlECBEZtT+zoFuiWHy5Mk662Z2jd8B10Gwe+21lyxevFg23XRTFRGQHVYFrAMQHv/xP4Aw+QlRQrTky6yZWTyJ2TUEGg+B8Kc//UlOPfVUFTQIFMrIsgFLJIS+hpR5LoSNQLj++uvlK1/5ymj46t12200QSogc6smAzz0sOdx///1y4oknyuOPP67LLmBA3bAk8Ddiwx06tOuuu6r/ARiCJWKCZRvw5rt//OMfcvzxx6sYAa9IljO87OcmELxEU7S/TJ0za4NMV3+yQnbbddewH5ZlAiFsrOxCQyBtEUiUQGAgQwj4CwT/JQaIDQKFKCFZvmOW+9JLLylxQpg4F0IwiA3EAddBkMyumY0feeSReuIh1gNmySQExVNPPSUnnXRS3AQChO+EiRMIPP+uu+5SsqcuCISioiK57rrr5Gtf+9qYAgF/iYMOOkhxuOeee7Tc+Bpsv/32uiyACGHJYeedd9bvDzvsMLUqkDfPQGxgRUCkUCbwwYrxz3/+Uy0pfAauiXJmNIHg7dBiAsFbPC03QyCjEUiUQOC4YgjMXyAgCiArZsYQKuvmkD3mdWbAWABeeeUV2WKLLXSNn7V7vsN0znIDs3QsDqzHcx/r84F+Dsy2Fy5cKMcee2xcBQLmesz3LDHgI8EsHnGCXwAOhMzaWXJ48MEH5ZxzzpGVK1eqvwGWAH5C3AihQIFw8skn6/0uX8QRvgVYHvBBOOaYY9SigJBimQVfAwQDWIEJ11Ie2n3RokUqHHbccceEHRttAsHb4ccEgrd4Wm6GQEYjkCiBgBhgvdw/sYyAzwCkDplC/AgBSI6ZL4KB2TK7HyA7Zr1YDhAT/M5MmZ9cz/fMkCFkRAj5QNJYFhATO+ywQ1wEAuv9EC5LDJSVOlAWBAPl5nPKTFkoK2ROWbByUH+sKu5sBwQOjpcQPRYTdmywNEIdsEK4emFpwS8D4cByDM8CK0QEYoolGFdvBAFCC8weeughdYpMZBwEEwjeDj8mELzF03IzBDIagUQIBMiwoaFhdLeBawDIAnGAeZwEqWNaZ7aNpYA1dPwH3DkJWAsgPr7nOs47qKmpUQKEnKkb5AeR8kwEBNfxGbN3vPexOnC/O5zJvzN4dQ4C+QQexOTOYwh8XjgBoBAYOF6CE3ViuSHUdkb/w5cQJSwxIJSwPLiDpRLxIphA8BZ1Ewje4mm5GQIZjUAiBILzBQgkw0AijeREwUiudQ0e6h6vBILXHYzZP8IIgYRIQOBEsgMBkUS7Y2lxYszrMoabnwmEcJEK7zrPBIJtcwwPcLvKEEhnBBIlEFIB02QVCKmAXbhlNIEQLlLhXeeZQLBdDOEBblcZAumMQLwEAssB+A0kyjveizZDILz77rtBwz3jFxDJrN2L8qRjHggEln8smqM3rZv0AqFh9VrZYu7chHnFegOz5WIIZAYCOLI1t7dJeVXlaIWbGxplk9lzRs8NCESCNfCO3h4pLS/Tr9qaWmT2jBmjPgWYsPExgGA5rCeVE2v8OPr5J5wJ8XMIx18gles+EWVnuQShxc4TS7EjkAICYY3k5YxEU7NkCBgCyY0AZJ5fXOSpQEAY4AiHA2CqJxz4Aq0gzHjToW7J0jb4QXBehaXYEUh6gdC4pk5mcuRpVlbstbUcDAFDIK4IsDugu69Hyiq9syDEtcCWuSFgCIyJQEoIhO0DDkCx9jQEDIHkRABv+DX19VJWNRLgiBTrEkNy1tRKZQikPwKeCQTbxZD+ncVqaAiEQiAeToqhnmnfGwKGQHwQMIEQH1wtV0MgIxEwgZCRzW6VTlMEPBMIts0xTXuIVcsQiAABEwgRgGWXGgJJjoAJhCRvICueIZBKCJhASKXWsrIaAuMjYALBeoghYAh4hoAJBM+gtIwMgYQjYAIh4U1gBTAE0gcBEwjp05ZWE0PABIL1AUPAEPAMARMInkFpGRkCCUfAM4GQLNscX3zxRdloo400XOnQ0JC8//77GkOdMKSEbnWJ8Kgvv/yyzJkzJ+i53YR65fQ24qkTC528uIeT4jili9O67LzvhPdfK0CSIWACIckaxIpjCMSAQFoJhI8++kiuvPJKOfTQQ2X27NmSl5cnL730kgbvIITpUUcdJZMmTRqF67nnnpOnn35aLrjggg3OiX/vvffkvvvuk3nz5uk1nJXOmfEcBLPddtvJ1ltvLSeccEIM0NuthkD6IWACIf3a1GqUuQh4JhCSYZsjFoGrrrpKg6FMnz5dVq5cqcSONeGdd95RcfCNb3xjNOALZ7xfdtllanE4/fTT1+sFH3/8sf79xhtvaD61tbWydu1aKS4uVuGx8847q1CwZAgYAp8hYALBeoMhkD4IpJVAePXVV+WDDz4QKvW9731PLQCcDT937lzZZJNN5Mknn5TzzjtPCJji0oUXXigsJ/zud7+TSr/z4189BtmTAAAgAElEQVR55RV5/vnn5ZBDDlELAlHYsEQgFLBUnHjiibJgwYL06QlWE0PAAwRMIHgAomVhCCQJAmklEP72t7/Js88+q8sKX/jCF5TM8Rkgjvzmm28ujz76qPz6178ehZ4wq7fccovGZ+/s7JQvf/nLo9/19vYKgmNgYECtCPgdkAdCY9GiRWp1MIGQJL3YipE0CJhASJqmsIIYAjEjkFYCgSUD0rHHHqtLDVdccYX6Deyyyy4yf/58WbhwoVx99dV6DQ6HP/nJT+Too4+WLbfcUr7zne/ID3/4Q3VKdImlhcWLF0tdXZ0Kg6eeekqWLl0qe+21l3zxi1/cIK57zK1hGRgCKY6ACYQUb0ArviHgh4BnAiEZdjGwvICvAcSPoyKOidnZ2frfWRAQCH19ffLEE0/I8uXL5bTTTlMLA5aHN998U84880wpKysTxMYll1wiW221lTQ0NKjAILHsgKDYddddZdasWdaZDAFDwA8BEwjWHQyB9EEgrQTCkiVLhAHql7/8pdx4441yww03SGtrq1oQEAi33Xab/PznP1erAEICS8Omm26qrdnW1ib33HOP+icceeSRulvh8ssvlyOOOEKtEIgBtkkiEA4//HDBR+Hss8+WrKys9OkNVhNDIEYETCDECKDdbggkEQJpJRAcrjgefve735XHHntMcnJydCkAkudcg8MOO0x9CLbZZht1XsS64BK7FF544QUVFGxzLCwslPb2dt0yyZIEFgryY7skwO25554mEJKoM1tREo+ACYTEt4GVwBDwCgHPBEIybHN0oHAwElsbGxsbVQCwNZGdCvgX8Ht/f78edBQs4ZyIFQFhUFpaKvzNkgP3cGASVgS2TloyBAyBDREwgWC9whBIHwTSUiCkT/NYTQyB1ELABEJqtZeV1hAYD4GUEggsETAApUOaNm2aWik4pyHVE1tAOUOC46hx6Ex1vwysThUVFWptshQZAiYQIsPLrjYEkhmBlBIIOBIyAPkfaJTM4I5VNnwdcJpkGyV+Dvn5+alYDS0z50ywDMMplfyOr8fUqVNTtj4UvKOjQ8+9mDJlSkrXIxGFN4GQCNTtmYZAfBDwTCBMxDZHBAJWhFQnoA8//FA23nhjWbVqlR7mlMozVXwznGhDIOD3wSFSqZw4NZO6mECIvBVNIESOmd1hCCQrAiYQEtAyJhASAHoEjzSBEAFYAZeaQIgeO7vTEEg2BDwTCBOxi8EsCMnWfUR3d5gFIfnaJVElMoGQKOTtuYaA9wikjUCAqHAuY4siznLu2GUHGecX4DzHKYocnoT5mLMNMCW7a7nGP5AT97KkwYySZY3A76JtjlAWBMpDDAjKQ50op399qAef8xOnQPwY2IpJvamPS5SXPPwTjpFg4B/2Otp6cF+4AoHy81zKSn3475/ciZdcA95E43Q4uLpzDZE0+Zu6BuZBflzj2hoMaevq6mq9nuQcKPnprgusv1kQou8RJhCix87uNASSDYG0EQgEXiJmAkciP/TQQ+pkxmAFIUFie+yxh56auGbNGnWk22mnnfQngZjwWMfRjrMRDjjgAF1Hh8QhFe6FhHGM5Ehm0pw5c2TmzJlRt2UogcBziflA9EhOcOTwJnY7UCcIlHMYdthhBz3rgUiThJ2G8P/973+r4yPlRAgQP4Kjook+yTkQJE6IpK7soiBxNgS4RCt+whUIEDWdjTDZlBNHTe4l4aQJprvttptwhgVl3XHHHbUdOB0TUQDxQ9wnnXSS1uGf//ynYsJ3LiEI8OfgGGxEwbvvvqtCi8/ef/99fR6fgyvBuY4//vgNBBR5mUCIumvrO7emvl7KqipGM2luaJRNZs8Z8/wQ3sOO3h4pLS/Te9qaWmT2jBn6XloyBAyBxCGQNgIBCBEJzKQ5DpnTEJctW6bxGCBLHOcQCwRcQghAspAjyxaQBpYCZqTcx4mJiAKsBnzO/f4Oa9zHc6JNoQQC+UJskD1iAcLkJ3WBHBEACAIIlCOfEQr8zayY2TVlg5A51IlTJPmd+8gDEQWxIh4gXa5B/ES7NTFcgUCdKC9lgYBpC7CnvLQFzwfjZ555RtuHOtIuCCIOrKKsEAknYZIHbUSd+c4l6sUzNttsM83zkUce0dMuEYUIEupKG/Msdirss88+QZvQBEK0PVtMIEQPnd1pCCQdAmkhECA+CBCCYGb8n//8R/+GWCERSIhZNjsGiMOAWIBAmEVCHsxgIQ5moxAqxIwwYFYNsUDWkLAz6xOsyf+I5khbNZRAcETOMyBSruc/xMlsGPKkDJT57bffVoLn748//ljFDOXGSgAhsp2Sz1asWKFkC/lRNywg1BfrQSwnQ4YrEJhZ0j7MCsHUWQoQW5SD8rCz47nnntM2dKG6KbdbZqG+tCPPxArB33zHsgp143MsLhyjzfMI1037s5SAcCBP/sb6wLMQg8Ha0QRCpD36s+vNghA9dnanIZBsCHgmEBK5zRGCQAwgDDAvO+KEaCEFhMD222+vQuGBBx7QmTgzT8gXonKWAr7fe++99TM3syXCI6LB7fV3hwJFO+OmA4QSCNSHZQFmyhAZs11mzBA5ZYZQmSVjNof4IFzqh9XDHQ2NyEE0cB1HRCMKyBcLAmSKBYGEmEBE+JvqI+mk4QoEnsu2TsQYYouy0y6IAcrjBAvkTVkRN4gJt2TCc/h8wYIF+hNrAoKJtuYad4w2bcu99AfaEXxoP/6m7cDH+UGwHBVsacUEQiQ9YP1rTSBEj53daQgkGwJpIRAAFUJ/+eWXNQAT5AOZIhCYPTJzZU2b3yEpCBOBAAGx1s8sGrLiP74K+CUwK4dMEAiQDt/xk/+s/8eSQgkE8oYEWTKB1J0lA7KH8BAn8+bN03qxnv7SSy/Jvvvuq6TJ9RAk9WImjfjBgsB/6vW5z31OMYCkuRayRCwEOjOGW79wBQLtg5ChTiwdUB6eDZ6UFf8DCBxRhFUEwuc6LAhuCYjv9t9/fxU5WH5IiCLCdiMwaHMsBPgzUJ8nn3xS64/4oa48k2v4m7KQVzChZwIh3Nbf8DoTCNFjZ3caAsmGgGcCIRm2OSIQIECIh2WBF198UU3IOCRCRJAZxAIhQa5uFg5pcD3EikCAcBENEBOfQxiQErN5zPvkH0sKRyAgTiBTyg1ZYkV49NFH1YSOox+zZwgPwYDPBXWBBCFRiJYZMwQIQWKNQOhgKUBYQI6Y31nzx4lxIpYYwIvnIk5YJkAwEG0TCwB+AhA77QPWOCbyOeVzvhO0A6KNOmExQBi4Oj/77LMacRNRgLCi7fiJfwbWA5ZlsMAgCnkGOOCfctBBBwVtRhMI0fduEwjRY2d3GgLJhkDaCAQIFaKAxCETRABb5bbddtvRyI2QCkTB9xCKW2JgBo1VAZP0XnvtpWTKDBsSIWECJ38IBhKCgCDaaFM4AoGB1pUDEYB1AGKF3JwvBEsqEB4C4IgjjtC6MTuG8LEWICK4HusHlgacF6krwoL8SAgqBEW0KVwLAuKF8vJsxABWHgh/9913Hz1qGhFGOyAAEC58j3XAOWRyD0tATughIqgXog+xgJCifbieuvJMvnM/uRYM77nnHjn66KNVbAVLJhCi7Q3mpBg9cnanIZB8CKSFQGA2Cnk4MzKzR3wPHPFBJJAmhIA4cD4GzMohG7d9ESJ12wK33nrr0fshaGbkODd6cSxyKIFAGV19ECaBx0tTH8QP1gVM5OzMwAeBfBEP1AdiRCwhCLjmrbfe0lk392KCRyC5bYCsxUcbDyJcgQD5UyesMlgSXPu4nReUGX8EyoEFAWsO7cFOB4QZ5caawFIEzphYRriGhN8C9aaNaSvaGczAAyuEOzfCLdW4urpljcDX0gRC9AOVWRCix87uNASSDYG0EQhuTzyDP6TCbNH/gCFIBkLlM4QBZOGEgbMScB+k485EcB7ujqSZlUZ7XoB/w4cSCPhOUEYIj/JSLsrgfzAQ5XRihRk3Fg//9XTEgNvxwLMhV4SUExV85vLmOfH2QaB9KB9WDefv4X+gFWXFYkA5AstOWak/yydYCZyjoX/7IDpIiEKw8T80i+fxXJ6PBQORApE5fwQTCN4NSyYQvMPScjIEEo1AWgiERIMY6fNDCYRI80vk9eFaEBJZxkifbRaESBH77HoTCNFjZ3caAsmGgGcCYcmSJb5wvfvxTO/q75OSss8OuRkLmMY1dTJ/3jyd/VkshmTrPuEftZx8JR+7RCYQom8tEwjRY2d3GgLJhoBnAiGR5yAkG6ihymMWhFAIJfZ7EwjR428CIXrs7E5DINkQ8EwgTNQ2RxzUYjmkKBkaAF8AdlfgSAgZpXrCN4NzCNzukWj9GZIFB/wXcAJ1TpDJUq5UKIcJhFRoJSujIRAeAiklEMKrkl1lCBgCiULABEKikLfnGgLeI5BSAoHzCPBDsGQIxBMBLFRYRWI9ECueZUzWvE0gJGvLWLkMgcgRSCmB4AIwsR3OkiEQLwTYIssWWLZUWooMARMIkeFlVxsCyYxAygkE9tOz3m3JEIgHAviHcNiSO+o5Hs9I5zxNIKRz61rdMg0BzwTCROxicCGdTSBkWjeduPqaQIgNaxMIseFndxsCyYSAZwJhInYxmEBIpq6TnmUxgRBbu5pAiA0/u9sQSCYEMkogsA2PYEbuyGJ3VG9ggxDTga16qb6dMpk6WiLLEqq9/ctmAiG2ljKBEBt+drchkEwIZJRAuOGGG+S0006T9957T8/9J/hSsLRo0SINaETUxngmAhjhCGdCJH4oI/YIEoUwJPRzqGQCIRRC439vAiE2/OxuQyCZEMgogbDllltq5L877rhDyf/AAw8M2hYvvfSSHpQzloDwqgEvvfRSueSSS2IKt+xVWdI1H6I63n333bor4bjjjgtZTRMIISEa9wITCLHhZ3cbAsmEQFoLBKL4Pf744/Liiy/KfvvtJxdeeKEKhNtvv1091dkRQdjgc845Z70ojQ8//LDONtkL/8ADD2j0QMI9n3zyyUIYaLc08cEHH8iyZct0hrpq1So56qijZP/999dohQsXLhSEBiLjrLPO0miKL7zwgixfvlzDMBOB8ZprrpEzzjhDTjnlFI3GSOIaSGrvvffWcMwMuDvttJOGdF68eLGGLz7xxBPVwsFnPAcxQ9nYt88zKRfEeNJJJ+k11JUzJCgH17722mty55136vX/v70zAZIsq+r+yX3PrKytu3qd7llwmPlmBgyYQQ0ICFBhECEAFUIIcUFQWdUAJJRFQFABQQJFERAGDJURHNQhmMAJ8IvQj2FEZXcWprfaq3Lfty9+J+vVVFdnVWbWmll1bkRHV1W+d++5//vy/f/33HPvefGLXywIp3e+852a6poH4ilPeYqmxMbT8qIXvUie9KQnaf8+//nPq93Petaz1D6nkH3x3//93wWPCGmln/zkJ8tzn/tctQEx9o1vfEOuvfZa+eVf/mVd3vnCF76gKZ0Raa94xSu0j5A4R1CD3xOf+ES5++675Rd+4Rfkq1/9qpD18cd+7Mfk3nvv1dMNSQuN/ZxE+YxnPEOe/vSnawrof/mXf9FzMm6//XY91ZFxJosn/2jLBMLuv3pMIOw+xtaCIbBXCOyYQBi0XQyQ7Je+9CX5yle+okSDUHj/+9+vZPXe975XyEL48pe/XO644w5Ni/xbv/Vbq5i/4x3vUEEBGUFq/A5JQZC///u/rymTHTL/8Ic/LC972cvk7Nmz8trXvlb+6I/+SL797W/L97//fSVX7iHFMGRNuz/5kz+ppEba6Oc85zlKoNTniI6PfexjSqK0C7kjKCDo17/+9fKpT31K/vu//1ttxzZI8g1veIMSPiLoF3/xF+Utb3mL1vvjP/7j2tc///M/FzwV1EV51ateJR/96EflCU94gjz88MNKrAiHpz3tafKmN71JRcMnPvEJ+ZVf+RVNkfw7v/M7Sryf+cxnVDDddtttasuf/dmfKVFTHnroIXnNa16jyzeQO/UjahBfJOZCcFAnNrOkgtjARkQBQuPChQtqx/Of/3wdj1e/+tWK3V//9V/LRz7yEU3/jG3gS9v/9m//prYgGujb29/+diHdM/jyM2mcGc+3ve1tKlIYEwSUCYTdf62YQNh9jK0FQ2CvEDiwAoFZPwREsCFkg7fgxhtvlP/6r/9S4mEWz4wfsoLYHAIFeEiGmez4+Li8613vUmJGcCA0EAsnT57U8YGoAPDnf/7ndWaPWID4KWzFZKYNmbOUAdHhmYCoTp06pdf8xE/8hAoIiNgpkCsCAfGCwIFgIVP6gL0QKjN++sBsnpwO6XRavQYvfOELlcxf+cpXqqcAb8Q999yjRInnBG8IngII+Zvf/KYKGfr/e7/3eypcmKEzK8dO2rrmmmvkpptu0t8/9KEPKeEjCvBa4MVgpu4IhPe9732KFeSMpwOPAoSOFwTypz1EEO18+tOflptvvlkxBsv/+I//EIQReCFA+Bs2IWLwfiC2EGG/9mu/pkIFzwtiiDEkroQCDvQdAUef8VC88Y1vlFwup+OH7SYQdv+1YgJh9zG2FgyBvUJgxwTCoG1zxKWOQGDmD4Hj/mbG+Z//+Z9KRpAQhAGxvu51r1NyccpagcDPH//4x1UgsBQB2a4VCHgoIC8ImZnqxMSEEBjH/xA7yZgg9w9+8IPaBgLBOccBgYCNzIad8slPflJd7szI77rrLhUBED9E961vfUu+/OUvy/XXX6/2QOZ4OmiP37GL+pj9Yw9eBUifOIf77rtPPve5zynxUt8LXvACXTqBfN/85jcrcePORzA4AgG3/C233KJLAogfCBnRAJZ4CpwgTjwI73nPe5ScEVV4axAEeEZYNsBGfmc2/5u/+ZvqFWEpAuJm2Yc2qANPCG2DAYKGen74h39YONmQQrt4OxArLMuwDPSBD3xAEomEYsL1eFAIMmVc+BncEF3YbgJh918rJhB2H2NrwRDYKwQOrECAMJnFspbNjBui+JM/+RMlHtzjzLohHzwKrL1DOJ0EAoSEux+SgpBxXTuEjgcBkqMeZs4Q7G//9m/r+j2zYpYdmD0jFn70R39U/vmf//kygfCSl7xEnv3sZys5Q3IU7IH0WCJAEIyOjup6/p133qn9oD6uZWaP9wFyxTtC+8yisWczgYBYQNA873nP0/5A1rjpNxMIeCIQCbjxESF4NZjBO0deQ+4sRSAEEAXEZfAz4gMPAESOQGBMaBeRxnIDnoZnPvOZWg/9BidE1B/8wR/oeIEltrIs8da3vlXFDV4gsEAsILQcTwW/OwKBnxEsj3vc4xRTriFOwQTC7r9WTCDsPsbWgiGwVwgcWIEAgBAna/YQITNq/oeQmdVCdpAQSwIsAaxNzAOBcT0iglkxHghm25AyM1EnXgCBwD8C8CgIAsQC7TJDpo1AIKBkyVIDxMqsm4h6CuDTxq233roqEAiuY2kBQYIQgAQJdCT4kBk4yxEESrKkgRudGT994G8QLOSMkCCuAqKcnp5WomQdH+FCbAB18RnETH2Pf/zjVUixrIDt2MkyCKLjH/7hH5RYCdIESz6H3PHGONszEQiILkSQc0QxHga8J9jI3yB5v9+vfXHqYeshAY3EaIA5nhCuY2kBDxBiDvEGXiwB4XFhnOgL9YIHdoI59uFtoS8UljZYQgEH7GWJoZddKbaLYXuvHhMI28PP7jYEBgmBAy0QHKAhqE6HIm30d+c+yJY1bpYOKOvPK4BoifRnVgzZrm+jW/3UCSF1Ogeh0738jWvXXt/pb708YFu5D1s74YBXg5gIlg8g87U4cA//umGz0XUb9WUjW9Zev9U+Wi6GXp6gzteYQNg6dnanITBoCBwKgbBV0CEYZv4bpf0lvoF/zIQP82FH4ITnAw/BsONgHoStflva9+2UQPC53fq9smIIGAL7h8DC4qIcu6odVL+2TD9yXm679daeDXMN2jbHni23Cw2BNQiYQNje47ATAqFRr0uz3tieIXa3IWAI7AgCvmBgeAQCB+E4++93pPdWiSGwTiBAcmyPJc7DSn8I7IRA6K9Fu9oQMAT2GoG+PQh7sc2Rlw/r3Ru5/PcaJGvvYCLAshHiwARC/+NrAqF/zOwOQ2DYEBhYgUBU/tpzA4YNWLN38BFgxwpBpyYQ+h8rEwj9Y2Z3GALDhsBACgTyGZDngC2IVgyB3UKAXQwUEwj9I2wCoX/M7A5DYLcRILaKYPJ6tSbiEvH6fLqMutUysAKBffjOSYRb7ZzdZwhshIAFKW7v2TCBsD387G5DYKcQqNfqUsznpJgviNvlkkAgKKFgUKvnDBnOmmm5RELRqIQjYRUNvZa+BYLtYugVWrtukBEwgbC90TGBsD387G5DYDsI8P6q12pSyGTF1RI9PI/TeNmC3qkgEvjOcvicy+uRcCwmXp+363Z1EwjbGSW7d2gRMIGwvaEzgbA9/OxuQ2CrCDTqDSkVCtKqN+TI5KSeINvPuTScfMu5B+JxSzAcEvcmSxB9C4S92MVADMJ2lhhIXsSxxhyBzBG8KKtOhRwCfIb6sjLcCLAjgWOYWW/jGOduxQRCN4Q2/9wEwvbws7sNga0gwHJCIZeTaCgsx6am9Ij/rRQ8CrNzs5IrFiUSj20Yp3AgBQKJgf7u7/5OEwJxhv+TnvSkjhiSVImcCeQ02M1yxx13yM/+7M/aiXG7CDI7EkjihCB8xjOe0bUlEwhdIdr0AhMI28PP7jYE+kWA4MN8JivxcETPCNruCaScHsykajmbkZGxzpPoAyEQnJc9yYQg+9tuu00TAP3t3/6tRqiTmRBA1x+8RJIfZpvRaFSTHeGmwXNBUqa1ZzCQZIhgD/7HPUNSJEe5EQlPu6dPn9ZEQVzHy5NdGCRX4vdXv/rV8od/+IeakAgCo5BECbu5h0ROKDpSKEN03/jGN9SzQXZEZsTUQRZEbCWJFMcds5bErBkvCfXyO9dRrrvuOn14+J0+8jN/I2ETCZTYHXLhwgUVR/SHOkh+RJ+pk8+wifa5xynYxgNF38lfQcZFsjpSSKDE30hk5SRLIsEU2IAn2FM3CaLAmqRT4AMO2EG9FLw5/I2xwHXm2IL95H8g8RbXYgt4OBkiyQFB4iausWyO/b56+r/eBEL/mNkdhsB2EMhns+J3e+Wq06f13bkTxXknF2sVia1kGl5b74EQCGRU/NM//VPNigixfeUrX5Gvf/3rmnmQJBQQHcsO73//+zUjoFPe+c53ylOe8hQl5le+8pVKtBAQ/7/mNa9ZJUfSIP/lX/6lkhFky9IE4oMETh/5yEf0flINkxGSn9/1rncp2T7/+c/XNMjvfve75XWve51mmHTc3x/72Md0OwoppslgCHHyOemoSQHNQVF4Pm6//XYVGNjE337kR35Es1JSJ+RO+mYI+B3veIemgSbdMmmgSR1NymeWaxAKZGB86UtfqtkZn/a0p+m92Hb99derQOCBoy//+I//qDNxsIScP/nJT64q1YcffljbBSPaRBC8/e1v13rAGnFG+mvSNyMiwIj+4qn5q7/6KyV+kj2xOwUy//CHPywvf/nL1dvD+HF6JomgGBcwYCzJMonIQ2x84hOf0GyQb3rTmzRbJamoSe1NYA5CBvvIyGkCYSdeHZvXYQJh9zG2FgwBBwECErOLyzop2ylx4NQNDzEBjY+Pin/dksXQCwRm05/97Gd1dg8xMmOFXOgwpIX34MUvfrEKBrI1QkZOgdye+tSn6kz1jW98oxIaYL3iFa/Qa5ndU0j1/MUvflF+9Vd/VZcsfvd3f1duvvlmJTAOc/qZn/kZJfhf//VfX23jRS96kc7aKaQv/vznP3/ZbPyjH/2otgVB3nPPPXLu3Dkl79e//vXygQ98QAUGJAtZQ5yIDUjyb/7mb+QlL3mJkiWiA88Fgghi/+M//mP56le/Kvfee6+89a1vVcKknu9973vaB4QG2HAtdf793/+9Ln0w68crgh0sh/AzYuMtb3mLtoVdFLB985vfrPaB2V133aX9RnggGiBq2ifNNnXQLqIHUYXgICvmt771LR0PPCa0C9aIMwQcAui1r32tvOxlL9P+ffzjH5ef/umfVqwRX4gkxALj/b73vU/FiPMzhPWhD31Iv0AmEHb/xWoCYfcxthYMARDA07wwPSPXXn2Nvkd3o/D+fuChB2Xs6JHLAh77FgiDts2R2TGkzwwSouZ33Ne46T/1qU8pCT3rWc/SWTJkCJmuFwi4td/znvcIs3oKQgMixJ3vCAQEBrN7ZsTMtBEmEB+CgZgH1nMQG3gaiH34uZ/7udVzHBAIn/vc51aXF6iTtrgHgkR8QLTcA0lDlix7MNOnH5AqbnsEBR4KAjCZlWMnywVcjyjAY3DfffdpW29729tUrOCKx4tQr9fVy4DHARJHbPzTP/2T/NRP/ZS6+G+55RYVMeCAMKGdYrGoBI/XwhEIiAPIOh6PK5YID7wwtE+hXmxCjCAgnCWOX/qlX1L3PyKMa1iaeNWrXqUEj2eBe1h6uOmmm9RrQBsf/OAHFR8wBi+Wf57whCeoaEK8gDP147FgSefTn/60LlGYQNiNV8jldZpA2H2MrQVDAASK+bw0KzWdIO1WQYQ8+NBD0nCJhKOR1WaGXiCwhnL33XerxwC3Om5/XND333+/urDpOLNQSBECgnjWCwRmw7/xG7+hn0HCzKJZJuDvjkCAfCAeiAySxL2NCx6yQwCwts9yBh4ByHutQECg4DZHuDj7VL/0pS/pTJ7ZM4RHoX5m2SwtQN7MspkRUy/iBI8FM3+EC+JnM4GAWID8IXyWAhAO/G0zgfCv//qv6qGg38QkcA91IAYcgQC2uPFZYoCgwQNxg0BDKEHuiDT6D/ETe4AwoR4nVoL6sAUPAfEEfP6CF7xARdGdd96pgo5lFJYluB9vBqKMdhlPRyDQr/e+972KIW0yRogqEwi79Rp5tF4TCLuPsbVgCIAA3oMfuu4xOsHazQK/nLt0QUbWbJvsWyAM4jbHmZkZXan+p0MAACAASURBVMfnpeXMqCH4L3/5yyoKKBAIbnqWHJyCix3SJsDtDW94gzznOc/RpQpmsU9+8pNX196ZJUP6x48fV4IigBBCYx2fWTTtUiA2BADiBLe8IzBYx0d4MBtnZk5hMP7iL/5ClwBYU2KpgPgIZv8E6OGd4Hc8IAgg2sJO7GXpgnaJ1mcmjisfLwM24d4nQBOChmDxIEC8lBe+8IUqgiBk6sNO1vJZSmHtHzGBwMJ1j4cE26jHCaxkiYFlDFz+iBfaRhQQoAhG9B0XGHZiO3/TU7xaLRVv4ITdBF5SJx4dvAIsJyCywItYBJYZqJs4Bbwj3I+ooH+PPPKIijG8RdiIkHIECvWCD0Gq3YrtYuiG0Oafm0DYHn52tyHQCwJ4fvOptPyfG27s66yDXupefw1c8cj5c+IPh1ZPWzwQAoGXPe5w3MwQCT9D4nQYgPkft7kzE3aA4XpIjbV63NmICq6H5NZuIYHoCP5j9o2KI1iR+px2ITnIlPq5H1Lkd+cMbMQJNlHv2gATxIhjG3ZwD9exHsTPxDdQB9fgOeBe2nYEDyQLGbNUwT+EAKTJ9dy7ti6HlFluABsEC9c5dhJoiHjBIwMu9IE61u5iQCAQO8HSAO3yOXhwD/bRNn0EA2yjH/Sda7iW6+gztoIVdevWnXxer6dOhBPiAJHk2ML13I+ttIFtjujhd/pE/6iPOnrJAmoCYSuvEPMgbA81u9sQ6A8Bjk8O+/w6se3nMKT+WmlfzXt7emZG2NEQXvFWHAiBsBUw1t7DbIglCtzTnQrLCBAouyF6IZ/t2jOo90PeeCqe+MQnbnik56Davt4uEwjbGynzIGwPP7vbEOgFgUwqLUfHJ2RixfPcyz1bvYZ34uzcnJ6LEEu0l5VNIGwVTbtvqBEwgbC94TOBsD387G5DoBcElhcW5fTxE6vnzfRyD9cQ44b3lvi7fgpxYwupZYkn257qgRUIuKct3XM/Q2vX9oMAAsGJHbF0z/0g177WBEL/mNkdhkC/CCzOzsk1Z85esTy+UT3OQXJf+MIXVoPF2dnlLMl2a3/bAmEvtjmynk10uxMc161T9rkhsBUEnFgIJ5h0K3Uc1ntMIBzWkbd+7yUCy/MLctWpUzKSaM/ou5UHHnhAONiP3XDEZz396U/XbeoEu/dShkIgECxBgJ0VQ2A3ESDoh5iS7Z5pvps2DmrdJhAGdWTMroOEQJqdeZNHZXxly323vhEwz3eTLfQsMXBgH0HpvUy28aoiEJYyaYmNtA9kGsglhm4g2OeGgCGwvwiYQNhf/K31w4FAPpuTkWhMMzf2U9hOzm4vTs7ttbCjbGZ2RrJkeIy1t8abQOgVPbvOEDAEVhEwgWAPgyGw+wjUqlWpFUvymOses+vbHBEUFy5dFJfPKz6/3wTC7g+vtWAIHEwETCAczHG1Xg0eAoszc3LTLiRpWt9TzqN55MJ5iSVHVsXIwHsQ5lPLUqrVBm/UBtgit4i4RKQxwDYeRNPAPRGNar72g15MIBz0Ebb+DQoCmeVlGUskd3VXn56BMDvbPgNhJf5gKJYY7v361+T/5pZIaTUo4zXwdoyLRybFI9+VqhhqezdcY+KWp1z9Q3LD6av2rtF9askEwj4Bb80eOgQ4UTY1vyA3XP9YPcF3NwrLC//74AMSHUmIx+tdbaJvD8JebHNcCwAC4Y7cnBFdH0/F2aZHrnf55W5XSZp93GeXbg+BM02PPO+ax8qNJhA6Aklys1y5JNF4bHtA292GwCFDgIyOXnHL2TNn9Dj5nS6kG6g0G6vBiU79JhB2GukBqM8Ewv4MggmERTl76vSGh7qYQNif59JaHX4EWALILqdkPDmqGW53sszNzsrMwrwkJ8avCITsWyDsRTZH8yBsb/hNIGwPv63ebQLBBMJWnx27zxDohkCjXpdcKi2nTpxcTdrX7Z5un3Pe0He/9z2ZON5ZdAy9QPBW61L3t9dMXK2WeKs1aXg90vR4HsWG+AUXYXsi3lpdP2/x+5q/e+oNaXg84m429d/awrVNj7t9z7pCmxTnM5fe39I21hZ3o6n2rf07v7tp1+eVDT9vNKXpdkmrD7dSN4Gg7Taaj9rSaomvA25cR7+c6x0M1v7d1WxJ0+0Wd7Oh/e4VN+c66vIwJj7vFfjymeIJBjqeLW2DVpqrY0hA5uVjQH2rn68x6LKxX/k7495yu7QPFNqinfagtqS5Zj2u25fNBIIJhG7PiH1uCGwHgUq5LNViSY4dndLMuVtdbuDMg0w2KxenL0kkFhOv39fRrKEVCJCHr1yVselFWTwxoQQSKJQlkslJ3eeT7ERCGisv91CuIJVISAlo/MKcpI6OK+n6KlWphoIa8h9fykglGJBAqaKEBRkGimWphILS8HmkFIuoEOEeT60h5WhI/OWq+EsVFRS5ZFzFB/fwLzs+otfTZqBQklC+JO5GQ4rxqFTCASV8X7kiicWMLJ6YlEg6L6FcUQojUW0bomq5RGLLWakGA5IbjSvp9VI2EwjgFs4WJJQtSGYyqRgF80WJpvNSDfq1HciaEkvlJJeMia9Sk2gqJ/lkTOpej4TyRSkmoooTdVVDAYlk8kqyrpaoSKPvdZ9XComo2g1u9Ak8/ZWqXqOEXG9oH1f71xK9txb0r2LJfYVERMKZoniaDWm63FJMRKQSDmr7KiRI+R0N61gkZ5cln4xK3e+Xmt+rosJfLEtiKaP20L9SNKTtJ2eXdCxL0bAgdvidMUM0ID5pxxEQlVBgVWh2GgcTCCYQevl+2jWGwHYQqFYqUimWJBlPqCehl1MS17bHCYupdEoyuZz4w6FNT5IdWoEA2Y5OL4m3VlPSZQYbyJekGI9IOFeUWsAvubG41P0+Gb8wL6mpMZ0xOwKBmWk0nZPMxIiKC3+xosQFuUNs+AogrvxITKpBn7YBgSM2qP/C9Vfp51yPSJg7c0zGLi1oGwgXCC47nlA7xi/OK5kiCiCfaohDKFziqdUkWCjL4sm2QGDGir1cF01llUyjmby4Gk1ZOj6h4qGXsqlAaDZVVGEPogccIfx8Mi7BfEn77uB24vvn5OJjTrcFQrotEJhbj11alLkzU0rK9N9db0piMa1YBgultrAKQ7pBKUfDSuLhTEHc9brMX3VMknPLKn4cbwrEjIeHv3krNXFLS5amxiW+mFH7CiMxxXPqoUuyNDUmwWJZqgG/lOIROfrwJbUd+7KjcRV4jFMpFlZRsnjyiHiqdRmZT6m9KkqaCI6oChaEDUJj+cioxFJZSc4sqZjk+UAAIgoQCOVISLITIx29SM6YmEAwgdDL99OuMQS2i0C9VpNSoShet1tikajEYjEVCp61nvM1jeAx4BhmkjkVSkWpN5sSCIXEuzIZ3MieoRUIvOwnH5lRAlKy8XiU1PEMtEmgTbbM1ifOz0lmPKEz2dHpRUlPJvVziJGfIev4YlpnsXgScDszi6/5ffozbXEds2jqhJR+cPO1SuLcCyEtHxtXAksdSSrpc09uLKEEg3CAeJlh48qvRIL6M7NoyDN1dEwJDDFRC/ikgfeiVJFyJCjxpazagP3M2nsp3TwIyZlFFSF4D5oeHPTOEkZ76QGPAP8QCLNnjqmdkUxBSRWKTS6k9O8QMKICUYYI4v9AsaKY00/6AnnTt2rAp96SmbPH1DNRDgf1f4e0EQmMYyEeUaGWHUtIfCGtJI0tzPrBf+6qoxJJ5SVUKEn6SFKxnT17XNvH0+JpNMRbqUo+mZDRmQWZufqEiiHEnIovl0g4W5TM5Ih6DPg7AoGxH5lbVvGXHYurZ4Of1QPidqsNjNtmxQSCCYRevp92jSGwEwgQuMhJi/VqTVpNlrBF/D6fegT4x+fkNSJpU5WzhFgu9rjE4/OLz+/r6WTGvgXCoGxzhFhOfvcHSkBOwQsACbRn6KKzPtzmuJzxNFAgc/7OrLA9y2/PCsPpvPhqdSUN51pmqSwboDyWjk3orJJfrvrmgyoQEBOxpYzOei9ef1qO/mBGlo6NaxvYx8wXgQB54VWAlBEeEChLEp56XUkT7wDLDWPTS5KaTKpwgRgRDMxwERcLp45o33opm3sQWjL10EUlRfV2VGviaqhEkGIsrDaCGYSIt4WCQEEMgBdkiR2IGvCAYKkH8sYjge2Qv86+6edoYjWGYfL8rAoEJByYs1RDu3hguJ/2wYyiyytLWb2X8dL4kpVYBTwqLY9L2znyyIyOpa9SV4+NXlep6bhiP54dBAJei3Z8QbttvCRggDB0lhioH9GJp4Q+M44sMdBnxhHPggmENgJ2DkIv30S7xhDYfQQQAngIEAn6M+/HZvuYPJfbI26PW8WAi1gxloE7xNJtZGXfAmFgdjG0REbml3Wm3cB172mTr7dS13XqUiSkbmaWDyAN1qIhJmeJgXVuYhaU9DxujUtj9hldyoq3XlOCg/ggFWbCS8cn24A3W6sCQT0ILZHwCinieocUVVSISH4kKukjo7rE0bal7RmAgIlJSE+MXBaDMDq9IIVkXMqhgM6iaZsljVooIKnJUbW1l9LNgwApBvPtpRRfraZxBomFtAoSFVXhgJIi4YD1gP+yJQa8KiwjIJ7wyKgHoCUycWFWvTkIJvACA2bf2bGR1fV8RyC0XO7VwEJEBssTzP7xQCiBC4GRTUnMpyScK0kt6NO6Js7NSn40rrEBtIFIOfLItMxdNaUYUzSGpN7QewKFigo2hABLEHhkKNFUXgUCY0z7jkBg6eHIw9Nt23geNIC0HfdBv1NHxqQe2FikmQfBPAi9fD/tGkNgWBAYWoHgzBRx0esyQLMpHmaILRF3q7kqECBaSJ1YAhTCWoEwcWFe0pMjSozMYiFOSJOZIgKCgDVmwAgFZtRXCITlrLhbLXWzL0+NaQwBXgXW7JnNEkNAYW0blzWiAJGweOKI4ObnGtzsBCniQcAeSA/CJBgQUtSZdTws5UhYGiu7Nbo9XN0EAt4AYgKwN6iCJSBBhEgwsCoQfCvBl8zE18YgQJQQNQGOYAL+YMc1uPydmTcCApe84/WA1B2BwLIJngbFcyXYFIyd4EgEFEs6xCAg8BB7Ta9bZ/R4d/ByEIhKTAbLPQunjraXjiZYOmpKYiGlz8Hy8XHF2wmmxGMRyRKMGVSvTTibV88ISzcEKYYzeb2fZylQqqptLI04OywQGpt5cUwgmEDo9t20zw2BYUJgaAUCL31mmAiA9tqySwPaXE2ResCrMQnM2tsR8/XV2SnEnJlI6kt/dGZRlo+2Z4XRlYBDSJK6mc0yG8bFzEwzMz7SnjGv8SDgXmc2zUwfkme3ggbQBQMakMfyB2TGNRrFj5ARaYsOn0fXyp1dDDw0uMtphyA/DZBMxtqz9VBA3e/M0HspmwkEbMDd7gTg6U6OcFB3NehODZ9XPQgIBJYf6IPGIGSJQeBzn4xeWtCgT3CPLmfEx1ZTtmo2m+odwd0PQxNLgUdEPTtrBMLaLZtgB86QLzN5p4DNxMV5wdtAnYgBRMQxlkeCASV4Jx6EsfKXqhokiZ3q5SiWpBwKKvnzXARKZQ1E5R7iKQiyRCCBheNBQDAQQwE24NQe72Y7liUU0OfJBEJ7hGyJoZdvol1jCAw3AkMrEJgh6pa9XEGj/Ak6hMj4G1vYIIHUkVEJlso688RLgIhgtov7GeJhZj9/6ogSCnECuNfbaY5aSniQBzsM1KXt97Vd/CxtLKR0hssSBa503N2IA4gS1zWz3kgqp1VBbNHlnJJNe2ufSz0HzLxZKydwJHV0VJ8ivBusqwfKlZUdD+3ZLwIGYmLJopey6TkInIFAgGa2IOJ2qfeDZZFIuqC2EiuBMEGkQLZgAvGrHZxVQNTsUkbmTx9V2yPpdqAhM3DwQFyAPUF/7NLgfuecB/pMG6vnSbRauvUQMZIbG1E7nIJwQHywxIEAwJOCl4V4A93xIC4pjkS1Hxqj0GypKKBu4hiwKU5w5ErAJUKLzxgvrsXbgZ3BXFFy4wmtg361l5T8utzkxD+wDZRxL8VC6mXZqJgHwTwIvXw/7RpDYFgQGF6BsIKwZ0UUQOu4kHXrnAbA1XVWyoveXWtojML6gruaZQB2PrB2rdsbW9J2S1drGrTIrLGdKKq9N35tcSLwnbMOGn6f1kFhBqriIehXQqIgTrAPwoeY1YUd9K/OSiHn9lkL7XME+N+5F/t1H34PpdtBSZCdihVXe52dgECnf7qLAS9Kvd4+D6LDQUHc65A5mFMP/QI7PCcs9YCrHqjEIU+bBMUQY6FegpW4h9XurQQlci8Cg50h2IltxCe0MfKtHiIFTnhDuNbZPknfGEeH1OmT7q7gPm/73Aytk2dg5dwLdnaAvSM2uRZ4EHPcs/4ArLXDYQLBBEIPX0+7xBAYGgT6FgiDsothaBDeyNC25tiV0lUg7EqrVqkJBBMI9i0wBA4SAiYQDtJorvTFBML+DKoJBBMI+/PkWauGwO4g0LdA2I9tjp/NzVu65z7G/3TTI9e4fHKvq2zpnvvAbbuXnmq65dmW7tmyOW73QbL7DYEBQWDgBcJ93/m2PFTIDAhcw2FGWFwSEbcsSPuwDCt7g0BY3HLDiVNy9dSxvWlwH1uxXQz7CL41bQjsEQIDLxAyhYI0Vk6F2iNMDkQzTXYr9HFi1oHo9AB0IugPSDjQWzDpAJi7ZRNMIGwZOrvREBgaBAZeIAwNkmaoIXCIEDCBcIgG27p6aBEYeIHw0KULUi9XDu0AbbXjpWZTQu4rt3ZutT67rzcERsbG5MgICcAOdjGBcLDH13pnCIBA3wJhP7Y53pltn7NvpTcETrU8cvVKkGJvd9hVO4HAyaZHbr/mernx9FU7Ud1A12ECYaCHx4wzBHYEgaEQCHfk5mwXQx/Dbdsc+wBrBy+1bY62zXEHHyeryhDYdwT6Fgj7sc3RBEJ/z4kJhP7w2qmrTSCYQNipZ8nqMQQGAQETCIMwCjtsgwmEHQa0x+pMIJhA6PFRscsMgaFAYOgFAmf0lyPttMoUJ3lPp9wLrFMEiu3siGszCnIfCYmaBPW1WppTYG3RXzkWucdtg2QPJEeBZplck7+B3Aa042Sf1HYbDfFWG5rwiWtJIETWxLWFJEXtunoLOuwmEMi3QCKltYmHSGhFrgfyDawvXE/CKrJkKkYrRXNRaL4Ft+Zd6LQOtD5/RadvBRkTfeWaprPeKNdBO7dFrZ2LYSW3hZO4qVOden21ppkq1xayRDK+mnhrpazmXQi0/8Y40QYZN0nyRJbLXooJBBMIvTwndo0hMCwIDLdAaLZk8uKczJ86qniTItlfKIm/1pDZM1OrSYJI5UzaZohs7OKCpI+OKpeRsVCTMYlLxi4taKZBiJKUzRAVn5NMiex+ubGE/gzBIEpIBAXJkDSIrJAkhCK1cDEeFn+5osmYComoJg+ikEhobHpRibQS8Evq2PhqdslQvqQZFEmPfOq752T+9BFxNdrZKSnxpYwKCOwjU2G30k0gkM6YLIypo2OruNHvpsslyycmVkXAyPyypCdHtY+RTF6zSSIQ+Bk8sC+22E6JnVhIi1uTWrUTG9Fv8MpMJjWBFYmowAVxBp4kdQrnSyoqEAi0j0AgyRMF8i/EI4o1/admsjpS1+TFebWVLJhgTt203/S6JT8S0zY0G2UqL8vHx1fhiqTzMrKwLHWvV1M8Z8cS+kyABQmm+F2zQC6m1Z5yOKQ/ZydGtA6eic1SPptAMIHQ7btpnxsCw4RA3wJhP3YxdIpBgJyO/e8FcixKJRxSApVmSzJH2mmYo5mCLJyY0CyO4xfmJTU1pi94Uiqnjo4rKUXTOclMjGh6ZkiQdMQQOSmXSYWcnF7S+8i+yN8gmOTckhIVAgDiUCFRKCtxkRGS7IPRdF7rJ0MgaY/TpJ3OF9tpkMcSMnppXpanxiVQrirJkuURO2DB0ZklJSFm86QvJg0xaZdzIzEVQAuIoS5JnjYTCMysT37/fDtFcwTcyFxYl8WTR5T4/cWKEi+ehBPfPycXH3NasQErRAxEPXZpUebOTOlzju2QMSJp4fikhIolCacLmooZz0414JdwrqgCjH4hTlJH2AbokuTskoqo9QUM48sZuXTdKU3BrMQcjyi24B4olaXpcqtXBXHCuDkpvZn9I0Roh2ya4JgdH1HbGftCMqbjnZhfVjGBMNDMms2mjgnZP0enF6UYC6sATM4sqchhLBsej9TwsnTIDEofTCCYQBiml7/Zagh0Q2BoBQId44VfiuIBEHU/+0u4j1tKAMwimZFDVBPn55SoIRoIGDLGhYz7OH0kqaQHCeNKZkbsq7Vn7uoxqNaVkJeOTUhyFlKJ6gyYWWeoUNJZPSTJ3yAqSIt2dcnC49HZNCKDzyBJPA8sg8xefVwFhRLaikAIZ4sqdEg/zAw7RDpiaUlsOae2QF4zVx/XejcrmwkE8EnMpxQLvAH+SlukgAdpjknvDKlC5giE+dNT+jn2I4xIj5xYzMjsmWPiqda1D+VoUCYuzOtYkL6Z2TljQUro3GhChQAEzZiMzC5Jy+NRwRUqlqUS8Im/0sabpQyWXJjJJxbTsnR8QgUCbSNY8olo2zMzEtPxRswVEjFN4ewvlqUe8K+m1HbGAwHBGGbHEzJ5blaFAEID0YMQUoFQKGnbCATGlfbwYJD6OZzJKxZ4GrA5Pxo3gSAits2x26vVPjcEhh+B4RUIrZac/O4j6mLmhQ+5eeoNJT1+Vlf+imchObfcJgYRnd23ic6lbvDcWFxa4pJoKtv2JJSrKhC4lhnkWoHgDDdkMjKf0nYg9Egqp6ThZt3ayzq6WwlHBUK1JsvHxnWGi7sae+MLKZm5+oSwtIB3gs9yyTbRxRfSajvEBhmWoiEVCJAudUN03cqmAqHZkqMPT0st6FtZ74cI3SpUECYIAPoNwY7hyvd6BK8DQgDhAFHSV7wi/B08q0GfEnopGpFQvqBeD2bxLBcgEJw4BNpg2QIhwRgQCwDRe+pNJXs8MbRP3bRBW2DG54gN8I4vZJSwNS6iVmuLBZY6dBnGr3Ui0BgXcMXzgCcBUThxflZFii6TZAuSmkiqhwlb3Y2WYouNtIlwavjaY+ssT1V1mSe2YZyEeRDMg9Dtu2mfGwLDhEDfAmFgtjmyVryUEX+5Jk23S0mVwECdibaa6j7X+AKXS8kEEoM8ID3W3hEHus6sxOtRcYGrnJko91Bfe7bp1mA13NRaWi0ZmUuJq9WU7ERSyYWZf93bFhcay0jQHQFyBMK1RGfCkA6khAcBVz6u++T0ohIY1yIQvLWGJBaW1d5iPKrEB7m218ODUoZY1wUwdnrYunkQYktZtVuXRyD+gF+9IRAs5F4NB1QgMZtHNGAHQgDvCR4SDQQFNx/LExB8QwUTLntm4xAwHhSWGBwBx++IHwDKjiY0XgHPiVOYtbvrTe2figOXSyqRoBA/gkiD2Cshvy7TsHygcQzNpqQnk+14g3ReRQFCg3vxDPB3jQPxelSQ4MEhzoH4BepITyRVPLBMxTgjEBg7bKFN7Iimcuolok71IkSCikGnYgLBBMIwvfzNVkOgGwJDKxAgcNzYzPx5yTNbr/m96jrGFe8IBMjX1Wi2g/tc7WUJYhCYjY5fXJDMRELJBrJiFkosAbN6xAR1QzDMonWtvNWS5FxKiRNiUpGRL2oEPmvtkWxeXdC4pSGyzHiiHcwY8IuvWlUBA7nGl7Jy7saz4i+VlVBd4lKBgIGx5YwSLmSnSxYqZNh54dcZObPr7cQg0IdAsdIOrGQ3g+PSn09dJhAQO+ruHx+5LAah5vfJ+Pk5jb+AtJVMKzUVHNmxkTYe1Xp7eScelkokpM8gosrdbEhmIqmEDZEH82UlZ4oGSXrcihcFkYHAQ8ygsiBlV6Mh5VhExRbCCVxZuuBe3ekRaHt88LowtlyTHYtrnZA7bdJcYiGlz8zc6Sm1G5Gk3pmxhISzeRUFiA+eMQJWy3hW2I3iao+TI3rWf7lMIJhA6PbCtc8NgWFCYGgFAjNX1tJ5ieMSd9zgEAFR6ggADYpjW1uzpbPb9QKBdfP05IiSj+6AKJZXlxUgFmbFzOQhFmaXuPqJluce2oEsmXGOzi2reECEFGMhiabySlIE9i0em5SW160zbWbQzgx8/syxdtAdIiFfUuJBcGhEfbUhTZ9byZc6+Rv2IxogxW7bLTfzIKibf255ZYYf0mUO3Ow+jSUISc3vVw8Cv0OSnQTCxLnZ9u4Ev09n+IgwbGcMSvGwBAoEa4oSPvYjtBBWqcm2S7/CEkbw8oyHiaW0jttq0KKL5Ye67jqh4AEoR9o7IIgFwe6FU5O67RGcEH6IKESKt84207piRvzDwqkjOl7gzDODiENULE+NqT0IAp4Rx4OAQEPE4ZkiWDIzNqKijc8RNxttNzWBYAJhmF7+Zqsh0A2BoRUIq67pTF7X/nXG12zpNkR2MrBWTWAiAgFC1LMNXKLbEXWvv0t0SeDSdSeV6JgV69o2e+xbuPgjGtDIcgQCoe1OJ0K+qjNaCjN6vBa4syFXroO8MuMj+juzUWbObMNkOYSZLOv9XDN79riuoUNazhq5RtcvpNRdzrXMbonWb/raQX0QLuv3nc4qWDvQ3bY5IqrwciA02EbIdkLEEITZXrcPq3dmdHZRPTNghxem6WnPopmtX7r2lDbJcgmeiEI8LLFUXj0riC2Intk3OAbYesrsfaWwjKGBf5wr0WqpwMB7Q8wI7vy1Jb6YUbFHPQRFQvieZlPFEqKLbZgs6yAIqBOyp73U1LiSOfXiIWBXgv6fiIinUpcY4u3EhD4P2FsL+TVeIpwpaDwFyyl4J449eFEuXXtSx4TreKbUxg5nYphAMIHQ7YVrnxsCw4RA3wJhULY5OiA7buP2kkNFZ7/M9vhH1LuuMeNl8DPzvnxocO8TJ8D6M1vndHa+st8dcqeOXDLedcbu1Iqr3fFoOH9rt9HeGgeRMvNlZgqZsfUxWKyot8FxreNGZ4ZK2zpTpV+V9vIEeLpUlwAADvdJREFUpMS1G22zc9rsJhDQN4qby6UiBfLXIM9GW2Rhm4elGfXOXD7Tpw3s1gOLIOZ6XZcDEBLYxWwer4p6Ano4WIo2ECXqfYiFV8+NcPqiIkkDT30aU4AQZPmIuhlvZ6mB66kL0YeYcw5cUtG44uHQMSCwMkNgpb/tfcgV9dAoxtkJyKQuR4ThIcHjQKFtsLNtjraLYZhe8marIbBVBIZeIGy14wf5vq4C4SB3fh/7Zh4E8yDs4+NnTRsCO45A3wJhYHYx7DgUB6dCEwj7M5YmEEwg7M+TZ60aAruDwFAIhM9Yuue+Rh+B8BiXX77oKlma7L6Q297FVzU98txrHis3nr5qexUNwd12UNIQDJKZaAhsE4GBFwj/79vflHShsM1uHq7bOWexXK+Lz9vOA2FlbxAA99MnTsq1x47vTYP72IoJhH0E35o2BPYIgYEXCHuEgzVjCBgCfSBgAqEPsOxSQ2BIETCBMKQDZ2YbAvuJgAmE/UTf2jYE9gaBvgXCXm9z3BsYrBVDwBDoBwETCP2gZdcaAsOJgAmE4Rw3s9oQ2FcETCDsK/zWuCGwJwj0LRD2epvjnqBgjRgChkBfCJhA6Asuu9gQGEoETCAM5bCZ0YbA/iJgAmF/8bfWDYG9QMAEwl6gbG0YAgcMARMIB2xArTuGQAcETCDYY2EIGAJ9I2ACoW/I7AZDYOgQMIEwdENmBhsC+4+ACYT9HwOzwBDYbQT6Fgi2zXG3h8TqNwQGHwETCIM/RmahIbBdBEwgbBdBu98QOIQImEA4hINuXT50CPQtEGyb46F7RqzDhsAVCJhAsIfCEDj4CJhAOPhjbD00BHYcARMIOw6pVWgIDBwCJhAGbkjMIENg8BEwgTD4Y2QWGgLbRcAEwnYRtPsNgUOIgAmEQzjo1uVDh4AJhEM35NZhQ2D7CJhA2D6GVoMhMOgI9C0Q7r///tbjH//4nvp1/vx5KVQrEolFu16/ODMnj7v5ZnG5XF2vtQsMAUNgfxEwgbC/+FvrhsBeINC3QLBzEPZiWKwNQ2CwETCBMNjjY9YZAjuBQN8CwbY57gTsVochMNwImEAY7vEz6w2BXhAwgdALSnaNIWAIXIaACQR7IAyBg4+ACYSDP8bWQ0NgxxEwgbDjkFqFhsDAIWACYeCGxAwyBAYfARMIgz9GZqEhsF0ETCBsF0G73xA4hAiYQDiEg25dPnQI9C0QbBfDoXtGrMOGwBUImECwh8IQOPgI9C0QbBfDwX8orIeGQDcETCB0Q8g+NwSGHwETCMM/htYDQ2DPETCBsOeQW4OGwJ4jYAJhzyG3Bg2B4UfABMLwj6H1wBDohoAJhG4I2eeGgCFgMQj2DBgChxABEwiHcNCty4bAdhEwD8J2EbT7DYHBR6BvgWC7GAZ/UM1CQ2C3ETCBsNsIW/2GwP4jYAJh/8fALDAEhg4BEwhDN2RmsCHQNwJ9CwTb5tg3xnaDIXDgEDCBcOCG1DpkCFyBgAkEeygMAUOgbwRMIPQNmd1gCAwdAgMlEK69+mpxuVxDB6IZbAgcNgRyuZwsZdIST46sdn15YVHOnjot8Xi8IxwXLlyQXLkk0XjssMFl/TUEhhKBgREI2VRapNUaShDNaENgmBBoNptSLVekVqtJs9FQ091ut3h9PvEHg+LxuLt2hzr8oaCEIxETCF3RsgsMgeFEYGAEwnDCZ1YbAsOBQKvVkmKhINnltHhcLkkkEhKJRMTr9WoH6vW6lEolSWcyUqvXJDYyIpFYVIVDr8U8CL0iZdcZAsOBQN8CYbe2OQ4HXGalITBcCLS9BWUpF4oSDUfk6NGjEgqFNl3Kq1QqMjc3J+lsRvyhkARDQXF7PF07bgKhK0R2gSEwVAiYQBiq4TJjDYHeEWAJoZQviN/jlWNTUxKNRnu/WUQ9CjMzM1KqViQQDos/4N/0fhMIfcFrFxsCA49A3wJht7Y5DjxSZqAhMEQIVCsVKeeLkkwk1Gvg6cED0Kl7eCAWFxdlYXFRfOGgBEOhDVEwgTBED4iZagj0gIAJhB5AsksMgWFCoFatSjGXl6nJIzI2NrYjO4MymYxcnL4k/nBIAsFgRzhMIAzTU2K2GgLdETCB0B0ju8IQGBoEWs2m5NIZGUuOypHJyb6CDDfrJEGOnH1waXZWYslER4+ECYSheUzMUEOgJwRMIPQEk11kCAwHAsV8QXwut5w+dWp1h8JOWc5yw6XpS5IrFiSaSFxRrQmEnULa6jEEBgOBvgWC7WIYjIEzKwyB9Qg0Gg0p5wu6tDAy8ugBRjuJVD6f16UGXygkPr/vsqpNIOwk0laXIbD/CJhA2P8xMAsMgR1BgO2MUm/K2TNndmxpYb1hLDWcP39eyo26hCJhEwg7MnJWiSEwmAj0LRBsF8NgDqRZZQjk0xmZHBuX8fHxXQWDgMVLMzMSTsQuEyLmQdhV2K1yQ2DPETCBsOeQW4OGwO4gsDw3Lzdc/1jx+S53/e90a8QifOd735XoSOKyA5RMIOw00lafIbC/CJhA2F/8rXVDYEcQIKdCIZWRG264YUfq61bJgw8+KC6/V3yBwOqlJhC6oWafGwLDhYAJhOEaL7PWEOiIQLlUEm9T5OzZs30htLCwoEmbjh071td909PTkinmJRJ7NDOjCYS+ILSLDYGBR8AEwsAPkRloCHRHIJ/NSSIckePHj3e/eM0Vd911l6TTaXnpS1/a132crji7tCDxNbslTCD0BaFdbAgMPAJ9CwTb5jjwY2oGHkIEshyOFE/I1NRUT73Ha3DPPffI1772NSkUCvLUpz5Vbr31Vj15sZeytLQk0/NzkhhN2hJDL4DZNYbAECJgAmEIB81MNgTWI1DI5iQWCsuJEyd6AoeMjXfccYf8z//8jyZlQhw885nP7HmpgaWJueUliY88emCSeRB6gt4uMgSGBoG+BYJtcxyasTVDDxEClVJJPFuIQdjqEsOlS5ckVy5KeE2GSBMIh+iBs64eCgRMIByKYbZOHnQE2HqYX0rJjTfe2FdXiSVguaHXpQmn8gceeEDcQb/4/I+mgDaB0Bf0drEhMPAImEAY+CEyAw2B3hBYmp2XGx+7N+cgfPs735HY6Iidg9Db0NhVhsBQImACYSiHzYw2BK5EgJMUx5OjMjk5uavwsOthem5WIvGYuNzu1bbMg7CrsFvlhsCeI2ACYc8htwYNgd1BoFqpSKtak7NnznZMx7wTrbKUQS6GaqshwbDlYtgJTK0OQ2BQEehbINg2x0EdSrPrsCPAaYqlfEGOjE/I6OjorsCRy+Xk4vS0BCIh8a470tk8CLsCuVVqCOwbAiYQ9g16a9gQ2HkEysWSuJstOXnihATWHIO8Ey3V63W5eOmSlGtVCUUj4nK5LqvWBMJOoGx1GAKDg0DfAsG2OQ7O4JklhsB6BEjHnE2lZWxkRI4eObpjaZ+pl8ORLs3OSGJstGO9JhDseTQEDhYCJhAO1nhabwwBIU5geX5BTp88KaPJ0Stm+luBKJvNygMPPSSjkxPi8Xo6VmECYSvI2j2GwOAiYAJhcMfGLDMEtoxAo16X1MKSHJ+a0niEraaAZlmBXQvnLlyQ5MS4eH3eDW0ygbDl4bIbDYGBRMAEwkAOixllCGwfgUajIZmlZYlFojI+NibRaLTn3Q168FI+L8uplGSyWYmPJjf0HDiWmkDY/phZDYbAICFgAmGQRsNsMQR2GAFiB8qForDDIej3SzQSlXg8vmEAY7VaFXYq5PI5KVUqes5BMBLuKZbBBMIOD55VZwjsMwJ9CwTb5rjPI2bNGwJbQIAlB45UbtYb0qzVtQavx6PEz24EvA0sJ7RExOPzitvr1eUEj9fbcwyDCYQtDIzdYggMMAImEAZ4cMw0Q2CnEcCjwPKBtFoqBlr8LCIuF0JBfxC3y3XZCYm92mACoVek7DpDYDgQ6Fsg9L3NsVKWcCw6HGiYlYaAIbBlBAiKPHv6tC5hdCoXLlyQbKko0Xhsy23YjYaAIbB3CMycuyC33Xprzw26+hEI09PTsrC4qC5LK4aAIXCwEahVqnLNNddIbE0K6LU9npmZkbmF+StOYDzYqFjvDIHhRYDv9ONuuaXnDvQlEAh44p8VQ8AQOBwIhEKhDXdK2PvgcDwD1suDgwDxSZFIpOcO9SUQeq7VLjQEDAFDwBAwBAyBoUbABMJQD58ZbwgYAoaAIWAI7A4Crn62Oe6OCVarIWAIGAKGgCFgCAwaAuZBGLQRMXsMAUPAEDAEDIEBQMAEwgAMgplgCBgChoAhYAgMGgImEAZtRMweQ8AQMAQMAUNgABBw3X///S32OlsxBAwBQ8AQMAQMAUPAQcD1gx/8oOXxeIQjW9kjyb+1hb9v9tlqRevu4/jXTvVxfalUEvZXdyrcx3ny64seJytyxWfd7NvIds6pp9D39X3ezHbOuOeefmx3bOzUL+qjvfXpe7far81s3whb+lIulyUYDF7RrY1sd/6+k2MCFtTr9V55ENdWxmQz3Df7zHk21tuxG2Oy0fNEW5wzEAgEeh4TLuQ+Sr/f427fk05jgu1O7odO39dOz/tWx4S8E9TX6bu30bOxWVtbfZ6ww+/39zUm3ezb7L3bCcONnk+M6tbWVsak0/PE38CC8VhfZy/fk43e8Rtxxma8AB4bjclGtnfDaS/HpN+2Nnt2eWfwXd0I337H31WtVlvOee4Yur4CjOHzTi8CXhAOya7/xjBonciX65aWljSnfaeXGPd1ynXv2LH+BbGZ7c5nnWyHEPkcUlxvBzZwTycwGQDsW3+P84VhcDr1C6w6vWQrlYom1gmHw1cIM+cF3M+YbCSkNrOPz5aXlyWZTHYUS9TZiSydtjqNyVZsd8akk3jcbEx4UW2G+0YiEPs7fYaApay3g+fFIfROopLPOxHYZt+TjWyn/XQ6LYlEou8x6fQ93uy7sNl3fCMsNiOIbt8FxrLTeG1mR7FY1HvWE8FWx2QrzxP2kRmTo6d7Hf+tvp82et+BLWNCvevfGXy2Ub82w6kXDDu9Q/P5nApYn+9ywYTtzvtuPU7dOIPrO32HNuIT/g4epD5f25aDeyd+6jYmm33HO70LnTHp9M7Y6pjQzkbvJ+zr9B2nrWw2q89Fp/f1Rty62cTs/wPmtqkES5oSdAAAAABJRU5ErkJggg==;" vertex="1" parent="WIyWlLk6GJQsqaUBKTNV-1">
          <mxGeometry x="1540" y="90" width="520" height="385" as="geometry" />
        </mxCell>
        <mxCell id="ghsJjhkHBw-PjkQFY_jK-31" value="mapping 顺序映射target" style="rounded=1;whiteSpace=wrap;html=1;arcSize=40;fontColor=#000000;fillColor=#ffffc0;strokeColor=#ff0000;" vertex="1" parent="WIyWlLk6GJQsqaUBKTNV-1">
          <mxGeometry x="1280" y="365" width="150" height="12" as="geometry" />
        </mxCell>
        <mxCell id="ghsJjhkHBw-PjkQFY_jK-35" style="edgeStyle=orthogonalEdgeStyle;rounded=0;orthogonalLoop=1;jettySize=auto;html=1;exitX=0;exitY=0.5;exitDx=0;exitDy=0;entryX=1.008;entryY=0.264;entryDx=0;entryDy=0;entryPerimeter=0;" edge="1" parent="WIyWlLk6GJQsqaUBKTNV-1" source="ghsJjhkHBw-PjkQFY_jK-11" target="ghsJjhkHBw-PjkQFY_jK-3">
          <mxGeometry relative="1" as="geometry" />
        </mxCell>
        <mxCell id="ghsJjhkHBw-PjkQFY_jK-36" value="" style="rounded=0;whiteSpace=wrap;html=1;fillColor=#fff2cc;strokeColor=#d6b656;" vertex="1" parent="WIyWlLk6GJQsqaUBKTNV-1">
          <mxGeometry x="1730" y="584" width="502.5" height="453" as="geometry" />
        </mxCell>
        <mxCell id="ghsJjhkHBw-PjkQFY_jK-39" value="InputTotalTaskMeta" style="swimlane;fontStyle=1;align=center;verticalAlign=top;childLayout=stackLayout;horizontal=1;startSize=26;horizontalStack=0;resizeParent=1;resizeParentMax=0;resizeLast=0;collapsible=1;marginBottom=0;" vertex="1" parent="WIyWlLk6GJQsqaUBKTNV-1">
          <mxGeometry x="1770" y="621" width="240" height="106" as="geometry" />
        </mxCell>
        <mxCell id="ghsJjhkHBw-PjkQFY_jK-42" value="connection[db table authinfo]&#xa;taskstart long&#xa;taskEnd  long&#xa;foreignKey&#xa;mapping&#xa;&#xa;&#xa;" style="text;strokeColor=none;fillColor=none;align=left;verticalAlign=top;spacingLeft=4;spacingRight=4;overflow=hidden;rotatable=0;points=[[0,0.5],[1,0.5]];portConstraint=eastwest;" vertex="1" parent="ghsJjhkHBw-PjkQFY_jK-39">
          <mxGeometry y="26" width="240" height="80" as="geometry" />
        </mxCell>
        <mxCell id="ghsJjhkHBw-PjkQFY_jK-43" value="InputIncrTaskMeta" style="swimlane;fontStyle=1;align=center;verticalAlign=top;childLayout=stackLayout;horizontal=1;startSize=26;horizontalStack=0;resizeParent=1;resizeParentMax=0;resizeLast=0;collapsible=1;marginBottom=0;" vertex="1" parent="WIyWlLk6GJQsqaUBKTNV-1">
          <mxGeometry x="1770" y="738" width="240" height="90" as="geometry" />
        </mxCell>
        <mxCell id="ghsJjhkHBw-PjkQFY_jK-44" value="connection[topic authinfo]&#xa;foreignKey&#xa;mapping&#xa;" style="text;strokeColor=none;fillColor=none;align=left;verticalAlign=top;spacingLeft=4;spacingRight=4;overflow=hidden;rotatable=0;points=[[0,0.5],[1,0.5]];portConstraint=eastwest;" vertex="1" parent="ghsJjhkHBw-PjkQFY_jK-43">
          <mxGeometry y="26" width="240" height="64" as="geometry" />
        </mxCell>
        <mxCell id="ghsJjhkHBw-PjkQFY_jK-45" value="OutputTaskMeta" style="swimlane;fontStyle=1;align=center;verticalAlign=top;childLayout=stackLayout;horizontal=1;startSize=26;horizontalStack=0;resizeParent=1;resizeParentMax=0;resizeLast=0;collapsible=1;marginBottom=0;" vertex="1" parent="WIyWlLk6GJQsqaUBKTNV-1">
          <mxGeometry x="1770" y="847.5" width="240" height="120" as="geometry" />
        </mxCell>
        <mxCell id="ghsJjhkHBw-PjkQFY_jK-46" value="connection[index authinfo]&#xa;mapping&#xa;routeingkey &#xa;waitbufferName&#xa;&#xa;" style="text;strokeColor=none;fillColor=none;align=left;verticalAlign=top;spacingLeft=4;spacingRight=4;overflow=hidden;rotatable=0;points=[[0,0.5],[1,0.5]];portConstraint=eastwest;" vertex="1" parent="ghsJjhkHBw-PjkQFY_jK-45">
          <mxGeometry y="26" width="240" height="94" as="geometry" />
        </mxCell>
      </root>
    </mxGraphModel>
  </diagram>
</mxfile>
